font.ufo
<glyph name="exclam" format="1">
  <advance width="414"/>
  <unicode hex="0021"/>
  <outline>
    <contour>
      <point x="166" y="220" type="line"/>
      <point x="260" y="220" type="line"/>
      <point x="274" y="749" type="line"/>
      <point x="153" y="749" type="line"/>
    </contour>
    <contour>
      <point x="216" y="0" type="curve" smooth="yes"/>
      <point x="254" y="0"/>
      <point x="285" y="30"/>
      <point x="285" y="68" type="curve" smooth="yes"/>
      <point x="285" y="107"/>
      <point x="254" y="137"/>
      <point x="216" y="137" type="curve" smooth="yes"/>
      <point x="178" y="137"/>
      <point x="148" y="107"/>
      <point x="148" y="68" type="curve" smooth="yes"/>
      <point x="148" y="30"/>
      <point x="178" y="0"/>
    </contour>
  </outline>
</glyph>
<glyph name="quotedbl" format="1">
  <advance width="323"/>
  <unicode hex="0022"/>
  <outline>
    <contour>
      <point x="47" y="592" type="line"/>
      <point x="125" y="592" type="line"/>
      <point x="137" y="797" type="line"/>
      <point x="34" y="797" type="line"/>
    </contour>
    <contour>
      <point x="198" y="592" type="line"/>
      <point x="276" y="592" type="line"/>
      <point x="288" y="797" type="line"/>
      <point x="185" y="797" type="line"/>
    </contour>
  </outline>
</glyph>
<glyph name="numbersign" format="1">
  <advance width="872"/>
  <unicode hex="0023"/>
  <outline>
    <contour>
      <point x="146" y="0" type="line"/>
      <point x="255" y="0" type="line"/>
      <point x="413" y="740" type="line"/>
      <point x="304" y="740" type="line"/>
    </contour>
    <contour>
      <point x="451" y="0" type="line"/>
      <point x="560" y="0" type="line"/>
      <point x="718" y="740" type="line"/>
      <point x="609" y="740" type="line"/>
    </contour>
    <contour>
      <point x="31" y="185" type="line"/>
      <point x="753" y="185" type="line"/>
      <point x="753" y="285" type="line"/>
      <point x="31" y="285" type="line"/>
    </contour>
    <contour>
      <point x="90" y="458" type="line"/>
      <point x="812" y="458" type="line"/>
      <point x="812" y="558" type="line"/>
      <point x="90" y="558" type="line"/>
    </contour>
  </outline>
</glyph>
<glyph name="dollar" format="1">
  <advance width="650"/>
  <unicode hex="0024"/>
  <outline>
    <contour>
      <point x="274" y="-87" type="line"/>
      <point x="331" y="-87" type="line"/>
      <point x="331" y="784" type="line"/>
      <point x="274" y="784" type="line"/>
    </contour>
    <contour>
      <point x="176" y="508" type="curve" smooth="yes"/>
      <point x="176" y="579"/>
      <point x="229" y="611"/>
      <point x="297" y="611" type="curve" smooth="yes"/>
      <point x="368" y="611"/>
      <point x="410" y="567"/>
      <point x="415" y="517" type="curve"/>
      <point x="537" y="517" type="line"/>
      <point x="527" y="640"/>
      <point x="435" y="704"/>
      <point x="303" y="704" type="curve" smooth="yes"/>
      <point x="161" y="704"/>
      <point x="60" y="624"/>
      <point x="60" y="502" type="curve" smooth="yes"/>
      <point x="60" y="243"/>
      <point x="429" y="365"/>
      <point x="429" y="192" type="curve" smooth="yes"/>
      <point x="429" y="131"/>
      <point x="383" y="85"/>
      <point x="303" y="85" type="curve" smooth="yes"/>
      <point x="224" y="85"/>
      <point x="187" y="126"/>
      <point x="182" y="185" type="curve"/>
      <point x="60" y="185" type="line"/>
      <point x="60" y="62"/>
      <point x="164" y="-7"/>
      <point x="303" y="-7" type="curve" smooth="yes"/>
      <point x="458" y="-7"/>
      <point x="544" y="94"/>
      <point x="544" y="198" type="curve" smooth="yes"/>
      <point x="544" y="456"/>
      <point x="176" y="332"/>
    </contour>
  </outline>
</glyph>
<glyph name="percent" format="1">
  <advance width="722"/>
  <unicode hex="0025"/>
  <outline>
    <contour>
      <point x="41" y="553" type="curve" smooth="yes"/>
      <point x="41" y="456"/>
      <point x="106" y="399"/>
      <point x="193" y="399" type="curve" smooth="yes"/>
      <point x="280" y="399"/>
      <point x="345" y="456"/>
      <point x="345" y="553" type="curve" smooth="yes"/>
      <point x="345" y="649"/>
      <point x="280" y="706"/>
      <point x="193" y="706" type="curve" smooth="yes"/>
      <point x="106" y="706"/>
      <point x="41" y="649"/>
    </contour>
    <contour>
      <point x="193" y="637" type="curve" smooth="yes"/>
      <point x="231" y="637"/>
      <point x="256" y="612"/>
      <point x="256" y="553" type="curve" smooth="yes"/>
      <point x="256" y="494"/>
      <point x="231" y="468"/>
      <point x="193" y="468" type="curve" smooth="yes"/>
      <point x="154" y="468"/>
      <point x="130" y="494"/>
      <point x="130" y="553" type="curve" smooth="yes"/>
      <point x="130" y="612"/>
      <point x="154" y="637"/>
    </contour>
    <contour>
      <point x="105" y="0" type="line"/>
      <point x="217" y="0" type="line"/>
      <point x="616" y="696" type="line"/>
      <point x="504" y="696" type="line"/>
    </contour>
    <contour>
      <point x="378" y="144" type="curve" smooth="yes"/>
      <point x="378" y="47"/>
      <point x="443" y="-10"/>
      <point x="530" y="-10" type="curve" smooth="yes"/>
      <point x="616" y="-10"/>
      <point x="681" y="47"/>
      <point x="681" y="144" type="curve" smooth="yes"/>
      <point x="681" y="241"/>
      <point x="616" y="297"/>
      <point x="530" y="297" type="curve" smooth="yes"/>
      <point x="443" y="297"/>
      <point x="378" y="241"/>
    </contour>
    <contour>
      <point x="529" y="228" type="curve" smooth="yes"/>
      <point x="567" y="228"/>
      <point x="592" y="203"/>
      <point x="592" y="144" type="curve" smooth="yes"/>
      <point x="592" y="85"/>
      <point x="567" y="60"/>
      <point x="529" y="60" type="curve" smooth="yes"/>
      <point x="491" y="60"/>
      <point x="466" y="85"/>
      <point x="466" y="144" type="curve" smooth="yes"/>
      <point x="466" y="203"/>
      <point x="491" y="228"/>
    </contour>
  </outline>
</glyph>
<glyph name="ampersand" format="1">
  <advance width="677"/>
  <unicode hex="0026"/>
  <outline>
    <contour>
      <point x="137" y="204" type="curve" smooth="yes"/>
      <point x="137" y="270"/>
      <point x="185" y="321"/>
      <point x="247" y="321" type="curve" smooth="yes"/>
      <point x="308" y="321"/>
      <point x="358" y="270"/>
      <point x="358" y="204" type="curve" smooth="yes"/>
      <point x="358" y="138"/>
      <point x="308" y="86"/>
      <point x="247" y="86" type="curve" smooth="yes"/>
      <point x="185" y="86"/>
      <point x="137" y="138"/>
    </contour>
    <contour>
      <point x="149" y="573" type="curve" smooth="yes"/>
      <point x="149" y="522"/>
      <point x="173" y="477"/>
      <point x="216" y="418" type="curve" smooth="yes"/>
      <point x="270" y="392" type="line"/>
      <point x="258" y="404"/>
      <point x="250" y="410"/>
      <point x="233" y="410" type="curve" smooth="yes"/>
      <point x="127" y="410"/>
      <point x="36" y="325"/>
      <point x="36" y="203" type="curve" smooth="yes"/>
      <point x="36" y="80"/>
      <point x="130" y="-8"/>
      <point x="246" y="-8" type="curve" smooth="yes"/>
      <point x="350" y="-8"/>
      <point x="433" y="67"/>
      <point x="449" y="159" type="curve"/>
      <point x="413" y="159" type="line"/>
      <point x="530" y="0" type="line"/>
      <point x="666" y="0" type="line"/>
      <point x="301" y="482" type="line" smooth="yes"/>
      <point x="271" y="521"/>
      <point x="263" y="544"/>
      <point x="263" y="571" type="curve" smooth="yes"/>
      <point x="263" y="611"/>
      <point x="292" y="644"/>
      <point x="336" y="644" type="curve" smooth="yes"/>
      <point x="381" y="644"/>
      <point x="411" y="612"/>
      <point x="411" y="570" type="curve" smooth="yes"/>
      <point x="411" y="558"/>
      <point x="408" y="541"/>
      <point x="403" y="530" type="curve"/>
      <point x="515" y="530" type="line"/>
      <point x="521" y="545"/>
      <point x="524" y="564"/>
      <point x="524" y="581" type="curve" smooth="yes"/>
      <point x="524" y="661"/>
      <point x="457" y="740"/>
      <point x="336" y="740" type="curve" smooth="yes"/>
      <point x="215" y="740"/>
      <point x="149" y="658"/>
    </contour>
  </outline>
</glyph>
<glyph name="quotesingle" format="1">
  <advance width="172"/>
  <unicode hex="0027"/>
  <outline>
    <contour>
      <point x="47" y="592" type="line"/>
      <point x="125" y="592" type="line"/>
      <point x="137" y="797" type="line"/>
      <point x="34" y="797" type="line"/>
    </contour>
  </outline>
</glyph>
<glyph name="parenleft" format="1">
  <advance width="538"/>
  <unicode hex="0028"/>
  <outline>
    <contour>
      <point x="393" y="-185" type="curve"/>
      <point x="511" y="-185" type="line"/>
      <point x="511" y="-174" type="line"/>
      <point x="322" y="-23"/>
      <point x="238" y="188"/>
      <point x="238" y="403" type="curve"/>
      <point x="238" y="617"/>
      <point x="322" y="828"/>
      <point x="511" y="978" type="curve"/>
      <point x="511" y="989" type="line"/>
      <point x="393" y="989" type="line"/>
      <point x="237" y="874"/>
      <point x="127" y="655"/>
      <point x="127" y="403" type="curve" smooth="yes"/>
      <point x="127" y="149"/>
      <point x="237" y="-69"/>
    </contour>
  </outline>
</glyph>
<glyph name="parenright" format="1">
  <advance width="539"/>
  <unicode hex="0029"/>
  <outline>
    <contour>
      <point x="145" y="989" type="curve"/>
      <point x="27" y="989" type="line"/>
      <point x="27" y="978" type="line"/>
      <point x="217" y="828"/>
      <point x="301" y="617"/>
      <point x="301" y="403" type="curve" smooth="yes"/>
      <point x="301" y="188"/>
      <point x="217" y="-23"/>
      <point x="27" y="-174" type="curve"/>
      <point x="27" y="-185" type="line"/>
      <point x="145" y="-185" type="line"/>
      <point x="302" y="-69"/>
      <point x="412" y="149"/>
      <point x="412" y="403" type="curve" smooth="yes"/>
      <point x="412" y="655"/>
      <point x="302" y="874"/>
    </contour>
  </outline>
</glyph>
<glyph name="asterisk" format="1">
  <advance width="504"/>
  <unicode hex="002A"/>
  <outline>
    <contour>
      <point x="299" y="736" type="line"/>
      <point x="206" y="736" type="line"/>
      <point x="226" y="590" type="line"/>
      <point x="109" y="680" type="line"/>
      <point x="63" y="598" type="line"/>
      <point x="199" y="549" type="line"/>
      <point x="63" y="498" type="line"/>
      <point x="111" y="413" type="line"/>
      <point x="225" y="505" type="line"/>
      <point x="206" y="360" type="line"/>
      <point x="298" y="360" type="line"/>
      <point x="277" y="505" type="line"/>
      <point x="391" y="415" type="line"/>
      <point x="437" y="497" type="line"/>
      <point x="300" y="548" type="line"/>
      <point x="437" y="599" type="line"/>
      <point x="392" y="679" type="line"/>
      <point x="277" y="590" type="line"/>
    </contour>
  </outline>
</glyph>
<glyph name="plus" format="1">
  <advance width="714"/>
  <unicode hex="002B"/>
  <outline>
    <contour>
      <point x="303" y="616" type="line"/>
      <point x="303" y="106" type="line"/>
      <point x="411" y="106" type="line"/>
      <point x="411" y="616" type="line"/>
    </contour>
    <contour>
      <point x="102" y="310" type="line"/>
      <point x="612" y="310" type="line"/>
      <point x="612" y="412" type="line"/>
      <point x="102" y="412" type="line"/>
    </contour>
  </outline>
</glyph>
<glyph name="comma" format="1">
  <advance width="202"/>
  <unicode hex="002C"/>
  <outline>
    <contour>
      <point x="36" y="78" type="line"/>
      <point x="36" y="-32" type="line"/>
      <point x="93" y="-32" type="line"/>
      <point x="93" y="-53" type="line" smooth="yes"/>
      <point x="93" y="-91"/>
      <point x="78" y="-105"/>
      <point x="45" y="-105" type="curve"/>
      <point x="45" y="-155" type="line"/>
      <point x="160" y="-155"/>
      <point x="183" y="-56"/>
      <point x="144" y="78" type="curve"/>
    </contour>
  </outline>
</glyph>
<glyph name="period" format="1">
  <advance width="235"/>
  <unicode hex="002E"/>
  <outline>
    <contour>
      <point x="117" y="0" type="curve" smooth="yes"/>
      <point x="156" y="0"/>
      <point x="186" y="30"/>
      <point x="186" y="68" type="curve" smooth="yes"/>
      <point x="186" y="107"/>
      <point x="156" y="137"/>
      <point x="117" y="137" type="curve" smooth="yes"/>
      <point x="79" y="137"/>
      <point x="49" y="107"/>
      <point x="49" y="68" type="curve" smooth="yes"/>
      <point x="49" y="30"/>
      <point x="79" y="0"/>
    </contour>
  </outline>
</glyph>
<glyph name="slash" format="1">
  <advance width="514"/>
  <unicode hex="002F"/>
  <outline>
    <contour>
      <point x="61" y="-175" type="line"/>
      <point x="173" y="-175" type="line"/>
      <point x="445" y="944" type="line"/>
      <point x="332" y="944" type="line"/>
    </contour>
  </outline>
</glyph>
<glyph name="zero" format="1">
  <advance width="641"/>
  <unicode hex="0030"/>
  <outline>
    <contour>
      <point x="320" y="729" type="curve" smooth="yes"/>
      <point x="524" y="729"/>
      <point x="580" y="569"/>
      <point x="580" y="366" type="curve"/>
      <point x="580" y="162"/>
      <point x="524" y="2"/>
      <point x="320" y="2" type="curve" smooth="yes"/>
      <point x="116" y="2"/>
      <point x="60" y="162"/>
      <point x="60" y="366" type="curve"/>
      <point x="60" y="569"/>
      <point x="116" y="729"/>
    </contour>
    <contour>
      <point x="320" y="625" type="curve" smooth="yes"/>
      <point x="187" y="625"/>
      <point x="172" y="500"/>
      <point x="172" y="366" type="curve" smooth="yes"/>
      <point x="172" y="231"/>
      <point x="187" y="106"/>
      <point x="320" y="106" type="curve" smooth="yes"/>
      <point x="453" y="106"/>
      <point x="468" y="231"/>
      <point x="468" y="366" type="curve"/>
      <point x="468" y="500"/>
      <point x="453" y="625"/>
    </contour>
  </outline>
</glyph>
<glyph name="one" format="1">
  <advance width="350"/>
  <unicode hex="0031"/>
  <outline>
    <contour>
      <point x="138" y="0" type="line"/>
      <point x="253" y="0" type="line"/>
      <point x="253" y="710" type="line"/>
      <point x="45" y="710" type="line"/>
      <point x="45" y="606" type="line"/>
      <point x="138" y="606" type="line"/>
    </contour>
  </outline>
</glyph>
<glyph name="two" format="1">
  <advance width="577"/>
  <unicode hex="0032"/>
  <outline>
    <contour>
      <point x="51" y="10" type="line"/>
      <point x="537" y="10" type="line"/>
      <point x="537" y="105" type="line"/>
      <point x="220" y="105" type="line"/>
      <point x="337" y="212"/>
      <point x="517" y="347"/>
      <point x="517" y="518" type="curve" smooth="yes"/>
      <point x="517" y="644"/>
      <point x="433" y="733"/>
      <point x="285" y="733" type="curve" smooth="yes"/>
      <point x="156" y="733"/>
      <point x="54" y="656"/>
      <point x="50" y="498" type="curve"/>
      <point x="160" y="498" type="line"/>
      <point x="163" y="580"/>
      <point x="206" y="636"/>
      <point x="286" y="636" type="curve" smooth="yes"/>
      <point x="371" y="636"/>
      <point x="404" y="584"/>
      <point x="404" y="513" type="curve" smooth="yes"/>
      <point x="404" y="376"/>
      <point x="223" y="244"/>
      <point x="51" y="93" type="curve"/>
    </contour>
  </outline>
</glyph>
<glyph name="three" format="1">
  <advance width="594"/>
  <unicode hex="0033"/>
  <outline>
    <contour>
      <point x="58" y="549" type="curve"/>
      <point x="169" y="549" type="line"/>
      <point x="176" y="600"/>
      <point x="213" y="648"/>
      <point x="293" y="648" type="curve" smooth="yes"/>
      <point x="371" y="648"/>
      <point x="412" y="606"/>
      <point x="412" y="543" type="curve" smooth="yes"/>
      <point x="412" y="465"/>
      <point x="349" y="435"/>
      <point x="246" y="434" type="curve" smooth="yes"/>
      <point x="219" y="434" type="line"/>
      <point x="219" y="340" type="line"/>
      <point x="245" y="340" type="line" smooth="yes"/>
      <point x="364" y="340"/>
      <point x="426" y="307"/>
      <point x="426" y="211" type="curve" smooth="yes"/>
      <point x="426" y="143"/>
      <point x="384" y="91"/>
      <point x="299" y="91" type="curve" smooth="yes"/>
      <point x="213" y="91"/>
      <point x="163" y="143"/>
      <point x="158" y="211" type="curve"/>
      <point x="48" y="211" type="line"/>
      <point x="55" y="68"/>
      <point x="162" y="-4"/>
      <point x="300" y="-4" type="curve" smooth="yes"/>
      <point x="452" y="-4"/>
      <point x="534" y="84"/>
      <point x="534" y="200" type="curve" smooth="yes"/>
      <point x="534" y="301"/>
      <point x="485" y="364"/>
      <point x="409" y="387" type="curve"/>
      <point x="409" y="391" type="line"/>
      <point x="466" y="410"/>
      <point x="521" y="469"/>
      <point x="521" y="556" type="curve" smooth="yes"/>
      <point x="521" y="662"/>
      <point x="442" y="746"/>
      <point x="297" y="746" type="curve" smooth="yes"/>
      <point x="164" y="746"/>
      <point x="66" y="675"/>
    </contour>
  </outline>
</glyph>
<glyph name="seven" format="1">
  <advance width="560"/>
  <unicode hex="0037"/>
  <outline>
    <contour>
      <point x="40" y="726" type="line"/>
      <point x="40" y="631" type="line"/>
      <point x="410" y="631" type="line"/>
      <point x="119" y="0" type="line"/>
      <point x="244" y="0" type="line"/>
      <point x="522" y="641" type="line"/>
      <point x="522" y="726" type="line"/>
    </contour>
  </outline>
</glyph>
<glyph name="eight" format="1">
  <advance width="638"/>
  <unicode hex="0038"/>
  <outline>
    <contour>
      <point x="183" y="391" type="curve"/>
      <point x="110" y="364"/>
      <point x="61" y="299"/>
      <point x="61" y="206" type="curve" smooth="yes"/>
      <point x="61" y="68"/>
      <point x="169" y="-18"/>
      <point x="319" y="-18" type="curve" smooth="yes"/>
      <point x="470" y="-18"/>
      <point x="578" y="68"/>
      <point x="578" y="206" type="curve" smooth="yes"/>
      <point x="578" y="298"/>
      <point x="529" y="363"/>
      <point x="455" y="391" type="curve"/>
      <point x="514" y="420"/>
      <point x="559" y="477"/>
      <point x="559" y="555" type="curve" smooth="yes"/>
      <point x="559" y="660"/>
      <point x="480" y="752"/>
      <point x="319" y="752" type="curve"/>
      <point x="158" y="752"/>
      <point x="79" y="661"/>
      <point x="79" y="555" type="curve" smooth="yes"/>
      <point x="79" y="474"/>
      <point x="121" y="422"/>
    </contour>
    <contour>
      <point x="319" y="657" type="curve" smooth="yes"/>
      <point x="399" y="657"/>
      <point x="450" y="616"/>
      <point x="450" y="541" type="curve" smooth="yes"/>
      <point x="450" y="475"/>
      <point x="395" y="427"/>
      <point x="319" y="427" type="curve"/>
      <point x="243" y="427"/>
      <point x="189" y="474"/>
      <point x="189" y="540" type="curve" smooth="yes"/>
      <point x="189" y="617"/>
      <point x="241" y="657"/>
    </contour>
    <contour>
      <point x="319" y="341" type="curve" smooth="yes"/>
      <point x="405" y="341"/>
      <point x="466" y="297"/>
      <point x="466" y="210" type="curve" smooth="yes"/>
      <point x="466" y="132"/>
      <point x="411" y="77"/>
      <point x="319" y="77" type="curve"/>
      <point x="226" y="77"/>
      <point x="170" y="131"/>
      <point x="170" y="210" type="curve" smooth="yes"/>
      <point x="170" y="300"/>
      <point x="235" y="341"/>
    </contour>
  </outline>
</glyph>
<glyph name="nine" format="1">
  <advance width="635"/>
  <unicode hex="0039"/>
  <outline>
    <contour>
      <point x="97" y="198" type="line"/>
      <point x="106" y="94"/>
      <point x="176" y="1"/>
      <point x="327" y="1" type="curve" smooth="yes"/>
      <point x="518" y="1"/>
      <point x="570" y="132"/>
      <point x="570" y="378" type="curve" smooth="yes"/>
      <point x="570" y="617"/>
      <point x="507" y="746"/>
      <point x="319" y="746" type="curve" smooth="yes"/>
      <point x="166" y="746"/>
      <point x="77" y="650"/>
      <point x="77" y="505" type="curve" smooth="yes"/>
      <point x="77" y="351"/>
      <point x="181" y="272"/>
      <point x="309" y="272" type="curve" smooth="yes"/>
      <point x="375" y="272"/>
      <point x="438" y="297"/>
      <point x="471" y="343" type="curve"/>
      <point x="471" y="157"/>
      <point x="425" y="96"/>
      <point x="334" y="96" type="curve" smooth="yes"/>
      <point x="258" y="96"/>
      <point x="215" y="133"/>
      <point x="202" y="198" type="curve"/>
    </contour>
    <contour>
      <point x="329" y="368" type="curve" smooth="yes"/>
      <point x="228" y="368"/>
      <point x="186" y="433"/>
      <point x="186" y="508" type="curve" smooth="yes"/>
      <point x="186" y="592"/>
      <point x="237" y="651"/>
      <point x="322" y="651" type="curve" smooth="yes"/>
      <point x="405" y="651"/>
      <point x="458" y="598"/>
      <point x="458" y="505" type="curve" smooth="yes"/>
      <point x="458" y="423"/>
      <point x="410" y="368"/>
    </contour>
  </outline>
</glyph>
<glyph name="colon" format="1">
  <advance width="307"/>
  <unicode hex="003A"/>
  <outline>
    <contour>
      <point x="148" y="0" type="curve" smooth="yes"/>
      <point x="187" y="0"/>
      <point x="217" y="30"/>
      <point x="217" y="68" type="curve" smooth="yes"/>
      <point x="217" y="107"/>
      <point x="187" y="137"/>
      <point x="148" y="137" type="curve" smooth="yes"/>
      <point x="110" y="137"/>
      <point x="80" y="107"/>
      <point x="80" y="68" type="curve" smooth="yes"/>
      <point x="80" y="30"/>
      <point x="110" y="0"/>
    </contour>
    <contour>
      <point x="148" y="419" type="curve" smooth="yes"/>
      <point x="187" y="419"/>
      <point x="217" y="449"/>
      <point x="217" y="487" type="curve" smooth="yes"/>
      <point x="217" y="525"/>
      <point x="187" y="556"/>
      <point x="148" y="556" type="curve" smooth="yes"/>
      <point x="110" y="556"/>
      <point x="80" y="525"/>
      <point x="80" y="487" type="curve" smooth="yes"/>
      <point x="80" y="449"/>
      <point x="110" y="419"/>
    </contour>
  </outline>
</glyph>
<glyph name="less" format="1">
  <advance width="612"/>
  <unicode hex="003C"/>
  <outline>
    <contour>
      <point x="241" y="361" type="line"/>
      <point x="472" y="588" type="line"/>
      <point x="328" y="588" type="line"/>
      <point x="98" y="361" type="line"/>
      <point x="328" y="134" type="line"/>
      <point x="472" y="134" type="line"/>
    </contour>
  </outline>
</glyph>
<glyph name="equal" format="1">
  <advance width="774"/>
  <unicode hex="003D"/>
  <outline>
    <contour>
      <point x="121" y="197" type="line"/>
      <point x="653" y="197" type="line"/>
      <point x="653" y="298" type="line"/>
      <point x="121" y="298" type="line"/>
    </contour>
    <contour>
      <point x="121" y="424" type="line"/>
      <point x="653" y="424" type="line"/>
      <point x="653" y="525" type="line"/>
      <point x="121" y="525" type="line"/>
    </contour>
  </outline>
</glyph>
<glyph name="greater" format="1">
  <advance width="590"/>
  <unicode hex="003E"/>
  <outline>
    <contour>
      <point x="112" y="134" type="line"/>
      <point x="256" y="134" type="line"/>
      <point x="486" y="361" type="line"/>
      <point x="256" y="588" type="line"/>
      <point x="112" y="588" type="line"/>
      <point x="343" y="361" type="line"/>
    </contour>
  </outline>
</glyph>
<glyph name="question" format="1">
  <advance width="633"/>
  <unicode hex="003F"/>
  <outline>
    <contour>
      <point x="96" y="542" type="curve"/>
      <point x="203" y="542" type="line"/>
      <point x="203" y="612"/>
      <point x="248" y="652"/>
      <point x="319" y="652" type="curve" smooth="yes"/>
      <point x="391" y="652"/>
      <point x="434" y="609"/>
      <point x="434" y="539" type="curve" smooth="yes"/>
      <point x="434" y="432"/>
      <point x="362" y="413"/>
      <point x="249" y="414" type="curve" smooth="yes"/>
      <point x="201" y="414" type="line"/>
      <point x="201" y="214" type="line"/>
      <point x="309" y="214" type="line"/>
      <point x="309" y="336" type="line"/>
      <point x="457" y="337"/>
      <point x="543" y="389"/>
      <point x="543" y="539" type="curve" smooth="yes"/>
      <point x="543" y="669"/>
      <point x="452" y="748"/>
      <point x="318" y="748" type="curve" smooth="yes"/>
      <point x="182" y="748"/>
      <point x="95" y="663"/>
    </contour>
    <contour>
      <point x="189" y="63" type="curve" smooth="yes"/>
      <point x="189" y="25"/>
      <point x="219" y="-6"/>
      <point x="257" y="-6" type="curve" smooth="yes"/>
      <point x="296" y="-6"/>
      <point x="326" y="25"/>
      <point x="326" y="63" type="curve" smooth="yes"/>
      <point x="326" y="101"/>
      <point x="296" y="132"/>
      <point x="257" y="132" type="curve" smooth="yes"/>
      <point x="219" y="132"/>
      <point x="189" y="101"/>
    </contour>
  </outline>
</glyph>
<glyph name="at" format="1">
  <advance width="1192"/>
  <unicode hex="0040"/>
  <outline>
    <contour>
      <point x="740" y="276" type="curve" smooth="yes"/>
      <point x="724" y="165"/>
      <point x="640" y="89"/>
      <point x="558" y="89" type="curve" smooth="yes"/>
      <point x="476" y="89"/>
      <point x="414" y="164"/>
      <point x="430" y="275" type="curve" smooth="yes"/>
      <point x="446" y="385"/>
      <point x="530" y="461"/>
      <point x="612" y="461" type="curve" smooth="yes"/>
      <point x="693" y="461"/>
      <point x="756" y="386"/>
    </contour>
    <contour>
      <point x="316" y="279" type="curve" smooth="yes"/>
      <point x="292" y="109"/>
      <point x="396" y="-9"/>
      <point x="530" y="-9" type="curve" smooth="yes"/>
      <point x="636" y="-9"/>
      <point x="705" y="57"/>
      <point x="747" y="141" type="curve"/>
      <point x="733" y="139" type="line"/>
      <point x="726" y="60"/>
      <point x="761" y="-9"/>
      <point x="860" y="-9" type="curve" smooth="yes"/>
      <point x="1000" y="-9"/>
      <point x="1143" y="147"/>
      <point x="1143" y="359" type="curve" smooth="yes"/>
      <point x="1143" y="624"/>
      <point x="952" y="793"/>
      <point x="669" y="793" type="curve" smooth="yes"/>
      <point x="316" y="793"/>
      <point x="49" y="548"/>
      <point x="49" y="213" type="curve" smooth="yes"/>
      <point x="49" y="-79"/>
      <point x="259" y="-251"/>
      <point x="555" y="-256" type="curve"/>
      <point x="578" y="-164" type="line"/>
      <point x="325" y="-159"/>
      <point x="166" y="-24"/>
      <point x="166" y="213" type="curve" smooth="yes"/>
      <point x="166" y="485"/>
      <point x="369" y="701"/>
      <point x="654" y="701" type="curve" smooth="yes"/>
      <point x="888" y="701"/>
      <point x="1025" y="563"/>
      <point x="1025" y="360" type="curve" smooth="yes"/>
      <point x="1025" y="194"/>
      <point x="934" y="89"/>
      <point x="869" y="89" type="curve" smooth="yes"/>
      <point x="841" y="89"/>
      <point x="827" y="107"/>
      <point x="832" y="143" type="curve" smooth="yes"/>
      <point x="854" y="292" type="line" smooth="yes"/>
      <point x="877" y="447"/>
      <point x="781" y="559"/>
      <point x="630" y="559" type="curve" smooth="yes"/>
      <point x="478" y="559"/>
      <point x="340" y="448"/>
    </contour>
  </outline>
</glyph>
<glyph name="A" format="1">
  <advance width="697"/>
  <unicode hex="0041"/>
  <outline>
    <contour>
      <point x="349" y="696" type="move" name="top"/>
    </contour>
    <contour>
      <point x="664" y="0" type="move" name="ogonek"/>
    </contour>
    <contour>
      <point x="283" y="696" type="line"/>
      <point x="34" y="0" type="line"/>
      <point x="153" y="0" type="line"/>
      <point x="375" y="634" type="line"/>
      <point x="322" y="634" type="line"/>
      <point x="544" y="0" type="line"/>
      <point x="664" y="0" type="line"/>
      <point x="415" y="696" type="line"/>
    </contour>
    <contour>
      <point x="138" y="142" type="line"/>
      <point x="554" y="142" type="line"/>
      <point x="524" y="231" type="line"/>
      <point x="167" y="231" type="line"/>
    </contour>
  </outline>
</glyph>
<glyph name="B" format="1">
  <advance width="630"/>
  <unicode hex="0042"/>
  <outline>
    <contour>
      <point x="449" y="502" type="curve" smooth="yes"/>
      <point x="449" y="438"/>
      <point x="404" y="400"/>
      <point x="330" y="400" type="curve" smooth="yes"/>
      <point x="189" y="400" type="line"/>
      <point x="189" y="606" type="line"/>
      <point x="330" y="606" type="line" smooth="yes"/>
      <point x="404" y="606"/>
      <point x="449" y="567"/>
    </contour>
    <contour>
      <point x="581" y="183" type="curve" smooth="yes"/>
      <point x="581" y="275"/>
      <point x="511" y="356"/>
      <point x="403" y="359" type="curve"/>
      <point x="386" y="347" type="line"/>
      <point x="495" y="364"/>
      <point x="565" y="417"/>
      <point x="565" y="511" type="curve" smooth="yes"/>
      <point x="565" y="614"/>
      <point x="487" y="695"/>
      <point x="340" y="695" type="curve" smooth="yes"/>
      <point x="75" y="695" type="line"/>
      <point x="75" y="0" type="line"/>
      <point x="353" y="0" type="line" smooth="yes"/>
      <point x="495" y="0"/>
      <point x="581" y="79"/>
    </contour>
    <contour>
      <point x="467" y="199" type="curve" smooth="yes"/>
      <point x="467" y="130"/>
      <point x="420" y="89"/>
      <point x="343" y="89" type="curve" smooth="yes"/>
      <point x="189" y="89" type="line"/>
      <point x="189" y="311" type="line"/>
      <point x="339" y="311" type="line" smooth="yes"/>
      <point x="415" y="311"/>
      <point x="467" y="268"/>
    </contour>
  </outline>
</glyph>
<glyph name="C" format="1">
  <advance width="773"/>
  <unicode hex="0043"/>
  <outline>
    <contour>
      <point x="386" y="696" type="move" name="top"/>
    </contour>
    <contour>
      <point x="386" y="0" type="move" name="bottom"/>
    </contour>
    <contour>
      <point x="37" y="349" type="curve" smooth="yes"/>
      <point x="37" y="140"/>
      <point x="196" y="-6"/>
      <point x="392" y="-6" type="curve" smooth="yes"/>
      <point x="537" y="-6"/>
      <point x="662" y="66"/>
      <point x="715" y="202" type="curve"/>
      <point x="578" y="202" type="line"/>
      <point x="541" y="132"/>
      <point x="475" y="97"/>
      <point x="392" y="97" type="curve" smooth="yes"/>
      <point x="254" y="97"/>
      <point x="154" y="196"/>
      <point x="154" y="349" type="curve" smooth="yes"/>
      <point x="154" y="502"/>
      <point x="254" y="600"/>
      <point x="392" y="600" type="curve" smooth="yes"/>
      <point x="475" y="600"/>
      <point x="541" y="565"/>
      <point x="578" y="495" type="curve"/>
      <point x="715" y="495" type="line"/>
      <point x="662" y="631"/>
      <point x="537" y="704"/>
      <point x="392" y="704" type="curve" smooth="yes"/>
      <point x="196" y="704"/>
      <point x="37" y="557"/>
    </contour>
  </outline>
</glyph>
<glyph name="D" format="1">
  <advance width="709"/>
  <unicode hex="0044"/>
  <outline>
    <contour>
      <point x="355" y="696" type="move" name="top"/>
    </contour>
    <contour>
      <point x="302" y="695" type="curve" smooth="yes"/>
      <point x="75" y="695" type="line"/>
      <point x="75" y="0" type="line"/>
      <point x="302" y="0" type="line" smooth="yes"/>
      <point x="525" y="0"/>
      <point x="671" y="131"/>
      <point x="671" y="345" type="curve" smooth="yes"/>
      <point x="671" y="560"/>
      <point x="525" y="695"/>
    </contour>
    <contour>
      <point x="189" y="87" type="line"/>
      <point x="189" y="603" type="line"/>
      <point x="302" y="603" type="line" smooth="yes"/>
      <point x="466" y="603"/>
      <point x="554" y="504"/>
      <point x="554" y="345" type="curve" smooth="yes"/>
      <point x="554" y="187"/>
      <point x="466" y="87"/>
      <point x="302" y="87" type="curve" smooth="yes"/>
    </contour>
  </outline>
</glyph>
<glyph name="E" format="1">
  <advance width="524"/>
  <unicode hex="0045"/>
  <outline>
    <contour>
      <point x="262" y="696" type="move" name="top"/>
    </contour>
    <contour>
      <point x="459" y="0" type="move" name="ogonek"/>
    </contour>
    <contour>
      <point x="262" y="0" type="move" name="bottom"/>
    </contour>
    <contour>
      <point x="459" y="696" type="line"/>
      <point x="75" y="696" type="line"/>
      <point x="75" y="0" type="line"/>
      <point x="459" y="0" type="line"/>
      <point x="459" y="89" type="line"/>
      <point x="189" y="89" type="line"/>
      <point x="189" y="308" type="line"/>
      <point x="429" y="308" type="line"/>
      <point x="429" y="396" type="line"/>
      <point x="189" y="396" type="line"/>
      <point x="189" y="607" type="line"/>
      <point x="459" y="607" type="line"/>
    </contour>
  </outline>
</glyph>
<glyph name="F" format="1">
  <advance width="515"/>
  <unicode hex="0046"/>
  <outline>
    <contour>
      <point x="75" y="0" type="line"/>
      <point x="189" y="0" type="line"/>
      <point x="189" y="307" type="line"/>
      <point x="419" y="307" type="line"/>
      <point x="419" y="395" type="line"/>
      <point x="189" y="395" type="line"/>
      <point x="189" y="606" type="line"/>
      <point x="484" y="606" type="line"/>
      <point x="484" y="695" type="line"/>
      <point x="75" y="695" type="line"/>
    </contour>
  </outline>
</glyph>
<glyph name="G" format="1">
  <advance width="773"/>
  <unicode hex="0047"/>
  <outline>
    <contour>
      <point x="386" y="696" type="move" name="top"/>
    </contour>
    <contour>
      <point x="386" y="0" type="move" name="bottom"/>
    </contour>
    <contour>
      <point x="37" y="349" type="curve" smooth="yes"/>
      <point x="37" y="140"/>
      <point x="196" y="-6"/>
      <point x="392" y="-6" type="curve" smooth="yes"/>
      <point x="579" y="-6"/>
      <point x="715" y="131"/>
      <point x="736" y="292" type="curve"/>
      <point x="736" y="381" type="line"/>
      <point x="353" y="381" type="line"/>
      <point x="353" y="292" type="line"/>
      <point x="614" y="292" type="line"/>
      <point x="598" y="174"/>
      <point x="518" y="97"/>
      <point x="392" y="97" type="curve" smooth="yes"/>
      <point x="254" y="97"/>
      <point x="154" y="196"/>
      <point x="154" y="349" type="curve" smooth="yes"/>
      <point x="154" y="502"/>
      <point x="254" y="600"/>
      <point x="392" y="600" type="curve" smooth="yes"/>
      <point x="475" y="600"/>
      <point x="541" y="565"/>
      <point x="578" y="495" type="curve"/>
      <point x="715" y="495" type="line"/>
      <point x="662" y="631"/>
      <point x="537" y="704"/>
      <point x="392" y="704" type="curve" smooth="yes"/>
      <point x="196" y="704"/>
      <point x="37" y="557"/>
    </contour>
  </outline>
</glyph>
<glyph name="H" format="1">
  <advance width="705"/>
  <unicode hex="0048"/>
  <outline>
    <contour>
      <point x="75" y="0" type="line"/>
      <point x="189" y="0" type="line"/>
      <point x="189" y="695" type="line"/>
      <point x="75" y="695" type="line"/>
    </contour>
    <contour>
      <point x="516" y="0" type="line"/>
      <point x="630" y="0" type="line"/>
      <point x="630" y="695" type="line"/>
      <point x="516" y="695" type="line"/>
    </contour>
    <contour>
      <point x="169" y="307" type="line"/>
      <point x="543" y="307" type="line"/>
      <point x="543" y="395" type="line"/>
      <point x="169" y="395" type="line"/>
    </contour>
  </outline>
</glyph>
<glyph name="I" format="1">
  <advance width="264"/>
  <unicode hex="0049"/>
  <outline>
    <contour>
      <point x="132" y="696" type="move" name="top"/>
    </contour>
    <contour>
      <point x="189" y="1" type="move" name="ogonek"/>
    </contour>
    <contour>
      <point x="75" y="0" type="line"/>
      <point x="189" y="0" type="line"/>
      <point x="189" y="695" type="line"/>
      <point x="75" y="695" type="line"/>
    </contour>
  </outline>
</glyph>
<glyph name="J" format="1">
  <advance width="564"/>
  <unicode hex="004A"/>
  <outline>
    <contour>
      <point x="339" y="194" type="line"/>
      <point x="339" y="136"/>
      <point x="310" y="94"/>
      <point x="249" y="94" type="curve" smooth="yes"/>
      <point x="188" y="94"/>
      <point x="160" y="136"/>
      <point x="159" y="194" type="curve"/>
      <point x="44" y="194" type="line"/>
      <point x="44" y="68"/>
      <point x="129" y="-7"/>
      <point x="249" y="-7" type="curve" smooth="yes"/>
      <point x="369" y="-7"/>
      <point x="454" y="68"/>
      <point x="454" y="194" type="curve" smooth="yes"/>
      <point x="454" y="695" type="line"/>
      <point x="339" y="695" type="line"/>
    </contour>
  </outline>
</glyph>
<glyph name="K" format="1">
  <advance width="633"/>
  <unicode hex="004B"/>
  <outline>
    <contour>
      <point x="317" y="696" type="move" name="top"/>
    </contour>
    <contour>
      <point x="317" y="0" type="move" name="bottom"/>
    </contour>
    <contour>
      <point x="75" y="0" type="line"/>
      <point x="189" y="0" type="line"/>
      <point x="189" y="695" type="line"/>
      <point x="75" y="695" type="line"/>
    </contour>
    <contour>
      <point x="160" y="344" type="line"/>
      <point x="458" y="0" type="line"/>
      <point x="608" y="0" type="line"/>
      <point x="280" y="361" type="line"/>
      <point x="272" y="321" type="line"/>
      <point x="608" y="695" type="line"/>
      <point x="459" y="695" type="line"/>
    </contour>
  </outline>
</glyph>
<glyph name="L" format="1">
  <advance width="444"/>
  <unicode hex="004C"/>
  <outline>
    <contour>
      <point x="248" y="10" type="move" name="commaaccent"/>
    </contour>
    <contour>
      <point x="222" y="696" type="move" name="top"/>
    </contour>
    <contour>
      <point x="424" y="696" type="move" name="topright"/>
    </contour>
    <contour>
      <point x="248" y="0" type="move" name="bottom"/>
    </contour>
    <contour>
      <point x="75" y="695" type="line"/>
      <point x="75" y="0" type="line"/>
      <point x="424" y="0" type="line"/>
      <point x="424" y="87" type="line"/>
      <point x="189" y="87" type="line"/>
      <point x="189" y="695" type="line"/>
    </contour>
  </outline>
</glyph>
<glyph name="M" format="1">
  <advance width="882"/>
  <unicode hex="004D"/>
  <outline>
    <contour>
      <point x="75" y="0" type="line"/>
      <point x="189" y="0" type="line"/>
      <point x="189" y="584" type="line"/>
      <point x="143" y="579" type="line"/>
      <point x="402" y="0" type="line"/>
      <point x="481" y="0" type="line"/>
      <point x="739" y="579" type="line"/>
      <point x="693" y="584" type="line"/>
      <point x="693" y="0" type="line"/>
      <point x="807" y="0" type="line"/>
      <point x="807" y="695" type="line"/>
      <point x="685" y="695" type="line"/>
      <point x="421" y="104" type="line"/>
      <point x="462" y="104" type="line"/>
      <point x="198" y="695" type="line"/>
      <point x="75" y="695" type="line"/>
    </contour>
  </outline>
</glyph>
<glyph name="N" format="1">
  <advance width="721"/>
  <unicode hex="004E"/>
  <outline>
    <contour>
      <point x="361" y="696" type="move" name="top"/>
    </contour>
    <contour>
      <point x="361" y="0" type="move" name="bottom"/>
    </contour>
    <contour>
      <point x="532" y="696" type="line"/>
      <point x="532" y="178" type="line"/>
      <point x="189" y="696" type="line"/>
      <point x="75" y="696" type="line"/>
      <point x="75" y="0" type="line"/>
      <point x="189" y="0" type="line"/>
      <point x="189" y="519" type="line"/>
      <point x="532" y="0" type="line"/>
      <point x="646" y="0" type="line"/>
      <point x="646" y="696" type="line"/>
    </contour>
  </outline>
</glyph>
<glyph name="O" format="1">
  <advance width="784"/>
  <unicode hex="004F"/>
  <outline>
    <contour>
      <point x="392" y="696" type="move" name="top"/>
    </contour>
    <contour>
      <point x="37" y="349" type="curve" smooth="yes"/>
      <point x="37" y="140"/>
      <point x="196" y="-7"/>
      <point x="392" y="-7" type="curve" smooth="yes"/>
      <point x="590" y="-7"/>
      <point x="747" y="140"/>
      <point x="747" y="349" type="curve" smooth="yes"/>
      <point x="747" y="557"/>
      <point x="590" y="704"/>
      <point x="392" y="704" type="curve" smooth="yes"/>
      <point x="196" y="704"/>
      <point x="37" y="557"/>
    </contour>
    <contour>
      <point x="630" y="349" type="curve" smooth="yes"/>
      <point x="630" y="196"/>
      <point x="530" y="96"/>
      <point x="392" y="96" type="curve" smooth="yes"/>
      <point x="254" y="96"/>
      <point x="154" y="196"/>
      <point x="154" y="349" type="curve" smooth="yes"/>
      <point x="154" y="502"/>
      <point x="254" y="600"/>
      <point x="392" y="600" type="curve" smooth="yes"/>
      <point x="530" y="600"/>
      <point x="630" y="502"/>
    </contour>
  </outline>
</glyph>
<glyph name="P" format="1">
  <advance width="595"/>
  <unicode hex="0050"/>
  <outline>
    <contour>
      <point x="189" y="371" type="line"/>
      <point x="189" y="606" type="line"/>
      <point x="315" y="606" type="line" smooth="yes"/>
      <point x="404" y="606"/>
      <point x="444" y="560"/>
      <point x="444" y="488" type="curve" smooth="yes"/>
      <point x="444" y="418"/>
      <point x="404" y="371"/>
      <point x="315" y="371" type="curve" smooth="yes"/>
    </contour>
    <contour>
      <point x="561" y="488" type="curve" smooth="yes"/>
      <point x="561" y="601"/>
      <point x="480" y="695"/>
      <point x="315" y="695" type="curve" smooth="yes"/>
      <point x="75" y="695" type="line"/>
      <point x="75" y="0" type="line"/>
      <point x="189" y="0" type="line"/>
      <point x="189" y="282" type="line"/>
      <point x="315" y="282" type="line" smooth="yes"/>
      <point x="496" y="282"/>
      <point x="561" y="389"/>
    </contour>
  </outline>
</glyph>
<glyph name="Q" format="1">
  <advance width="787"/>
  <unicode hex="0051"/>
  <outline>
    <contour>
      <point x="451" y="50" type="line"/>
      <point x="613" y="-126" type="line"/>
      <point x="758" y="-126" type="line"/>
      <point x="559" y="85" type="line"/>
    </contour>
    <component base="O"/>
  </outline>
</glyph>
<glyph name="R" format="1">
  <advance width="632"/>
  <unicode hex="0052"/>
  <outline>
    <contour>
      <point x="316" y="696" type="move" name="top"/>
    </contour>
    <contour>
      <point x="316" y="0" type="move" name="bottom"/>
    </contour>
    <contour>
      <point x="444" y="488" type="curve" smooth="yes"/>
      <point x="444" y="418"/>
      <point x="404" y="371"/>
      <point x="315" y="371" type="curve" smooth="yes"/>
      <point x="189" y="371" type="line"/>
      <point x="189" y="606" type="line"/>
      <point x="315" y="606" type="line" smooth="yes"/>
      <point x="404" y="606"/>
      <point x="444" y="560"/>
    </contour>
    <contour>
      <point x="75" y="695" type="line"/>
      <point x="75" y="0" type="line"/>
      <point x="189" y="0" type="line"/>
      <point x="189" y="282" type="line"/>
      <point x="315" y="282" type="line" smooth="yes"/>
      <point x="496" y="282"/>
      <point x="561" y="389"/>
      <point x="561" y="488" type="curve" smooth="yes"/>
      <point x="561" y="601"/>
      <point x="480" y="695"/>
      <point x="315" y="695" type="curve" smooth="yes"/>
    </contour>
    <contour>
      <point x="239" y="315" type="line"/>
      <point x="433" y="0" type="line"/>
      <point x="572" y="0" type="line"/>
      <point x="371" y="315" type="line"/>
    </contour>
  </outline>
</glyph>
<glyph name="S" format="1">
  <advance width="604"/>
  <unicode hex="0053"/>
  <outline>
    <contour>
      <point x="303" y="696" type="move" name="top"/>
    </contour>
    <contour>
      <point x="303" y="0" type="move" name="bottom"/>
    </contour>
    <contour>
      <point x="176" y="508" type="curve" smooth="yes"/>
      <point x="176" y="579"/>
      <point x="226" y="611"/>
      <point x="292" y="611" type="curve" smooth="yes"/>
      <point x="361" y="611"/>
      <point x="401" y="568"/>
      <point x="406" y="517" type="curve"/>
      <point x="532" y="517" type="line"/>
      <point x="522" y="640"/>
      <point x="431" y="704"/>
      <point x="298" y="704" type="curve" smooth="yes"/>
      <point x="156" y="704"/>
      <point x="60" y="624"/>
      <point x="60" y="502" type="curve" smooth="yes"/>
      <point x="60" y="243"/>
      <point x="429" y="365"/>
      <point x="429" y="192" type="curve" smooth="yes"/>
      <point x="429" y="131"/>
      <point x="383" y="85"/>
      <point x="303" y="85" type="curve" smooth="yes"/>
      <point x="224" y="85"/>
      <point x="187" y="126"/>
      <point x="182" y="185" type="curve"/>
      <point x="60" y="185" type="line"/>
      <point x="60" y="62"/>
      <point x="164" y="-7"/>
      <point x="303" y="-7" type="curve" smooth="yes"/>
      <point x="458" y="-7"/>
      <point x="544" y="94"/>
      <point x="544" y="198" type="curve" smooth="yes"/>
      <point x="544" y="456"/>
      <point x="176" y="332"/>
    </contour>
  </outline>
</glyph>
<glyph name="T" format="1">
  <advance width="564"/>
  <unicode hex="0054"/>
  <outline>
    <contour>
      <point x="282" y="696" type="move" name="top"/>
    </contour>
    <contour>
      <point x="282" y="0" type="move" name="bottom"/>
    </contour>
    <contour>
      <point x="39" y="606" type="line"/>
      <point x="225" y="606" type="line"/>
      <point x="225" y="0" type="line"/>
      <point x="339" y="0" type="line"/>
      <point x="339" y="606" type="line"/>
      <point x="524" y="606" type="line"/>
      <point x="524" y="695" type="line"/>
      <point x="39" y="695" type="line"/>
    </contour>
  </outline>
</glyph>
<glyph name="U" format="1">
  <advance width="690"/>
  <unicode hex="0055"/>
  <outline>
    <contour>
      <point x="345" y="696" type="move" name="top"/>
    </contour>
    <contour>
      <point x="485" y="0" type="move" name="ogonek"/>
    </contour>
    <contour>
      <point x="74" y="254" type="line"/>
      <point x="74" y="77"/>
      <point x="198" y="-7"/>
      <point x="344" y="-7" type="curve" smooth="yes"/>
      <point x="489" y="-7"/>
      <point x="617" y="77"/>
      <point x="617" y="254" type="curve" smooth="yes"/>
      <point x="617" y="695" type="line"/>
      <point x="503" y="695" type="line"/>
      <point x="503" y="254" type="line" smooth="yes"/>
      <point x="503" y="146"/>
      <point x="442" y="95"/>
      <point x="345" y="95" type="curve" smooth="yes"/>
      <point x="249" y="95"/>
      <point x="188" y="146"/>
      <point x="188" y="254" type="curve" smooth="yes"/>
      <point x="188" y="695" type="line"/>
      <point x="74" y="695" type="line"/>
    </contour>
  </outline>
</glyph>
<glyph name="V" format="1">
  <advance width="694"/>
  <unicode hex="0056"/>
  <outline>
    <contour>
      <point x="281" y="0" type="line"/>
      <point x="413" y="0" type="line"/>
      <point x="674" y="695" type="line"/>
      <point x="553" y="695" type="line"/>
      <point x="346" y="118" type="line"/>
      <point x="141" y="695" type="line"/>
      <point x="19" y="695" type="line"/>
    </contour>
  </outline>
</glyph>
<glyph name="W" format="1">
  <advance width="999"/>
  <unicode hex="0057"/>
  <outline>
    <contour>
      <point x="216" y="-1" type="line"/>
      <point x="344" y="0" type="line"/>
      <point x="514" y="578" type="line"/>
      <point x="484" y="578" type="line"/>
      <point x="645" y="0" type="line"/>
      <point x="774" y="0" type="line"/>
      <point x="980" y="695" type="line"/>
      <point x="858" y="695" type="line"/>
      <point x="696" y="66" type="line"/>
      <point x="730" y="65" type="line"/>
      <point x="568" y="695" type="line"/>
      <point x="440" y="695" type="line"/>
      <point x="267" y="67" type="line"/>
      <point x="300" y="67" type="line"/>
      <point x="140" y="695" type="line"/>
      <point x="19" y="695" type="line"/>
    </contour>
  </outline>
</glyph>
<glyph name="X" format="1">
  <advance width="660"/>
  <unicode hex="0058"/>
  <outline>
    <contour>
      <point x="482" y="0" type="line"/>
      <point x="610" y="0" type="line"/>
      <point x="178" y="695" type="line"/>
      <point x="50" y="695" type="line"/>
    </contour>
    <contour>
      <point x="285" y="378" type="line"/>
      <point x="50" y="0" type="line"/>
      <point x="178" y="0" type="line"/>
      <point x="347" y="290" type="line"/>
    </contour>
    <contour>
      <point x="376" y="317" type="line"/>
      <point x="611" y="695" type="line"/>
      <point x="483" y="695" type="line"/>
      <point x="314" y="405" type="line"/>
    </contour>
  </outline>
</glyph>
<glyph name="Y" format="1">
  <advance width="605"/>
  <unicode hex="0059"/>
  <outline>
    <contour>
      <point x="303" y="696" type="move" name="top"/>
    </contour>
    <contour>
      <point x="246" y="252" type="line"/>
      <point x="246" y="0" type="line"/>
      <point x="360" y="0" type="line"/>
      <point x="360" y="252" type="line"/>
      <point x="590" y="695" type="line"/>
      <point x="462" y="695" type="line"/>
      <point x="276" y="300" type="line"/>
      <point x="329" y="300" type="line"/>
      <point x="142" y="695" type="line"/>
      <point x="15" y="695" type="line"/>
    </contour>
  </outline>
</glyph>
<glyph name="Z" format="1">
  <advance width="558"/>
  <unicode hex="005A"/>
  <outline>
    <contour>
      <point x="279" y="696" type="move" name="top"/>
    </contour>
    <contour>
      <point x="508" y="695" type="line"/>
      <point x="50" y="695" type="line"/>
      <point x="50" y="606" type="line"/>
      <point x="376" y="606" type="line"/>
      <point x="50" y="89" type="line"/>
      <point x="50" y="0" type="line"/>
      <point x="508" y="0" type="line"/>
      <point x="508" y="89" type="line"/>
      <point x="181" y="89" type="line"/>
      <point x="508" y="606" type="line"/>
    </contour>
  </outline>
</glyph>
<glyph name="bracketleft" format="1">
  <advance width="485"/>
  <unicode hex="005B"/>
  <outline>
    <contour>
      <point x="148" y="-176" type="line"/>
      <point x="356" y="-176" type="line"/>
      <point x="356" y="-81" type="line"/>
      <point x="255" y="-81" type="line"/>
      <point x="255" y="850" type="line"/>
      <point x="356" y="850" type="line"/>
      <point x="356" y="944" type="line"/>
      <point x="148" y="944" type="line"/>
    </contour>
  </outline>
</glyph>
<glyph name="backslash" format="1">
  <advance width="717"/>
  <unicode hex="005C"/>
  <outline>
    <contour>
      <point x="276" y="944" type="line"/>
      <point x="164" y="944" type="line"/>
      <point x="464" y="-175" type="line"/>
      <point x="576" y="-175" type="line"/>
    </contour>
  </outline>
</glyph>
<glyph name="bracketright" format="1">
  <advance width="484"/>
  <unicode hex="005D"/>
  <outline>
    <contour>
      <point x="336" y="944" type="line"/>
      <point x="128" y="944" type="line"/>
      <point x="128" y="850" type="line"/>
      <point x="230" y="850" type="line"/>
      <point x="230" y="-81" type="line"/>
      <point x="128" y="-81" type="line"/>
      <point x="128" y="-176" type="line"/>
      <point x="336" y="-176" type="line"/>
    </contour>
  </outline>
</glyph>
<glyph name="asciicircum" format="1">
  <advance width="654"/>
  <unicode hex="005E"/>
  <outline>
    <contour>
      <point x="500" y="168" type="line"/>
      <point x="619" y="168" type="line"/>
      <point x="381" y="696" type="line"/>
      <point x="273" y="696" type="line"/>
      <point x="36" y="168" type="line"/>
      <point x="154" y="168" type="line"/>
      <point x="328" y="558" type="line"/>
    </contour>
  </outline>
</glyph>
<glyph name="underscore" format="1">
  <advance width="798"/>
  <unicode hex="005F"/>
  <outline>
    <contour>
      <point x="126" y="-146" type="line"/>
      <point x="684" y="-146" type="line"/>
      <point x="684" y="-40" type="line"/>
      <point x="126" y="-40" type="line"/>
    </contour>
  </outline>
</glyph>
<glyph name="grave" format="1">
  <advance width="254"/>
  <unicode hex="0060"/>
  <outline>
    <contour>
      <point x="128" y="551" type="move" name="_top"/>
    </contour>
    <contour>
      <point x="10" y="699" type="line"/>
      <point x="231" y="590" type="line"/>
      <point x="231" y="674" type="line"/>
      <point x="10" y="796" type="line"/>
    </contour>
  </outline>
</glyph>
<glyph name="c" format="1">
  <advance width="600"/>
  <unicode hex="0063"/>
  <outline>
    <contour>
      <point x="300" y="551" type="move" name="top"/>
    </contour>
    <contour>
      <point x="300" y="0" type="move" name="bottom"/>
    </contour>
    <contour>
      <point x="37" y="276" type="curve" smooth="yes"/>
      <point x="37" y="103"/>
      <point x="149" y="-9"/>
      <point x="307" y="-9" type="curve" smooth="yes"/>
      <point x="442" y="-9"/>
      <point x="530" y="66"/>
      <point x="561" y="174" type="curve"/>
      <point x="438" y="174" type="line"/>
      <point x="417" y="117"/>
      <point x="375" y="87"/>
      <point x="307" y="87" type="curve" smooth="yes"/>
      <point x="215" y="87"/>
      <point x="154" y="155"/>
      <point x="154" y="276" type="curve" smooth="yes"/>
      <point x="154" y="396"/>
      <point x="215" y="464"/>
      <point x="307" y="464" type="curve" smooth="yes"/>
      <point x="375" y="464"/>
      <point x="419" y="430"/>
      <point x="438" y="377" type="curve"/>
      <point x="561" y="377" type="line"/>
      <point x="530" y="493"/>
      <point x="442" y="560"/>
      <point x="307" y="560" type="curve" smooth="yes"/>
      <point x="149" y="560"/>
      <point x="37" y="448"/>
    </contour>
  </outline>
</glyph>
<glyph name="e" format="1">
  <advance width="617"/>
  <unicode hex="0065"/>
  <outline>
    <contour>
      <point x="309" y="551" type="move" name="top"/>
    </contour>
    <contour>
      <point x="478" y="66" type="move" name="ogonek"/>
    </contour>
    <contour>
      <point x="309" y="0" type="move" name="bottom"/>
    </contour>
    <contour>
      <point x="135" y="237" type="line"/>
      <point x="576" y="237" type="line"/>
      <point x="579" y="256"/>
      <point x="580" y="274"/>
      <point x="580" y="291" type="curve" smooth="yes"/>
      <point x="580" y="451"/>
      <point x="469" y="560"/>
      <point x="312" y="560" type="curve" smooth="yes"/>
      <point x="149" y="560"/>
      <point x="37" y="449"/>
      <point x="37" y="276" type="curve" smooth="yes"/>
      <point x="37" y="103"/>
      <point x="149" y="-9"/>
      <point x="307" y="-9" type="curve" smooth="yes"/>
      <point x="442" y="-9"/>
      <point x="530" y="68"/>
      <point x="561" y="164" type="curve"/>
      <point x="438" y="164" type="line"/>
      <point x="417" y="121"/>
      <point x="377" y="87"/>
      <point x="307" y="87" type="curve" smooth="yes"/>
      <point x="218" y="87"/>
      <point x="154" y="150"/>
      <point x="154" y="251" type="curve" smooth="yes"/>
      <point x="154" y="295" type="line" smooth="yes"/>
      <point x="154" y="400"/>
      <point x="221" y="464"/>
      <point x="307" y="464" type="curve" smooth="yes"/>
      <point x="392" y="464"/>
      <point x="459" y="407"/>
      <point x="461" y="315" type="curve"/>
      <point x="136" y="315" type="line"/>
    </contour>
  </outline>
</glyph>
<glyph name="f" format="1">
  <advance width="332"/>
  <unicode hex="0066"/>
  <outline>
    <contour>
      <point x="89" y="0" type="line"/>
      <point x="204" y="0" type="line"/>
      <point x="204" y="590" type="line" smooth="yes"/>
      <point x="204" y="653"/>
      <point x="228" y="677"/>
      <point x="298" y="677" type="curve"/>
      <point x="298" y="772" type="line"/>
      <point x="154" y="772"/>
      <point x="89" y="717"/>
      <point x="89" y="590" type="curve" smooth="yes"/>
    </contour>
    <contour>
      <point x="24" y="458" type="line"/>
      <point x="306" y="458" type="line"/>
      <point x="306" y="551" type="line"/>
      <point x="24" y="551" type="line"/>
    </contour>
  </outline>
</glyph>
<glyph name="g" format="1">
  <advance width="678"/>
  <unicode hex="0067"/>
  <outline>
    <contour>
      <point x="339" y="551" type="move" name="top"/>
    </contour>
    <contour>
      <point x="488" y="276" type="curve" smooth="yes"/>
      <point x="488" y="157"/>
      <point x="407" y="90"/>
      <point x="321" y="90" type="curve" smooth="yes"/>
      <point x="236" y="90"/>
      <point x="154" y="159"/>
      <point x="154" y="278" type="curve" smooth="yes"/>
      <point x="154" y="397"/>
      <point x="236" y="461"/>
      <point x="321" y="461" type="curve" smooth="yes"/>
      <point x="407" y="461"/>
      <point x="488" y="394"/>
    </contour>
    <contour>
      <point x="37" y="278" type="curve" smooth="yes"/>
      <point x="37" y="108"/>
      <point x="152" y="-9"/>
      <point x="297" y="-9" type="curve" smooth="yes"/>
      <point x="387" y="-9"/>
      <point x="453" y="39"/>
      <point x="488" y="103" type="curve"/>
      <point x="488" y="-9" type="line" smooth="yes"/>
      <point x="488" y="-119"/>
      <point x="422" y="-173"/>
      <point x="334" y="-173" type="curve" smooth="yes"/>
      <point x="255" y="-173"/>
      <point x="194" y="-134"/>
      <point x="177" y="-77" type="curve"/>
      <point x="64" y="-77" type="line"/>
      <point x="78" y="-199"/>
      <point x="187" y="-272"/>
      <point x="334" y="-272" type="curve" smooth="yes"/>
      <point x="506" y="-272"/>
      <point x="603" y="-159"/>
      <point x="603" y="-9" type="curve" smooth="yes"/>
      <point x="603" y="551" type="line"/>
      <point x="488" y="551" type="line"/>
      <point x="488" y="453" type="line"/>
      <point x="454" y="514"/>
      <point x="387" y="560"/>
      <point x="297" y="560" type="curve" smooth="yes"/>
      <point x="152" y="560"/>
      <point x="37" y="448"/>
    </contour>
  </outline>
</glyph>
<glyph name="h" format="1">
  <advance width="649"/>
  <unicode hex="0068"/>
  <outline>
    <contour>
      <point x="75" y="0" type="line"/>
      <point x="189" y="0" type="line"/>
      <point x="189" y="740" type="line"/>
      <point x="75" y="740" type="line"/>
    </contour>
    <contour>
      <point x="466" y="0" type="line"/>
      <point x="579" y="0" type="line"/>
      <point x="579" y="325" type="line" smooth="yes"/>
      <point x="579" y="479"/>
      <point x="483" y="560"/>
      <point x="365" y="560" type="curve" smooth="yes"/>
      <point x="266" y="560"/>
      <point x="187" y="504"/>
      <point x="165" y="400" type="curve"/>
      <point x="189" y="308" type="line"/>
      <point x="189" y="409"/>
      <point x="244" y="461"/>
      <point x="328" y="461" type="curve" smooth="yes"/>
      <point x="411" y="461"/>
      <point x="466" y="409"/>
      <point x="466" y="308" type="curve" smooth="yes"/>
    </contour>
  </outline>
</glyph>
<glyph name="i" format="1">
  <advance width="264"/>
  <unicode hex="0069"/>
  <outline>
    <contour>
      <point x="189" y="1" type="move" name="ogonek"/>
    </contour>
    <contour>
      <point x="75" y="0" type="line"/>
      <point x="189" y="0" type="line"/>
      <point x="189" y="551" type="line"/>
      <point x="75" y="551" type="line"/>
    </contour>
    <contour>
      <point x="133" y="624" type="curve" smooth="yes"/>
      <point x="173" y="624"/>
      <point x="205" y="656"/>
      <point x="205" y="697" type="curve" smooth="yes"/>
      <point x="205" y="738"/>
      <point x="173" y="770"/>
      <point x="133" y="770" type="curve" smooth="yes"/>
      <point x="92" y="770"/>
      <point x="60" y="738"/>
      <point x="60" y="697" type="curve" smooth="yes"/>
      <point x="60" y="656"/>
      <point x="92" y="624"/>
    </contour>
  </outline>
</glyph>
<glyph name="j" format="1">
  <advance width="264"/>
  <unicode hex="006A"/>
  <outline>
    <contour>
      <point x="133" y="624" type="curve" smooth="yes"/>
      <point x="173" y="624"/>
      <point x="205" y="656"/>
      <point x="205" y="697" type="curve" smooth="yes"/>
      <point x="205" y="738"/>
      <point x="173" y="770"/>
      <point x="133" y="770" type="curve" smooth="yes"/>
      <point x="92" y="770"/>
      <point x="60" y="738"/>
      <point x="60" y="697" type="curve" smooth="yes"/>
      <point x="60" y="656"/>
      <point x="92" y="624"/>
    </contour>
    <contour>
      <point x="75" y="551" type="line"/>
      <point x="75" y="-108" type="line" smooth="yes"/>
      <point x="75" y="-149"/>
      <point x="59" y="-166"/>
      <point x="11" y="-166" type="curve" smooth="yes"/>
      <point x="-28" y="-166" type="line"/>
      <point x="-28" y="-262" type="line"/>
      <point x="31" y="-262" type="line" smooth="yes"/>
      <point x="129" y="-262"/>
      <point x="189" y="-220"/>
      <point x="189" y="-108" type="curve" smooth="yes"/>
      <point x="189" y="551" type="line"/>
    </contour>
  </outline>
</glyph>
<glyph name="k" format="1">
  <advance width="554"/>
  <unicode hex="006B"/>
  <outline>
    <contour>
      <point x="277" y="0" type="move" name="bottom"/>
    </contour>
    <contour>
      <point x="75" y="0" type="line"/>
      <point x="189" y="0" type="line"/>
      <point x="189" y="740" type="line"/>
      <point x="75" y="740" type="line"/>
    </contour>
    <contour>
      <point x="158" y="273" type="line"/>
      <point x="393" y="0" type="line"/>
      <point x="547" y="0" type="line"/>
      <point x="281" y="288" type="line"/>
      <point x="274" y="255" type="line"/>
      <point x="547" y="551" type="line"/>
      <point x="389" y="551" type="line"/>
    </contour>
  </outline>
</glyph>
<glyph name="l" format="1">
  <advance width="264"/>
  <unicode hex="006C"/>
  <outline>
    <contour>
      <point x="132" y="10" type="move" name="commaaccent"/>
    </contour>
    <contour>
      <point x="132" y="740" type="move" name="top"/>
    </contour>
    <contour>
      <point x="244" y="551" type="move" name="topright"/>
    </contour>
    <contour>
      <point x="132" y="0" type="move" name="bottom"/>
    </contour>
    <contour>
      <point x="75" y="0" type="line"/>
      <point x="189" y="0" type="line"/>
      <point x="189" y="740" type="line"/>
      <point x="75" y="740" type="line"/>
    </contour>
  </outline>
</glyph>
<glyph name="m" format="1">
  <advance width="1039"/>
  <unicode hex="006D"/>
  <outline>
    <contour>
      <point x="75" y="0" type="line"/>
      <point x="189" y="0" type="line"/>
      <point x="189" y="551" type="line"/>
      <point x="75" y="551" type="line"/>
    </contour>
    <contour>
      <point x="466" y="0" type="line"/>
      <point x="579" y="0" type="line"/>
      <point x="579" y="325" type="line" smooth="yes"/>
      <point x="579" y="479"/>
      <point x="483" y="560"/>
      <point x="365" y="560" type="curve" smooth="yes"/>
      <point x="266" y="560"/>
      <point x="187" y="504"/>
      <point x="165" y="400" type="curve"/>
      <point x="189" y="308" type="line"/>
      <point x="189" y="409"/>
      <point x="244" y="461"/>
      <point x="328" y="461" type="curve" smooth="yes"/>
      <point x="411" y="461"/>
      <point x="466" y="409"/>
      <point x="466" y="308" type="curve" smooth="yes"/>
    </contour>
    <contour>
      <point x="855" y="0" type="line"/>
      <point x="969" y="0" type="line"/>
      <point x="969" y="325" type="line" smooth="yes"/>
      <point x="969" y="479"/>
      <point x="874" y="560"/>
      <point x="752" y="560" type="curve" smooth="yes"/>
      <point x="643" y="560"/>
      <point x="561" y="491"/>
      <point x="534" y="389" type="curve"/>
      <point x="579" y="308" type="line"/>
      <point x="579" y="409"/>
      <point x="634" y="461"/>
      <point x="717" y="461" type="curve" smooth="yes"/>
      <point x="801" y="461"/>
      <point x="855" y="409"/>
      <point x="855" y="308" type="curve" smooth="yes"/>
    </contour>
  </outline>
</glyph>
<glyph name="n" format="1">
  <advance width="649"/>
  <unicode hex="006E"/>
  <outline>
    <contour>
      <point x="335" y="551" type="move" name="top"/>
    </contour>
    <contour>
      <point x="325" y="0" type="move" name="bottom"/>
    </contour>
    <contour>
      <point x="75" y="0" type="line"/>
      <point x="189" y="0" type="line"/>
      <point x="189" y="551" type="line"/>
      <point x="75" y="551" type="line"/>
    </contour>
    <contour>
      <point x="466" y="0" type="line"/>
      <point x="579" y="0" type="line"/>
      <point x="579" y="325" type="line" smooth="yes"/>
      <point x="579" y="479"/>
      <point x="483" y="560"/>
      <point x="365" y="560" type="curve" smooth="yes"/>
      <point x="266" y="560"/>
      <point x="187" y="504"/>
      <point x="165" y="400" type="curve"/>
      <point x="189" y="308" type="line"/>
      <point x="189" y="409"/>
      <point x="244" y="461"/>
      <point x="328" y="461" type="curve" smooth="yes"/>
      <point x="411" y="461"/>
      <point x="466" y="409"/>
      <point x="466" y="308" type="curve" smooth="yes"/>
    </contour>
  </outline>
</glyph>
<glyph name="o" format="1">
  <advance width="638"/>
  <unicode hex="006F"/>
  <outline>
    <contour>
      <point x="319" y="551" type="move" name="top"/>
    </contour>
    <contour>
      <point x="38" y="276" type="curve" smooth="yes"/>
      <point x="38" y="103"/>
      <point x="157" y="-9"/>
      <point x="314" y="-9" type="curve" smooth="yes"/>
      <point x="472" y="-9"/>
      <point x="600" y="103"/>
      <point x="600" y="276" type="curve" smooth="yes"/>
      <point x="600" y="449"/>
      <point x="476" y="560"/>
      <point x="319" y="560" type="curve" smooth="yes"/>
      <point x="162" y="560"/>
      <point x="38" y="449"/>
    </contour>
    <contour>
      <point x="483" y="276" type="curve" smooth="yes"/>
      <point x="483" y="151"/>
      <point x="399" y="87"/>
      <point x="314" y="87" type="curve" smooth="yes"/>
      <point x="228" y="87"/>
      <point x="154" y="151"/>
      <point x="154" y="276" type="curve" smooth="yes"/>
      <point x="154" y="401"/>
      <point x="231" y="464"/>
      <point x="317" y="464" type="curve" smooth="yes"/>
      <point x="402" y="464"/>
      <point x="483" y="401"/>
    </contour>
  </outline>
</glyph>
<glyph name="p" format="1">
  <advance width="678"/>
  <unicode hex="0070"/>
  <outline>
    <contour>
      <point x="189" y="453" type="curve"/>
      <point x="189" y="551" type="line"/>
      <point x="75" y="551" type="line"/>
      <point x="75" y="-262" type="line"/>
      <point x="189" y="-262" type="line"/>
      <point x="189" y="103" type="line"/>
      <point x="225" y="39"/>
      <point x="290" y="-9"/>
      <point x="381" y="-9" type="curve" smooth="yes"/>
      <point x="526" y="-9"/>
      <point x="640" y="108"/>
      <point x="640" y="278" type="curve" smooth="yes"/>
      <point x="640" y="448"/>
      <point x="526" y="560"/>
      <point x="381" y="560" type="curve" smooth="yes"/>
      <point x="290" y="560"/>
      <point x="224" y="514"/>
    </contour>
    <contour>
      <point x="524" y="278" type="curve" smooth="yes"/>
      <point x="524" y="159"/>
      <point x="442" y="90"/>
      <point x="356" y="90" type="curve" smooth="yes"/>
      <point x="271" y="90"/>
      <point x="189" y="157"/>
      <point x="189" y="276" type="curve" smooth="yes"/>
      <point x="189" y="394"/>
      <point x="271" y="461"/>
      <point x="356" y="461" type="curve" smooth="yes"/>
      <point x="442" y="461"/>
      <point x="524" y="397"/>
    </contour>
  </outline>
</glyph>
<glyph name="q" format="1">
  <advance width="678"/>
  <unicode hex="0071"/>
  <outline>
    <contour>
      <point x="37" y="278" type="curve" smooth="yes"/>
      <point x="37" y="108"/>
      <point x="152" y="-9"/>
      <point x="297" y="-9" type="curve" smooth="yes"/>
      <point x="387" y="-9"/>
      <point x="453" y="39"/>
      <point x="488" y="103" type="curve"/>
      <point x="488" y="-262" type="line"/>
      <point x="603" y="-262" type="line"/>
      <point x="603" y="551" type="line"/>
      <point x="488" y="551" type="line"/>
      <point x="488" y="453" type="line"/>
      <point x="454" y="514"/>
      <point x="387" y="560"/>
      <point x="297" y="560" type="curve" smooth="yes"/>
      <point x="152" y="560"/>
      <point x="37" y="448"/>
    </contour>
    <contour>
      <point x="488" y="276" type="curve" smooth="yes"/>
      <point x="488" y="157"/>
      <point x="407" y="90"/>
      <point x="321" y="90" type="curve" smooth="yes"/>
      <point x="236" y="90"/>
      <point x="154" y="159"/>
      <point x="154" y="278" type="curve" smooth="yes"/>
      <point x="154" y="397"/>
      <point x="236" y="461"/>
      <point x="321" y="461" type="curve" smooth="yes"/>
      <point x="407" y="461"/>
      <point x="488" y="394"/>
    </contour>
  </outline>
</glyph>
<glyph name="r" format="1">
  <advance width="384"/>
  <unicode hex="0072"/>
  <outline>
    <contour>
      <point x="241" y="551" type="move" name="top"/>
    </contour>
    <contour>
      <point x="132" y="0" type="move" name="bottom"/>
    </contour>
    <contour>
      <point x="189" y="290" type="line"/>
      <point x="189" y="407"/>
      <point x="241" y="442"/>
      <point x="325" y="442" type="curve" smooth="yes"/>
      <point x="354" y="442" type="line"/>
      <point x="354" y="560" type="line"/>
      <point x="220" y="560"/>
      <point x="155" y="439"/>
      <point x="155" y="290" type="curve"/>
    </contour>
    <contour>
      <point x="75" y="0" type="line"/>
      <point x="189" y="0" type="line"/>
      <point x="189" y="551" type="line"/>
      <point x="75" y="551" type="line"/>
    </contour>
  </outline>
</glyph>
<glyph name="s" format="1">
  <advance width="534"/>
  <unicode hex="0073"/>
  <outline>
    <contour>
      <point x="267" y="551" type="move" name="top"/>
    </contour>
    <contour>
      <point x="267" y="0" type="move" name="bottom"/>
    </contour>
    <contour>
      <point x="50" y="393" type="curve" smooth="yes"/>
      <point x="50" y="194"/>
      <point x="372" y="283"/>
      <point x="372" y="155" type="curve" smooth="yes"/>
      <point x="372" y="112"/>
      <point x="335" y="81"/>
      <point x="269" y="81" type="curve" smooth="yes"/>
      <point x="209" y="81"/>
      <point x="171" y="114"/>
      <point x="167" y="168" type="curve"/>
      <point x="49" y="168" type="line"/>
      <point x="57" y="53"/>
      <point x="143" y="-9"/>
      <point x="269" y="-9" type="curve" smooth="yes"/>
      <point x="394" y="-9"/>
      <point x="484" y="57"/>
      <point x="484" y="153" type="curve" smooth="yes"/>
      <point x="484" y="362"/>
      <point x="162" y="269"/>
      <point x="162" y="397" type="curve" smooth="yes"/>
      <point x="162" y="438"/>
      <point x="197" y="470"/>
      <point x="260" y="470" type="curve" smooth="yes"/>
      <point x="322" y="470"/>
      <point x="356" y="437"/>
      <point x="360" y="383" type="curve"/>
      <point x="477" y="383" type="line"/>
      <point x="471" y="493"/>
      <point x="390" y="560"/>
      <point x="268" y="560" type="curve" smooth="yes"/>
      <point x="130" y="560"/>
      <point x="50" y="483"/>
    </contour>
  </outline>
</glyph>
<glyph name="t" format="1">
  <advance width="372"/>
  <unicode hex="0074"/>
  <outline>
    <contour>
      <point x="203" y="828" type="move" name="topright"/>
    </contour>
    <contour>
      <point x="187" y="0" type="move" name="bottom"/>
    </contour>
    <contour>
      <point x="93" y="153" type="line"/>
      <point x="93" y="41"/>
      <point x="154" y="0"/>
      <point x="252" y="0" type="curve" smooth="yes"/>
      <point x="342" y="0" type="line"/>
      <point x="342" y="95" type="line"/>
      <point x="272" y="95" type="line" smooth="yes"/>
      <point x="224" y="95"/>
      <point x="208" y="112"/>
      <point x="208" y="153" type="curve" smooth="yes"/>
      <point x="208" y="688" type="line"/>
      <point x="93" y="688" type="line"/>
    </contour>
    <contour>
      <point x="342" y="458" type="line"/>
      <point x="342" y="551" type="line"/>
      <point x="28" y="551" type="line"/>
      <point x="28" y="458" type="line"/>
    </contour>
  </outline>
</glyph>
<glyph name="u" format="1">
  <advance width="649"/>
  <unicode hex="0075"/>
  <outline>
    <contour>
      <point x="325" y="551" type="move" name="top"/>
    </contour>
    <contour>
      <point x="574" y="-1" type="move" name="ogonek"/>
    </contour>
    <contour>
      <point x="574" y="551" type="line"/>
      <point x="460" y="551" type="line"/>
      <point x="460" y="0" type="line"/>
      <point x="574" y="0" type="line"/>
    </contour>
    <contour>
      <point x="183" y="551" type="line"/>
      <point x="70" y="551" type="line"/>
      <point x="70" y="226" type="line" smooth="yes"/>
      <point x="70" y="72"/>
      <point x="166" y="-8"/>
      <point x="284" y="-8" type="curve" smooth="yes"/>
      <point x="383" y="-8"/>
      <point x="462" y="47"/>
      <point x="484" y="152" type="curve"/>
      <point x="460" y="243" type="line"/>
      <point x="460" y="142"/>
      <point x="405" y="90"/>
      <point x="321" y="90" type="curve" smooth="yes"/>
      <point x="238" y="90"/>
      <point x="183" y="142"/>
      <point x="183" y="243" type="curve" smooth="yes"/>
    </contour>
  </outline>
</glyph>
<glyph name="v" format="1">
  <advance width="576"/>
  <unicode hex="0076"/>
  <outline>
    <contour>
      <point x="10" y="551" type="line"/>
      <point x="219" y="0" type="line"/>
      <point x="357" y="0" type="line"/>
      <point x="567" y="551" type="line"/>
      <point x="444" y="551" type="line"/>
      <point x="288" y="102" type="line"/>
      <point x="132" y="551" type="line"/>
    </contour>
  </outline>
</glyph>
<glyph name="w" format="1">
  <advance width="825"/>
  <unicode hex="0077"/>
  <outline>
    <contour>
      <point x="182" y="0" type="line"/>
      <point x="302" y="0" type="line"/>
      <point x="436" y="489" type="line"/>
      <point x="391" y="489" type="line"/>
      <point x="524" y="0" type="line"/>
      <point x="644" y="0" type="line"/>
      <point x="815" y="551" type="line"/>
      <point x="703" y="551" type="line"/>
      <point x="570" y="36" type="line"/>
      <point x="608" y="36" type="line"/>
      <point x="477" y="551" type="line"/>
      <point x="358" y="551" type="line"/>
      <point x="222" y="36" type="line"/>
      <point x="260" y="36" type="line"/>
      <point x="126" y="551" type="line"/>
      <point x="10" y="551" type="line"/>
    </contour>
  </outline>
</glyph>
<glyph name="x" format="1">
  <advance width="499"/>
  <unicode hex="0078"/>
  <outline>
    <contour>
      <point x="360" y="0" type="line"/>
      <point x="489" y="0" type="line"/>
      <point x="139" y="551" type="line"/>
      <point x="10" y="551" type="line"/>
    </contour>
    <contour>
      <point x="215" y="313" type="line"/>
      <point x="10" y="0" type="line"/>
      <point x="129" y="0" type="line"/>
      <point x="264" y="225" type="line"/>
    </contour>
    <contour>
      <point x="285" y="239" type="line"/>
      <point x="489" y="551" type="line"/>
      <point x="370" y="551" type="line"/>
      <point x="235" y="327" type="line"/>
    </contour>
  </outline>
</glyph>
<glyph name="y" format="1">
  <advance width="582"/>
  <unicode hex="0079"/>
  <outline>
    <contour>
      <point x="291" y="551" type="move" name="top"/>
    </contour>
    <contour>
      <point x="227" y="9" type="line"/>
      <point x="115" y="-259" type="line"/>
      <point x="233" y="-259" type="line"/>
      <point x="571" y="551" type="line"/>
      <point x="453" y="551" type="line"/>
      <point x="292" y="131" type="line"/>
      <point x="137" y="551" type="line"/>
      <point x="10" y="551" type="line"/>
    </contour>
  </outline>
</glyph>
<glyph name="z" format="1">
  <advance width="471"/>
  <unicode hex="007A"/>
  <outline>
    <contour>
      <point x="236" y="551" type="move" name="top"/>
    </contour>
    <contour>
      <point x="426" y="551" type="line"/>
      <point x="44" y="551" type="line"/>
      <point x="44" y="458" type="line"/>
      <point x="295" y="458" type="line"/>
      <point x="44" y="93" type="line"/>
      <point x="44" y="0" type="line"/>
      <point x="426" y="0" type="line"/>
      <point x="426" y="93" type="line"/>
      <point x="176" y="93" type="line"/>
      <point x="426" y="458" type="line"/>
    </contour>
  </outline>
</glyph>
<glyph name="braceleft" format="1">
  <advance width="543"/>
  <unicode hex="007B"/>
  <outline>
    <contour>
      <point x="231" y="373" type="line"/>
      <point x="304" y="388"/>
      <point x="335" y="437"/>
      <point x="335" y="503" type="curve" smooth="yes"/>
      <point x="335" y="568"/>
      <point x="319" y="614"/>
      <point x="319" y="695" type="curve" smooth="yes"/>
      <point x="319" y="831"/>
      <point x="372" y="916"/>
      <point x="450" y="945" type="curve"/>
      <point x="450" y="961" type="line"/>
      <point x="335" y="961" type="line"/>
      <point x="297" y="944"/>
      <point x="208" y="897"/>
      <point x="208" y="712" type="curve" smooth="yes"/>
      <point x="208" y="640"/>
      <point x="225" y="586"/>
      <point x="225" y="517" type="curve" smooth="yes"/>
      <point x="225" y="472"/>
      <point x="210" y="408"/>
      <point x="126" y="395" type="curve"/>
      <point x="126" y="349" type="line"/>
      <point x="210" y="335"/>
      <point x="225" y="272"/>
      <point x="225" y="227" type="curve" smooth="yes"/>
      <point x="225" y="158"/>
      <point x="208" y="104"/>
      <point x="208" y="32" type="curve" smooth="yes"/>
      <point x="208" y="-153"/>
      <point x="297" y="-200"/>
      <point x="335" y="-217" type="curve"/>
      <point x="450" y="-217" type="line"/>
      <point x="450" y="-201" type="line"/>
      <point x="372" y="-172"/>
      <point x="319" y="-87"/>
      <point x="319" y="49" type="curve" smooth="yes"/>
      <point x="319" y="130"/>
      <point x="335" y="176"/>
      <point x="335" y="241" type="curve" smooth="yes"/>
      <point x="335" y="307"/>
      <point x="306" y="356"/>
      <point x="231" y="371" type="curve"/>
    </contour>
  </outline>
</glyph>
<glyph name="bar" format="1">
  <advance width="324"/>
  <unicode hex="007C"/>
  <outline>
    <contour>
      <point x="105" y="801" type="line"/>
      <point x="105" y="-113" type="line"/>
      <point x="219" y="-113" type="line"/>
      <point x="219" y="801" type="line"/>
    </contour>
  </outline>
</glyph>
<glyph name="braceright" format="1">
  <advance width="536"/>
  <unicode hex="007D"/>
  <outline>
    <contour>
      <point x="313" y="371" type="line"/>
      <point x="238" y="356"/>
      <point x="208" y="307"/>
      <point x="208" y="241" type="curve" smooth="yes"/>
      <point x="208" y="176"/>
      <point x="224" y="130"/>
      <point x="224" y="49" type="curve" smooth="yes"/>
      <point x="224" y="-87"/>
      <point x="172" y="-172"/>
      <point x="94" y="-201" type="curve"/>
      <point x="94" y="-217" type="line"/>
      <point x="209" y="-217" type="line"/>
      <point x="247" y="-200"/>
      <point x="335" y="-153"/>
      <point x="335" y="32" type="curve" smooth="yes"/>
      <point x="335" y="104"/>
      <point x="318" y="158"/>
      <point x="318" y="227" type="curve" smooth="yes"/>
      <point x="318" y="272"/>
      <point x="333" y="335"/>
      <point x="418" y="349" type="curve"/>
      <point x="418" y="395" type="line"/>
      <point x="333" y="408"/>
      <point x="318" y="472"/>
      <point x="318" y="517" type="curve" smooth="yes"/>
      <point x="318" y="586"/>
      <point x="335" y="640"/>
      <point x="335" y="712" type="curve" smooth="yes"/>
      <point x="335" y="897"/>
      <point x="247" y="944"/>
      <point x="209" y="961" type="curve"/>
      <point x="94" y="961" type="line"/>
      <point x="94" y="945" type="line"/>
      <point x="172" y="916"/>
      <point x="224" y="831"/>
      <point x="224" y="695" type="curve" smooth="yes"/>
      <point x="224" y="614"/>
      <point x="208" y="568"/>
      <point x="208" y="503" type="curve" smooth="yes"/>
      <point x="208" y="437"/>
      <point x="240" y="388"/>
      <point x="313" y="373" type="curve"/>
    </contour>
  </outline>
</glyph>
<glyph name="asciitilde" format="1">
  <advance width="553"/>
  <unicode hex="007E"/>
  <outline>
    <contour>
      <point x="36" y="238" type="curve"/>
      <point x="118" y="238" type="line"/>
      <point x="124" y="279"/>
      <point x="154" y="301"/>
      <point x="187" y="301" type="curve"/>
      <point x="246" y="301"/>
      <point x="278" y="236"/>
      <point x="357" y="236" type="curve" smooth="yes"/>
      <point x="437" y="236"/>
      <point x="497" y="285"/>
      <point x="517" y="401" type="curve"/>
      <point x="434" y="401" type="line"/>
      <point x="428" y="359"/>
      <point x="398" y="338"/>
      <point x="366" y="338" type="curve" smooth="yes"/>
      <point x="308" y="338"/>
      <point x="274" y="403"/>
      <point x="195" y="403" type="curve" smooth="yes"/>
      <point x="115" y="403"/>
      <point x="56" y="354"/>
    </contour>
  </outline>
</glyph>
<glyph name="cent" format="1">
  <advance width="690"/>
  <unicode hex="00A2"/>
  <outline>
    <contour>
      <point x="329" y="427" type="curve" smooth="yes"/>
      <point x="404" y="427"/>
      <point x="444" y="394"/>
      <point x="459" y="345" type="curve"/>
      <point x="565" y="345" type="line"/>
      <point x="554" y="446"/>
      <point x="462" y="521"/>
      <point x="329" y="521" type="curve" smooth="yes"/>
      <point x="154" y="521"/>
      <point x="66" y="404"/>
      <point x="66" y="259" type="curve" smooth="yes"/>
      <point x="66" y="115"/>
      <point x="154" y="-2"/>
      <point x="329" y="-2" type="curve" smooth="yes"/>
      <point x="462" y="-2"/>
      <point x="554" y="73"/>
      <point x="565" y="174" type="curve"/>
      <point x="459" y="174" type="line"/>
      <point x="444" y="125"/>
      <point x="404" y="92"/>
      <point x="329" y="92" type="curve" smooth="yes"/>
      <point x="235" y="92"/>
      <point x="174" y="154"/>
      <point x="174" y="259" type="curve"/>
      <point x="174" y="364"/>
      <point x="235" y="427"/>
    </contour>
    <contour>
      <point x="296" y="454" type="line"/>
      <point x="361" y="454" type="line"/>
      <point x="361" y="607" type="line"/>
      <point x="296" y="607" type="line"/>
    </contour>
    <contour>
      <point x="296" y="-88" type="line"/>
      <point x="361" y="-88" type="line"/>
      <point x="361" y="65" type="line"/>
      <point x="296" y="65" type="line"/>
    </contour>
  </outline>
</glyph>
<glyph name="sterling" format="1">
  <advance width="646"/>
  <unicode hex="00A3"/>
  <outline>
    <contour>
      <point x="106" y="503" type="curve" smooth="yes"/>
      <point x="106" y="387"/>
      <point x="157" y="342"/>
      <point x="157" y="260" type="curve" smooth="yes"/>
      <point x="157" y="166"/>
      <point x="126" y="115"/>
      <point x="75" y="60" type="curve"/>
      <point x="95" y="-2" type="line"/>
      <point x="558" y="-2" type="line"/>
      <point x="558" y="91" type="line"/>
      <point x="198" y="91" type="line"/>
      <point x="243" y="139"/>
      <point x="265" y="196"/>
      <point x="265" y="259" type="curve"/>
      <point x="265" y="335"/>
      <point x="214" y="405"/>
      <point x="214" y="497" type="curve" smooth="yes"/>
      <point x="214" y="589"/>
      <point x="266" y="625"/>
      <point x="333" y="625" type="curve" smooth="yes"/>
      <point x="416" y="625"/>
      <point x="448" y="575"/>
      <point x="448" y="508" type="curve"/>
      <point x="552" y="508" type="line"/>
      <point x="550" y="623"/>
      <point x="484" y="721"/>
      <point x="333" y="721" type="curve" smooth="yes"/>
      <point x="200" y="721"/>
      <point x="106" y="639"/>
    </contour>
    <contour>
      <point x="42" y="381" type="line"/>
      <point x="42" y="302" type="line"/>
      <point x="431" y="302" type="line"/>
      <point x="431" y="381" type="line"/>
    </contour>
  </outline>
</glyph>
<glyph name="currency" format="1">
  <advance width="548"/>
  <unicode hex="00A4"/>
  <outline>
    <contour>
      <point x="89" y="377" type="curve" smooth="yes"/>
      <point x="89" y="269"/>
      <point x="164" y="199"/>
      <point x="272" y="199" type="curve" smooth="yes"/>
      <point x="379" y="199"/>
      <point x="460" y="269"/>
      <point x="460" y="377" type="curve" smooth="yes"/>
      <point x="460" y="486"/>
      <point x="381" y="555"/>
      <point x="274" y="555" type="curve" smooth="yes"/>
      <point x="168" y="555"/>
      <point x="89" y="486"/>
    </contour>
    <contour>
      <point x="369" y="377" type="curve" smooth="yes"/>
      <point x="369" y="303"/>
      <point x="321" y="266"/>
      <point x="272" y="266" type="curve" smooth="yes"/>
      <point x="222" y="266"/>
      <point x="179" y="303"/>
      <point x="179" y="377" type="curve" smooth="yes"/>
      <point x="179" y="451"/>
      <point x="223" y="489"/>
      <point x="273" y="489" type="curve" smooth="yes"/>
      <point x="323" y="489"/>
      <point x="369" y="451"/>
    </contour>
    <contour>
      <point x="351" y="250" type="line"/>
      <point x="438" y="164" type="line"/>
      <point x="488" y="215" type="line"/>
      <point x="404" y="299" type="line"/>
    </contour>
    <contour>
      <point x="147" y="303" type="line"/>
      <point x="60" y="215" type="line"/>
      <point x="111" y="164" type="line"/>
      <point x="204" y="257" type="line"/>
    </contour>
    <contour>
      <point x="201" y="502" type="line"/>
      <point x="111" y="592" type="line"/>
      <point x="60" y="541" type="line"/>
      <point x="147" y="455" type="line"/>
    </contour>
    <contour>
      <point x="398" y="450" type="line"/>
      <point x="488" y="541" type="line"/>
      <point x="438" y="592" type="line"/>
      <point x="347" y="501" type="line"/>
    </contour>
  </outline>
</glyph>
<glyph name="yen" format="1">
  <advance width="605"/>
  <unicode hex="00A5"/>
  <outline>
    <contour>
      <point x="355" y="311" type="line"/>
      <point x="560" y="313" type="line"/>
      <point x="560" y="395" type="line"/>
      <point x="369" y="395" type="line"/>
    </contour>
    <contour>
      <point x="46" y="140" type="line"/>
      <point x="560" y="140" type="line"/>
      <point x="560" y="222" type="line"/>
      <point x="46" y="222" type="line"/>
    </contour>
    <contour>
      <point x="246" y="252" type="line"/>
      <point x="246" y="0" type="line"/>
      <point x="360" y="0" type="line"/>
      <point x="360" y="252" type="line"/>
      <point x="590" y="695" type="line"/>
      <point x="462" y="695" type="line"/>
      <point x="276" y="300" type="line"/>
      <point x="329" y="300" type="line"/>
      <point x="142" y="695" type="line"/>
      <point x="15" y="695" type="line"/>
    </contour>
    <contour>
      <point x="46" y="313" type="line"/>
      <point x="269" y="311" type="line"/>
      <point x="255" y="395" type="line"/>
      <point x="46" y="395" type="line"/>
    </contour>
  </outline>
</glyph>
<glyph name="brokenbar" format="1">
  <advance width="324"/>
  <unicode hex="00A6"/>
  <outline>
    <contour>
      <point x="105" y="275" type="line"/>
      <point x="105" y="-113" type="line"/>
      <point x="219" y="-113" type="line"/>
      <point x="219" y="275" type="line"/>
    </contour>
    <contour>
      <point x="219" y="413" type="line"/>
      <point x="219" y="801" type="line"/>
      <point x="105" y="801" type="line"/>
      <point x="105" y="413" type="line"/>
    </contour>
  </outline>
</glyph>
<glyph name="section" format="1">
  <advance width="578"/>
  <unicode hex="00A7"/>
  <outline>
    <contour>
      <point x="74" y="534" type="curve" smooth="yes"/>
      <point x="74" y="453"/>
      <point x="137" y="413"/>
      <point x="217" y="378" type="curve"/>
      <point x="228" y="421" type="line"/>
      <point x="104" y="401"/>
      <point x="41" y="331"/>
      <point x="41" y="244" type="curve" smooth="yes"/>
      <point x="41" y="151"/>
      <point x="109" y="100"/>
      <point x="233" y="56" type="curve" smooth="yes"/>
      <point x="358" y="11"/>
      <point x="390" y="-10"/>
      <point x="390" y="-56" type="curve" smooth="yes"/>
      <point x="390" y="-107"/>
      <point x="353" y="-133"/>
      <point x="290" y="-133" type="curve" smooth="yes"/>
      <point x="227" y="-133"/>
      <point x="198" y="-98"/>
      <point x="194" y="-47" type="curve"/>
      <point x="80" y="-47" type="line"/>
      <point x="80" y="-153"/>
      <point x="169" y="-212"/>
      <point x="290" y="-212" type="curve" smooth="yes"/>
      <point x="424" y="-212"/>
      <point x="504" y="-136"/>
      <point x="504" y="-46" type="curve" smooth="yes"/>
      <point x="504" y="35"/>
      <point x="441" y="75"/>
      <point x="361" y="110" type="curve"/>
      <point x="349" y="63" type="line"/>
      <point x="476" y="92"/>
      <point x="537" y="158"/>
      <point x="537" y="244" type="curve"/>
      <point x="537" y="337"/>
      <point x="469" y="388"/>
      <point x="345" y="432" type="curve" smooth="yes"/>
      <point x="220" y="477"/>
      <point x="188" y="498"/>
      <point x="188" y="544" type="curve" smooth="yes"/>
      <point x="188" y="595"/>
      <point x="225" y="621"/>
      <point x="288" y="621" type="curve" smooth="yes"/>
      <point x="351" y="621"/>
      <point x="380" y="586"/>
      <point x="384" y="535" type="curve"/>
      <point x="498" y="535" type="line"/>
      <point x="498" y="641"/>
      <point x="409" y="700"/>
      <point x="288" y="700" type="curve" smooth="yes"/>
      <point x="154" y="700"/>
      <point x="74" y="624"/>
    </contour>
    <contour>
      <point x="420" y="244" type="curve" smooth="yes"/>
      <point x="420" y="188"/>
      <point x="372" y="140"/>
      <point x="291" y="140" type="curve" smooth="yes"/>
      <point x="209" y="140"/>
      <point x="158" y="188"/>
      <point x="158" y="244" type="curve"/>
      <point x="158" y="300"/>
      <point x="206" y="348"/>
      <point x="288" y="348" type="curve" smooth="yes"/>
      <point x="368" y="348"/>
      <point x="420" y="302"/>
    </contour>
  </outline>
</glyph>
<glyph name="dieresis" format="1">
  <advance width="312"/>
  <unicode hex="00A8"/>
  <outline>
    <contour>
      <point x="156" y="551" type="move" name="_top"/>
    </contour>
    <contour>
      <point x="70" y="620" type="curve" smooth="yes"/>
      <point x="103" y="620"/>
      <point x="130" y="646"/>
      <point x="130" y="680" type="curve" smooth="yes"/>
      <point x="130" y="713"/>
      <point x="103" y="740"/>
      <point x="70" y="740" type="curve" smooth="yes"/>
      <point x="36" y="740"/>
      <point x="10" y="713"/>
      <point x="10" y="680" type="curve" smooth="yes"/>
      <point x="10" y="646"/>
      <point x="36" y="620"/>
    </contour>
    <contour>
      <point x="242" y="620" type="curve" smooth="yes"/>
      <point x="275" y="620"/>
      <point x="302" y="646"/>
      <point x="302" y="680" type="curve" smooth="yes"/>
      <point x="302" y="713"/>
      <point x="275" y="740"/>
      <point x="242" y="740" type="curve" smooth="yes"/>
      <point x="208" y="740"/>
      <point x="182" y="713"/>
      <point x="182" y="680" type="curve" smooth="yes"/>
      <point x="182" y="646"/>
      <point x="208" y="620"/>
    </contour>
  </outline>
</glyph>
<glyph name="copyright" format="1">
  <advance width="789"/>
  <unicode hex="00A9"/>
  <outline>
    <contour>
      <point x="743" y="348" type="curve" smooth="yes"/>
      <point x="743" y="139"/>
      <point x="601" y="-9"/>
      <point x="395" y="-9" type="curve" smooth="yes"/>
      <point x="188" y="-9"/>
      <point x="46" y="139"/>
      <point x="46" y="348" type="curve" smooth="yes"/>
      <point x="46" y="557"/>
      <point x="188" y="704"/>
      <point x="395" y="704" type="curve" smooth="yes"/>
      <point x="601" y="704"/>
      <point x="743" y="557"/>
    </contour>
    <contour>
      <point x="96" y="348" type="curve" smooth="yes"/>
      <point x="96" y="161"/>
      <point x="211" y="36"/>
      <point x="395" y="36" type="curve" smooth="yes"/>
      <point x="578" y="36"/>
      <point x="693" y="161"/>
      <point x="693" y="348" type="curve" smooth="yes"/>
      <point x="693" y="537"/>
      <point x="578" y="659"/>
      <point x="395" y="659" type="curve" smooth="yes"/>
      <point x="211" y="659"/>
      <point x="96" y="537"/>
    </contour>
    <contour>
      <point x="174" y="349" type="curve" smooth="yes"/>
      <point x="174" y="209"/>
      <point x="270" y="119"/>
      <point x="392" y="119" type="curve" smooth="yes"/>
      <point x="496" y="119"/>
      <point x="572" y="180"/>
      <point x="597" y="266" type="curve"/>
      <point x="493" y="266" type="line"/>
      <point x="477" y="225"/>
      <point x="448" y="200"/>
      <point x="392" y="200" type="curve" smooth="yes"/>
      <point x="323" y="200"/>
      <point x="275" y="251"/>
      <point x="275" y="349" type="curve" smooth="yes"/>
      <point x="275" y="447"/>
      <point x="323" y="497"/>
      <point x="392" y="497" type="curve" smooth="yes"/>
      <point x="442" y="497"/>
      <point x="479" y="474"/>
      <point x="493" y="431" type="curve"/>
      <point x="597" y="431" type="line"/>
      <point x="572" y="524"/>
      <point x="496" y="578"/>
      <point x="392" y="578" type="curve" smooth="yes"/>
      <point x="270" y="578"/>
      <point x="174" y="489"/>
    </contour>
  </outline>
</glyph>
<glyph name="ordfeminine" format="1">
  <advance width="456"/>
  <unicode hex="00AA"/>
  <outline>
    <contour>
      <point x="31" y="530" type="curve" smooth="yes"/>
      <point x="31" y="424"/>
      <point x="106" y="347"/>
      <point x="199" y="347" type="curve" smooth="yes"/>
      <point x="261" y="347"/>
      <point x="304" y="376"/>
      <point x="325" y="414" type="curve"/>
      <point x="325" y="353" type="line"/>
      <point x="414" y="353" type="line"/>
      <point x="414" y="703" type="line"/>
      <point x="325" y="703" type="line"/>
      <point x="325" y="642" type="line"/>
      <point x="304" y="681"/>
      <point x="261" y="709"/>
      <point x="199" y="709" type="curve" smooth="yes"/>
      <point x="106" y="709"/>
      <point x="31" y="636"/>
    </contour>
    <contour>
      <point x="325" y="528" type="curve" smooth="yes"/>
      <point x="325" y="456"/>
      <point x="277" y="416"/>
      <point x="224" y="416" type="curve" smooth="yes"/>
      <point x="172" y="416"/>
      <point x="123" y="457"/>
      <point x="123" y="529" type="curve" smooth="yes"/>
      <point x="123" y="601"/>
      <point x="172" y="640"/>
      <point x="224" y="640" type="curve" smooth="yes"/>
      <point x="277" y="640"/>
      <point x="325" y="600"/>
    </contour>
  </outline>
</glyph>
<glyph name="guillemotleft" format="1">
  <advance width="489"/>
  <unicode hex="00AB"/>
  <outline>
    <contour>
      <point x="151" y="295" type="line"/>
      <point x="247" y="470" type="line"/>
      <point x="137" y="470" type="line"/>
      <point x="45" y="295" type="line"/>
      <point x="137" y="120" type="line"/>
      <point x="247" y="120" type="line"/>
    </contour>
    <contour>
      <point x="343" y="295" type="line"/>
      <point x="439" y="470" type="line"/>
      <point x="329" y="470" type="line"/>
      <point x="237" y="295" type="line"/>
      <point x="329" y="120" type="line"/>
      <point x="439" y="120" type="line"/>
    </contour>
  </outline>
</glyph>
<glyph name="logicalnot" format="1">
  <advance width="748"/>
  <unicode hex="00AC"/>
  <outline>
    <contour>
      <point x="41" y="346" type="line"/>
      <point x="580" y="346" type="line"/>
      <point x="580" y="208" type="line"/>
      <point x="694" y="208" type="line"/>
      <point x="694" y="435" type="line"/>
      <point x="41" y="435" type="line"/>
    </contour>
  </outline>
</glyph>
<glyph name="registered" format="1">
  <advance width="789"/>
  <unicode hex="00AE"/>
  <outline>
    <contour>
      <point x="757" y="348" type="curve" smooth="yes"/>
      <point x="757" y="139"/>
      <point x="613" y="-9"/>
      <point x="402" y="-9" type="curve" smooth="yes"/>
      <point x="190" y="-9"/>
      <point x="46" y="139"/>
      <point x="46" y="348" type="curve" smooth="yes"/>
      <point x="46" y="557"/>
      <point x="190" y="704"/>
      <point x="402" y="704" type="curve" smooth="yes"/>
      <point x="613" y="704"/>
      <point x="757" y="557"/>
    </contour>
    <contour>
      <point x="96" y="348" type="curve" smooth="yes"/>
      <point x="96" y="161"/>
      <point x="213" y="36"/>
      <point x="402" y="36" type="curve" smooth="yes"/>
      <point x="590" y="36"/>
      <point x="707" y="161"/>
      <point x="707" y="348" type="curve" smooth="yes"/>
      <point x="707" y="537"/>
      <point x="590" y="659"/>
      <point x="402" y="659" type="curve" smooth="yes"/>
      <point x="213" y="659"/>
      <point x="96" y="537"/>
    </contour>
    <contour>
      <point x="500" y="448" type="curve" smooth="yes"/>
      <point x="500" y="401"/>
      <point x="473" y="370"/>
      <point x="414" y="370" type="curve" smooth="yes"/>
      <point x="331" y="370" type="line"/>
      <point x="331" y="526" type="line"/>
      <point x="414" y="526" type="line" smooth="yes"/>
      <point x="473" y="526"/>
      <point x="500" y="496"/>
    </contour>
    <contour>
      <point x="257" y="584" type="line"/>
      <point x="257" y="128" type="line"/>
      <point x="331" y="128" type="line"/>
      <point x="331" y="313" type="line"/>
      <point x="414" y="313" type="line" smooth="yes"/>
      <point x="532" y="313"/>
      <point x="575" y="382"/>
      <point x="575" y="448" type="curve" smooth="yes"/>
      <point x="575" y="523"/>
      <point x="522" y="584"/>
      <point x="414" y="584" type="curve" smooth="yes"/>
    </contour>
    <contour>
      <point x="364" y="335" type="line"/>
      <point x="492" y="128" type="line"/>
      <point x="582" y="128" type="line"/>
      <point x="449" y="335" type="line"/>
    </contour>
  </outline>
</glyph>
<glyph name="macron" format="1">
  <advance width="386"/>
  <unicode hex="00AF"/>
  <outline>
    <contour>
      <point x="193" y="551" type="move" name="_top"/>
    </contour>
    <contour>
      <point x="10" y="635" type="line"/>
      <point x="376" y="635" type="line"/>
      <point x="376" y="720" type="line"/>
      <point x="10" y="720" type="line"/>
    </contour>
  </outline>
</glyph>
<glyph name="degree" format="1">
  <advance width="427"/>
  <unicode hex="00B0"/>
  <outline>
    <contour>
      <point x="28" y="525" type="curve" smooth="yes"/>
      <point x="28" y="417"/>
      <point x="103" y="347"/>
      <point x="211" y="347" type="curve" smooth="yes"/>
      <point x="318" y="347"/>
      <point x="399" y="417"/>
      <point x="399" y="525" type="curve" smooth="yes"/>
      <point x="399" y="634"/>
      <point x="320" y="702"/>
      <point x="214" y="702" type="curve" smooth="yes"/>
      <point x="107" y="702"/>
      <point x="28" y="634"/>
    </contour>
    <contour>
      <point x="308" y="525" type="curve" smooth="yes"/>
      <point x="308" y="450"/>
      <point x="260" y="414"/>
      <point x="211" y="414" type="curve" smooth="yes"/>
      <point x="161" y="414"/>
      <point x="118" y="450"/>
      <point x="118" y="525" type="curve" smooth="yes"/>
      <point x="118" y="599"/>
      <point x="163" y="637"/>
      <point x="212" y="637" type="curve" smooth="yes"/>
      <point x="262" y="637"/>
      <point x="308" y="599"/>
    </contour>
  </outline>
</glyph>
<glyph name="plusminus" format="1">
  <advance width="717"/>
  <unicode hex="00B1"/>
  <outline>
    <contour>
      <point x="304" y="621" type="line"/>
      <point x="304" y="166" type="line"/>
      <point x="413" y="166" type="line"/>
      <point x="413" y="621" type="line"/>
    </contour>
    <contour>
      <point x="104" y="369" type="line"/>
      <point x="613" y="369" type="line"/>
      <point x="613" y="471" type="line"/>
      <point x="104" y="471" type="line"/>
    </contour>
    <contour>
      <point x="104" y="124" type="line"/>
      <point x="613" y="124" type="line"/>
      <point x="613" y="225" type="line"/>
      <point x="104" y="225" type="line"/>
    </contour>
  </outline>
</glyph>
<glyph name="twosuperior" format="1">
  <advance width="340"/>
  <unicode hex="00B2"/>
  <outline>
    <contour>
      <point x="27" y="605" type="curve"/>
      <point x="117" y="605" type="line"/>
      <point x="120" y="628"/>
      <point x="134" y="643"/>
      <point x="159" y="643" type="curve" smooth="yes"/>
      <point x="184" y="643"/>
      <point x="203" y="624"/>
      <point x="203" y="593" type="curve" smooth="yes"/>
      <point x="203" y="556"/>
      <point x="177" y="528"/>
      <point x="137" y="497" type="curve"/>
      <point x="29" y="418" type="line"/>
      <point x="29" y="352" type="line"/>
      <point x="298" y="352" type="line"/>
      <point x="298" y="424" type="line"/>
      <point x="102" y="424" type="line"/>
      <point x="86" y="396" type="line"/>
      <point x="203" y="471" type="line"/>
      <point x="268" y="515"/>
      <point x="297" y="547"/>
      <point x="297" y="597" type="curve" smooth="yes"/>
      <point x="297" y="656"/>
      <point x="247" y="711"/>
      <point x="162" y="711" type="curve" smooth="yes"/>
      <point x="78" y="711"/>
      <point x="30" y="667"/>
    </contour>
  </outline>
</glyph>
<glyph name="threesuperior" format="1">
  <advance width="342"/>
  <unicode hex="00B3"/>
  <outline>
    <contour>
      <point x="22" y="609" type="curve"/>
      <point x="107" y="609" type="line"/>
      <point x="113" y="630"/>
      <point x="129" y="644"/>
      <point x="159" y="644" type="curve" smooth="yes"/>
      <point x="191" y="644"/>
      <point x="210" y="627"/>
      <point x="210" y="601" type="curve" smooth="yes"/>
      <point x="210" y="573"/>
      <point x="188" y="559"/>
      <point x="156" y="559" type="curve" smooth="yes"/>
      <point x="122" y="559" type="line"/>
      <point x="122" y="501" type="line"/>
      <point x="159" y="501" type="line" smooth="yes"/>
      <point x="191" y="501"/>
      <point x="213" y="485"/>
      <point x="213" y="458" type="curve" smooth="yes"/>
      <point x="213" y="430"/>
      <point x="191" y="413"/>
      <point x="161" y="413" type="curve" smooth="yes"/>
      <point x="131" y="413"/>
      <point x="111" y="428"/>
      <point x="106" y="457" type="curve"/>
      <point x="18" y="457" type="line"/>
      <point x="21" y="388"/>
      <point x="78" y="347"/>
      <point x="162" y="347" type="curve" smooth="yes"/>
      <point x="248" y="347"/>
      <point x="309" y="390"/>
      <point x="309" y="446" type="curve" smooth="yes"/>
      <point x="309" y="488"/>
      <point x="279" y="515"/>
      <point x="245" y="527" type="curve"/>
      <point x="245" y="529" type="line"/>
      <point x="279" y="539"/>
      <point x="306" y="564"/>
      <point x="306" y="606" type="curve" smooth="yes"/>
      <point x="306" y="664"/>
      <point x="244" y="711"/>
      <point x="166" y="711" type="curve" smooth="yes"/>
      <point x="83" y="711"/>
      <point x="27" y="669"/>
    </contour>
  </outline>
</glyph>
<glyph name="acute" format="1">
  <advance width="241"/>
  <unicode hex="00B4"/>
  <outline>
    <contour>
      <point x="128" y="551" type="move" name="_top"/>
    </contour>
    <contour>
      <point x="10" y="674" type="line"/>
      <point x="10" y="590" type="line"/>
      <point x="231" y="699" type="line"/>
      <point x="231" y="796" type="line"/>
    </contour>
  </outline>
</glyph>
<glyph name="mu.math" format="1">
  <advance width="654"/>
  <unicode hex="00B5"/>
  <outline>
    <contour>
      <point x="579" y="551" type="line"/>
      <point x="465" y="551" type="line"/>
      <point x="465" y="0" type="line"/>
      <point x="579" y="0" type="line"/>
    </contour>
    <contour>
      <point x="465" y="243" type="line"/>
      <point x="465" y="142"/>
      <point x="410" y="90"/>
      <point x="326" y="90" type="curve" smooth="yes"/>
      <point x="243" y="90"/>
      <point x="188" y="142"/>
      <point x="188" y="243" type="curve" smooth="yes"/>
      <point x="188" y="551" type="line"/>
      <point x="75" y="551" type="line"/>
      <point x="75" y="-262" type="line"/>
      <point x="188" y="-262" type="line"/>
      <point x="188" y="39" type="line"/>
      <point x="180" y="30" type="line"/>
      <point x="209" y="4"/>
      <point x="248" y="-8"/>
      <point x="289" y="-8" type="curve" smooth="yes"/>
      <point x="388" y="-8"/>
      <point x="467" y="47"/>
      <point x="489" y="152" type="curve"/>
    </contour>
  </outline>
</glyph>
<glyph name="paragraph" format="1">
  <advance width="630"/>
  <unicode hex="00B6"/>
  <outline>
    <contour>
      <point x="272" y="695" type="line"/>
      <point x="108" y="695"/>
      <point x="35" y="601"/>
      <point x="35" y="488" type="curve" smooth="yes"/>
      <point x="35" y="375"/>
      <point x="107" y="282"/>
      <point x="272" y="282" type="curve" smooth="yes"/>
      <point x="286" y="282" type="line"/>
      <point x="286" y="0" type="line"/>
      <point x="387" y="0" type="line"/>
      <point x="387" y="606" type="line"/>
      <point x="454" y="606" type="line"/>
      <point x="454" y="0" type="line"/>
      <point x="555" y="0" type="line"/>
      <point x="555" y="695" type="line"/>
    </contour>
  </outline>
</glyph>
<glyph name="cedilla" format="1">
  <advance width="279"/>
  <unicode hex="00B8"/>
  <outline>
    <contour>
      <point x="98" y="0" type="move" name="_bottom"/>
    </contour>
    <contour>
      <point x="139" y="7" type="line"/>
      <point x="64" y="7" type="line"/>
      <point x="64" y="-116" type="line"/>
      <point x="119" y="-116" type="line" smooth="yes"/>
      <point x="154" y="-116"/>
      <point x="175" y="-123"/>
      <point x="175" y="-153" type="curve" smooth="yes"/>
      <point x="175" y="-183"/>
      <point x="154" y="-190"/>
      <point x="119" y="-190" type="curve" smooth="yes"/>
      <point x="10" y="-190" type="line"/>
      <point x="10" y="-262" type="line"/>
      <point x="142" y="-262" type="line" smooth="yes"/>
      <point x="213" y="-262"/>
      <point x="269" y="-221"/>
      <point x="269" y="-153" type="curve" smooth="yes"/>
      <point x="269" y="-84"/>
      <point x="213" y="-48"/>
      <point x="139" y="-48" type="curve"/>
    </contour>
  </outline>
</glyph>
<glyph name="onesuperior" format="1">
  <advance width="209"/>
  <unicode hex="00B9"/>
  <outline>
    <contour>
      <point x="74" y="352" type="line"/>
      <point x="163" y="352" type="line"/>
      <point x="163" y="704" type="line"/>
      <point x="20" y="704" type="line"/>
      <point x="20" y="636" type="line"/>
      <point x="74" y="636" type="line"/>
    </contour>
  </outline>
</glyph>
<glyph name="ordmasculine" format="1">
  <advance width="444"/>
  <unicode hex="00BA"/>
  <outline>
    <contour>
      <point x="31" y="528" type="curve" smooth="yes"/>
      <point x="31" y="419"/>
      <point x="111" y="347"/>
      <point x="220" y="347" type="curve" smooth="yes"/>
      <point x="328" y="347"/>
      <point x="413" y="419"/>
      <point x="413" y="528" type="curve" smooth="yes"/>
      <point x="413" y="639"/>
      <point x="331" y="709"/>
      <point x="222" y="709" type="curve" smooth="yes"/>
      <point x="114" y="709"/>
      <point x="31" y="639"/>
    </contour>
    <contour>
      <point x="321" y="527" type="curve" smooth="yes"/>
      <point x="321" y="452"/>
      <point x="271" y="414"/>
      <point x="220" y="414" type="curve" smooth="yes"/>
      <point x="168" y="414"/>
      <point x="123" y="452"/>
      <point x="123" y="527" type="curve" smooth="yes"/>
      <point x="123" y="605"/>
      <point x="170" y="643"/>
      <point x="221" y="643" type="curve" smooth="yes"/>
      <point x="272" y="643"/>
      <point x="321" y="605"/>
    </contour>
  </outline>
</glyph>
<glyph name="guillemotright" format="1">
  <advance width="489"/>
  <unicode hex="00BB"/>
  <outline>
    <contour>
      <point x="351" y="120" type="line"/>
      <point x="444" y="295" type="line"/>
      <point x="351" y="470" type="line"/>
      <point x="242" y="470" type="line"/>
      <point x="337" y="295" type="line"/>
      <point x="242" y="120" type="line"/>
    </contour>
    <contour>
      <point x="159" y="120" type="line"/>
      <point x="252" y="295" type="line"/>
      <point x="159" y="470" type="line"/>
      <point x="50" y="470" type="line"/>
      <point x="145" y="295" type="line"/>
      <point x="50" y="120" type="line"/>
    </contour>
  </outline>
</glyph>
<glyph name="onequarter" format="1">
  <advance width="682"/>
  <unicode hex="00BC"/>
  <outline>
    <contour>
      <point x="63" y="0" type="line"/>
      <point x="171" y="0" type="line"/>
      <point x="553" y="696" type="line"/>
      <point x="446" y="696" type="line"/>
    </contour>
    <contour>
      <point x="598" y="123" type="line"/>
      <point x="598" y="353" type="line"/>
      <point x="474" y="353" type="line"/>
      <point x="323" y="117" type="line"/>
      <point x="323" y="67" type="line"/>
      <point x="509" y="67" type="line"/>
      <point x="509" y="0" type="line"/>
      <point x="598" y="0" type="line"/>
      <point x="598" y="67" type="line"/>
      <point x="643" y="67" type="line"/>
      <point x="643" y="123" type="line"/>
    </contour>
    <contour>
      <point x="412" y="123" type="line"/>
      <point x="511" y="285" type="line"/>
      <point x="511" y="123" type="line"/>
    </contour>
    <component base="onesuperior" xOffset="14"/>
  </outline>
</glyph>
<glyph name="onehalf" format="1">
  <advance width="701"/>
  <unicode hex="00BD"/>
  <outline>
    <contour>
      <point x="63" y="0" type="line"/>
      <point x="171" y="0" type="line"/>
      <point x="542" y="696" type="line"/>
      <point x="434" y="696" type="line"/>
    </contour>
    <component base="twosuperior" xOffset="359" yOffset="-353"/>
    <component base="onesuperior" xOffset="14"/>
  </outline>
</glyph>
<glyph name="threequarters" format="1">
  <advance width="742"/>
  <unicode hex="00BE"/>
  <outline>
    <contour>
      <point x="139" y="0" type="line"/>
      <point x="246" y="0" type="line"/>
      <point x="648" y="696" type="line"/>
      <point x="541" y="696" type="line"/>
    </contour>
    <contour>
      <point x="671" y="123" type="line"/>
      <point x="671" y="353" type="line"/>
      <point x="547" y="353" type="line"/>
      <point x="396" y="117" type="line"/>
      <point x="396" y="67" type="line"/>
      <point x="582" y="67" type="line"/>
      <point x="582" y="0" type="line"/>
      <point x="671" y="0" type="line"/>
      <point x="671" y="67" type="line"/>
      <point x="716" y="67" type="line"/>
      <point x="716" y="123" type="line"/>
    </contour>
    <contour>
      <point x="485" y="123" type="line"/>
      <point x="584" y="285" type="line"/>
      <point x="584" y="123" type="line"/>
    </contour>
    <component base="threesuperior" xOffset="15"/>
  </outline>
</glyph>
<glyph name="AE" format="1">
  <advance width="921"/>
  <unicode hex="00C6"/>
  <outline>
    <contour>
      <point x="152" y="142" type="line"/>
      <point x="525" y="142" type="line"/>
      <point x="525" y="231" type="line"/>
      <point x="202" y="231" type="line"/>
    </contour>
    <contour>
      <point x="855" y="607" type="line"/>
      <point x="855" y="696" type="line"/>
      <point x="395" y="696" type="line"/>
      <point x="12" y="0" type="line"/>
      <point x="136" y="0" type="line"/>
      <point x="472" y="617" type="line"/>
      <point x="472" y="0" type="line"/>
      <point x="855" y="0" type="line"/>
      <point x="855" y="89" type="line"/>
      <point x="586" y="89" type="line"/>
      <point x="586" y="308" type="line"/>
      <point x="825" y="308" type="line"/>
      <point x="825" y="396" type="line"/>
      <point x="586" y="396" type="line"/>
      <point x="586" y="607" type="line"/>
    </contour>
  </outline>
</glyph>
<glyph name="Eth" format="1">
  <advance width="720"/>
  <unicode hex="00D0"/>
  <outline>
    <contour>
      <point x="9" y="293" type="line"/>
      <point x="379" y="293" type="line"/>
      <point x="379" y="398" type="line"/>
      <point x="9" y="398" type="line"/>
    </contour>
    <contour>
      <point x="314" y="695" type="curve" smooth="yes"/>
      <point x="86" y="695" type="line"/>
      <point x="86" y="0" type="line"/>
      <point x="314" y="0" type="line" smooth="yes"/>
      <point x="537" y="0"/>
      <point x="682" y="131"/>
      <point x="682" y="345" type="curve" smooth="yes"/>
      <point x="682" y="560"/>
      <point x="537" y="695"/>
    </contour>
    <contour>
      <point x="201" y="87" type="line"/>
      <point x="201" y="603" type="line"/>
      <point x="314" y="603" type="line" smooth="yes"/>
      <point x="477" y="603"/>
      <point x="565" y="504"/>
      <point x="565" y="345" type="curve" smooth="yes"/>
      <point x="565" y="187"/>
      <point x="477" y="87"/>
      <point x="314" y="87" type="curve" smooth="yes"/>
    </contour>
  </outline>
</glyph>
<glyph name="multiply" format="1">
  <advance width="699"/>
  <unicode hex="00D7"/>
  <outline>
    <contour>
      <point x="127" y="514" type="line"/>
      <point x="502" y="138" type="line"/>
      <point x="575" y="211" type="line"/>
      <point x="200" y="587" type="line"/>
    </contour>
    <contour>
      <point x="198" y="138" type="line"/>
      <point x="573" y="512" type="line"/>
      <point x="498" y="587" type="line"/>
      <point x="123" y="213" type="line"/>
    </contour>
  </outline>
</glyph>
<glyph name="Oslash" format="1">
  <advance width="784"/>
  <unicode hex="00D8"/>
  <outline>
    <contour>
      <point x="26" y="0" type="line"/>
      <point x="117" y="0" type="line"/>
      <point x="758" y="696" type="line"/>
      <point x="667" y="696" type="line"/>
    </contour>
    <component base="O"/>
  </outline>
</glyph>
<glyph name="Thorn" format="1">
  <advance width="595"/>
  <unicode hex="00DE"/>
  <outline>
    <contour>
      <point x="189" y="231" type="line"/>
      <point x="189" y="466" type="line"/>
      <point x="315" y="466" type="line" smooth="yes"/>
      <point x="404" y="466"/>
      <point x="444" y="419"/>
      <point x="444" y="348" type="curve" smooth="yes"/>
      <point x="444" y="278"/>
      <point x="404" y="231"/>
      <point x="315" y="231" type="curve" smooth="yes"/>
    </contour>
    <contour>
      <point x="561" y="348" type="curve" smooth="yes"/>
      <point x="561" y="461"/>
      <point x="480" y="555"/>
      <point x="315" y="555" type="curve" smooth="yes"/>
      <point x="188" y="555" type="line"/>
      <point x="188" y="696" type="line"/>
      <point x="75" y="696" type="line"/>
      <point x="75" y="0" type="line"/>
      <point x="189" y="0" type="line"/>
      <point x="189" y="142" type="line"/>
      <point x="315" y="142" type="line" smooth="yes"/>
      <point x="496" y="142"/>
      <point x="561" y="249"/>
    </contour>
  </outline>
</glyph>
<glyph name="germandbls" format="1">
  <advance width="682"/>
  <unicode hex="00DF"/>
  <outline>
    <contour>
      <point x="75" y="541" type="curve" smooth="yes"/>
      <point x="75" y="0" type="line"/>
      <point x="189" y="0" type="line"/>
      <point x="189" y="543" type="line" smooth="yes"/>
      <point x="189" y="610"/>
      <point x="235" y="651"/>
      <point x="292" y="651" type="curve" smooth="yes"/>
      <point x="349" y="651"/>
      <point x="391" y="608"/>
      <point x="391" y="552" type="curve" smooth="yes"/>
      <point x="391" y="510"/>
      <point x="373" y="478"/>
      <point x="334" y="457" type="curve" smooth="yes"/>
      <point x="305" y="441" type="line"/>
      <point x="305" y="387" type="line"/>
      <point x="461" y="291" type="line" smooth="yes"/>
      <point x="516" y="257"/>
      <point x="538" y="226"/>
      <point x="538" y="184" type="curve" smooth="yes"/>
      <point x="538" y="136"/>
      <point x="505" y="91"/>
      <point x="447" y="91" type="curve" smooth="yes"/>
      <point x="391" y="91"/>
      <point x="359" y="123"/>
      <point x="354" y="172" type="curve"/>
      <point x="258" y="172" type="line"/>
      <point x="258" y="57"/>
      <point x="350" y="-9"/>
      <point x="451" y="-9" type="curve" smooth="yes"/>
      <point x="556" y="-9"/>
      <point x="655" y="65"/>
      <point x="655" y="184" type="curve" smooth="yes"/>
      <point x="655" y="272"/>
      <point x="617" y="327"/>
      <point x="521" y="385" type="curve" smooth="yes"/>
      <point x="387" y="466" type="line"/>
      <point x="353" y="412" type="line"/>
      <point x="399" y="433" type="line" smooth="yes"/>
      <point x="474" y="468"/>
      <point x="508" y="513"/>
      <point x="508" y="576" type="curve" smooth="yes"/>
      <point x="508" y="662"/>
      <point x="441" y="750"/>
      <point x="297" y="750" type="curve" smooth="yes"/>
      <point x="165" y="750"/>
      <point x="75" y="671"/>
    </contour>
  </outline>
</glyph>
<glyph name="ae" format="1">
  <advance width="1088"/>
  <unicode hex="00E6"/>
  <outline>
    <contour>
      <point x="600" y="237" type="line"/>
      <point x="1047" y="237" type="line"/>
      <point x="1050" y="256"/>
      <point x="1051" y="274"/>
      <point x="1051" y="291" type="curve" smooth="yes"/>
      <point x="1051" y="447"/>
      <point x="945" y="560"/>
      <point x="792" y="560" type="curve" smooth="yes"/>
      <point x="714" y="560"/>
      <point x="652" y="536"/>
      <point x="601" y="467" type="curve"/>
      <point x="601" y="551" type="line"/>
      <point x="487" y="551" type="line"/>
      <point x="487" y="467" type="line"/>
      <point x="444" y="532"/>
      <point x="381" y="560"/>
      <point x="303" y="560" type="curve" smooth="yes"/>
      <point x="152" y="560"/>
      <point x="37" y="448"/>
      <point x="37" y="278" type="curve" smooth="yes"/>
      <point x="37" y="108"/>
      <point x="152" y="-9"/>
      <point x="297" y="-9" type="curve" smooth="yes"/>
      <point x="381" y="-9"/>
      <point x="448" y="32"/>
      <point x="487" y="90" type="curve"/>
      <point x="487" y="0" type="line"/>
      <point x="601" y="0" type="line"/>
      <point x="601" y="90" type="line"/>
      <point x="638" y="30"/>
      <point x="711" y="-9"/>
      <point x="792" y="-9" type="curve" smooth="yes"/>
      <point x="918" y="-9"/>
      <point x="1001" y="68"/>
      <point x="1033" y="164" type="curve"/>
      <point x="909" y="164" type="line"/>
      <point x="890" y="120"/>
      <point x="846" y="87"/>
      <point x="777" y="87" type="curve" smooth="yes"/>
      <point x="697" y="87"/>
      <point x="614" y="147"/>
      <point x="614" y="265" type="curve" smooth="yes"/>
      <point x="614" y="290" type="line" smooth="yes"/>
      <point x="614" y="394"/>
      <point x="691" y="464"/>
      <point x="779" y="464" type="curve" smooth="yes"/>
      <point x="868" y="464"/>
      <point x="931" y="407"/>
      <point x="933" y="315" type="curve"/>
      <point x="596" y="315" type="line"/>
    </contour>
    <contour>
      <point x="154" y="278" type="curve" smooth="yes"/>
      <point x="154" y="397"/>
      <point x="236" y="461"/>
      <point x="321" y="461" type="curve" smooth="yes"/>
      <point x="407" y="461"/>
      <point x="488" y="394"/>
      <point x="488" y="276" type="curve" smooth="yes"/>
      <point x="488" y="157"/>
      <point x="407" y="90"/>
      <point x="321" y="90" type="curve" smooth="yes"/>
      <point x="236" y="90"/>
      <point x="154" y="159"/>
    </contour>
  </outline>
</glyph>
<glyph name="eth" format="1">
  <advance width="636"/>
  <unicode hex="00F0"/>
  <outline>
    <contour>
      <point x="482" y="276" type="curve" smooth="yes"/>
      <point x="482" y="151"/>
      <point x="399" y="87"/>
      <point x="314" y="87" type="curve" smooth="yes"/>
      <point x="228" y="87"/>
      <point x="154" y="151"/>
      <point x="154" y="276" type="curve" smooth="yes"/>
      <point x="154" y="401"/>
      <point x="231" y="464"/>
      <point x="316" y="464" type="curve" smooth="yes"/>
      <point x="402" y="464"/>
      <point x="482" y="401"/>
    </contour>
    <contour>
      <point x="37" y="276" type="curve" smooth="yes"/>
      <point x="37" y="103"/>
      <point x="156" y="-9"/>
      <point x="314" y="-9" type="curve" smooth="yes"/>
      <point x="476" y="-9"/>
      <point x="599" y="101"/>
      <point x="599" y="317" type="curve" smooth="yes"/>
      <point x="599" y="481"/>
      <point x="522" y="623"/>
      <point x="385" y="740" type="curve"/>
      <point x="269" y="740" type="line"/>
      <point x="369" y="658"/>
      <point x="430" y="587"/>
      <point x="466" y="503" type="curve"/>
      <point x="421" y="540"/>
      <point x="375" y="560"/>
      <point x="313" y="560" type="curve" smooth="yes"/>
      <point x="158" y="560"/>
      <point x="37" y="449"/>
    </contour>
    <contour>
      <point x="264" y="649" type="line"/>
      <point x="264" y="588" type="line"/>
      <point x="551" y="682" type="line"/>
      <point x="551" y="743" type="line"/>
    </contour>
  </outline>
</glyph>
<glyph name="divide" format="1">
  <advance width="679"/>
  <unicode hex="00F7"/>
  <outline>
    <contour>
      <point x="345" y="80" type="curve" smooth="yes"/>
      <point x="383" y="80"/>
      <point x="414" y="110"/>
      <point x="414" y="148" type="curve" smooth="yes"/>
      <point x="414" y="187"/>
      <point x="383" y="217"/>
      <point x="345" y="217" type="curve" smooth="yes"/>
      <point x="307" y="217"/>
      <point x="276" y="187"/>
      <point x="276" y="148" type="curve" smooth="yes"/>
      <point x="276" y="110"/>
      <point x="307" y="80"/>
    </contour>
    <contour>
      <point x="345" y="505" type="curve" smooth="yes"/>
      <point x="383" y="505"/>
      <point x="414" y="536"/>
      <point x="414" y="574" type="curve" smooth="yes"/>
      <point x="414" y="612"/>
      <point x="383" y="643"/>
      <point x="345" y="643" type="curve" smooth="yes"/>
      <point x="307" y="643"/>
      <point x="276" y="612"/>
      <point x="276" y="574" type="curve" smooth="yes"/>
      <point x="276" y="536"/>
      <point x="307" y="505"/>
    </contour>
    <contour>
      <point x="90" y="311" type="line"/>
      <point x="600" y="311" type="line"/>
      <point x="600" y="412" type="line"/>
      <point x="90" y="412" type="line"/>
    </contour>
  </outline>
</glyph>
<glyph name="oslash" format="1">
  <advance width="638"/>
  <unicode hex="00F8"/>
  <outline>
    <contour>
      <point x="28" y="0" type="line"/>
      <point x="107" y="0" type="line"/>
      <point x="610" y="551" type="line"/>
      <point x="531" y="551" type="line"/>
    </contour>
    <component base="o"/>
  </outline>
</glyph>
<glyph name="Aogonek" format="1">
  <advance width="697"/>
  <unicode hex="0104"/>
  <outline>
    <contour>
      <point x="138" y="142" type="line"/>
      <point x="554" y="142" type="line"/>
      <point x="524" y="231" type="line"/>
      <point x="167" y="231" type="line"/>
    </contour>
    <contour>
      <point x="34" y="0" type="line"/>
      <point x="153" y="0" type="line"/>
      <point x="359" y="586" type="line"/>
      <point x="339" y="586" type="line"/>
      <point x="553" y="-24" type="line"/>
      <point x="558" y="1" type="line"/>
      <point x="501" y="-7"/>
      <point x="464" y="-42"/>
      <point x="464" y="-96" type="curve" smooth="yes"/>
      <point x="464" y="-165"/>
      <point x="521" y="-205"/>
      <point x="592" y="-205" type="curve" smooth="yes"/>
      <point x="698" y="-205" type="line"/>
      <point x="698" y="-133" type="line"/>
      <point x="614" y="-133" type="line" smooth="yes"/>
      <point x="579" y="-133"/>
      <point x="558" y="-126"/>
      <point x="558" y="-96" type="curve" smooth="yes"/>
      <point x="558" y="-66"/>
      <point x="579" y="-60"/>
      <point x="614" y="-60" type="curve" smooth="yes"/>
      <point x="664" y="-60" type="line"/>
      <point x="664" y="1" type="line"/>
      <point x="415" y="696" type="line"/>
      <point x="283" y="696" type="line"/>
    </contour>
  </outline>
</glyph>
<glyph name="dcroat" format="1">
  <advance width="678"/>
  <unicode hex="0111"/>
  <outline>
    <contour>
      <point x="406" y="590" type="line"/>
      <point x="662" y="590" type="line"/>
      <point x="662" y="656" type="line"/>
      <point x="406" y="656" type="line"/>
    </contour>
    <component base="d"/>
  </outline>
</glyph>
<glyph name="eogonek" format="1">
  <advance width="617"/>
  <unicode hex="0119"/>
  <outline>
    <contour>
      <point x="37" y="276" type="curve" smooth="yes"/>
      <point x="37" y="113"/>
      <point x="137" y="4"/>
      <point x="281" y="-8" type="curve"/>
      <point x="279" y="-14"/>
      <point x="278" y="-22"/>
      <point x="278" y="-30" type="curve" smooth="yes"/>
      <point x="278" y="-99"/>
      <point x="335" y="-139"/>
      <point x="406" y="-139" type="curve" smooth="yes"/>
      <point x="512" y="-139" type="line"/>
      <point x="512" y="-67" type="line"/>
      <point x="428" y="-67" type="line" smooth="yes"/>
      <point x="393" y="-67"/>
      <point x="372" y="-60"/>
      <point x="372" y="-30" type="curve" smooth="yes"/>
      <point x="372" y="-9"/>
      <point x="387" y="0"/>
      <point x="414" y="10" type="curve" smooth="yes"/>
      <point x="481" y="35"/>
      <point x="537" y="90"/>
      <point x="561" y="164" type="curve"/>
      <point x="438" y="164" type="line"/>
      <point x="417" y="121"/>
      <point x="377" y="87"/>
      <point x="307" y="87" type="curve" smooth="yes"/>
      <point x="218" y="87"/>
      <point x="154" y="150"/>
      <point x="154" y="251" type="curve" smooth="yes"/>
      <point x="154" y="295" type="line" smooth="yes"/>
      <point x="154" y="400"/>
      <point x="221" y="464"/>
      <point x="307" y="464" type="curve" smooth="yes"/>
      <point x="392" y="464"/>
      <point x="459" y="407"/>
      <point x="461" y="315" type="curve"/>
      <point x="143" y="315" type="line"/>
      <point x="142" y="237" type="line"/>
      <point x="576" y="237" type="line"/>
      <point x="579" y="256"/>
      <point x="580" y="274"/>
      <point x="580" y="291" type="curve" smooth="yes"/>
      <point x="580" y="451"/>
      <point x="469" y="560"/>
      <point x="312" y="560" type="curve" smooth="yes"/>
      <point x="149" y="560"/>
      <point x="37" y="449"/>
    </contour>
  </outline>
</glyph>
<glyph name="dotlessi" format="1">
  <advance width="264"/>
  <unicode hex="0131"/>
  <outline>
    <contour>
      <point x="132" y="551" type="move" name="top"/>
    </contour>
    <contour>
      <point x="238" y="10" type="move" name="ogonek"/>
    </contour>
    <contour>
      <point x="75" y="0" type="line"/>
      <point x="189" y="0" type="line"/>
      <point x="189" y="551" type="line"/>
      <point x="75" y="551" type="line"/>
    </contour>
  </outline>
</glyph>
<glyph name="Lslash" format="1">
  <advance width="444"/>
  <unicode hex="0141"/>
  <outline>
    <contour>
      <point x="9" y="263" type="line"/>
      <point x="293" y="355" type="line"/>
      <point x="293" y="461" type="line"/>
      <point x="9" y="368" type="line"/>
    </contour>
    <contour>
      <point x="86" y="695" type="line"/>
      <point x="86" y="0" type="line"/>
      <point x="435" y="0" type="line"/>
      <point x="435" y="87" type="line"/>
      <point x="201" y="87" type="line"/>
      <point x="201" y="695" type="line"/>
    </contour>
  </outline>
</glyph>
<glyph name="lslash" format="1">
  <advance width="264"/>
  <unicode hex="0142"/>
  <outline>
    <contour>
      <point x="9" y="259" type="line"/>
      <point x="256" y="344" type="line"/>
      <point x="256" y="449" type="line"/>
      <point x="9" y="365" type="line"/>
    </contour>
    <contour>
      <point x="75" y="0" type="line"/>
      <point x="189" y="0" type="line"/>
      <point x="189" y="740" type="line"/>
      <point x="75" y="740" type="line"/>
    </contour>
  </outline>
</glyph>
<glyph name="OE" format="1">
  <advance width="1079"/>
  <unicode hex="0152"/>
  <outline>
    <contour>
      <point x="154" y="349" type="curve" smooth="yes"/>
      <point x="154" y="502"/>
      <point x="254" y="600"/>
      <point x="392" y="600" type="curve" smooth="yes"/>
      <point x="530" y="600"/>
      <point x="630" y="502"/>
      <point x="630" y="349" type="curve" smooth="yes"/>
      <point x="630" y="196"/>
      <point x="530" y="96"/>
      <point x="392" y="96" type="curve" smooth="yes"/>
      <point x="254" y="96"/>
      <point x="154" y="196"/>
    </contour>
    <contour>
      <point x="1014" y="606" type="line"/>
      <point x="1014" y="695" type="line"/>
      <point x="630" y="695" type="line"/>
      <point x="630" y="585" type="line"/>
      <point x="572" y="665"/>
      <point x="487" y="704"/>
      <point x="392" y="704" type="curve" smooth="yes"/>
      <point x="197" y="704"/>
      <point x="37" y="559"/>
      <point x="37" y="349" type="curve" smooth="yes"/>
      <point x="37" y="140"/>
      <point x="196" y="-7"/>
      <point x="392" y="-7" type="curve" smooth="yes"/>
      <point x="487" y="-7"/>
      <point x="572" y="32"/>
      <point x="630" y="111" type="curve"/>
      <point x="630" y="0" type="line"/>
      <point x="1014" y="0" type="line"/>
      <point x="1014" y="89" type="line"/>
      <point x="744" y="89" type="line"/>
      <point x="744" y="307" type="line"/>
      <point x="984" y="307" type="line"/>
      <point x="984" y="395" type="line"/>
      <point x="744" y="395" type="line"/>
      <point x="744" y="606" type="line"/>
    </contour>
  </outline>
</glyph>
<glyph name="oe" format="1">
  <advance width="1062"/>
  <unicode hex="0153"/>
  <outline>
    <contour>
      <point x="482" y="276" type="curve" smooth="yes"/>
      <point x="482" y="151"/>
      <point x="399" y="87"/>
      <point x="314" y="87" type="curve" smooth="yes"/>
      <point x="228" y="87"/>
      <point x="154" y="151"/>
      <point x="154" y="276" type="curve" smooth="yes"/>
      <point x="154" y="401"/>
      <point x="231" y="464"/>
      <point x="316" y="464" type="curve" smooth="yes"/>
      <point x="402" y="464"/>
      <point x="482" y="401"/>
    </contour>
    <contour>
      <point x="37" y="276" type="curve" smooth="yes"/>
      <point x="37" y="103"/>
      <point x="156" y="-9"/>
      <point x="314" y="-9" type="curve" smooth="yes"/>
      <point x="406" y="-9"/>
      <point x="488" y="33"/>
      <point x="538" y="107" type="curve"/>
      <point x="584" y="33"/>
      <point x="660" y="-9"/>
      <point x="752" y="-9" type="curve" smooth="yes"/>
      <point x="887" y="-9"/>
      <point x="975" y="68"/>
      <point x="1006" y="164" type="curve"/>
      <point x="883" y="164" type="line"/>
      <point x="862" y="121"/>
      <point x="823" y="87"/>
      <point x="752" y="87" type="curve" smooth="yes"/>
      <point x="663" y="87"/>
      <point x="600" y="150"/>
      <point x="600" y="251" type="curve" smooth="yes"/>
      <point x="600" y="295" type="line" smooth="yes"/>
      <point x="600" y="400"/>
      <point x="666" y="464"/>
      <point x="752" y="464" type="curve" smooth="yes"/>
      <point x="837" y="464"/>
      <point x="904" y="407"/>
      <point x="906" y="315" type="curve"/>
      <point x="559" y="315" type="line"/>
      <point x="558" y="237" type="line"/>
      <point x="1021" y="237" type="line"/>
      <point x="1024" y="256"/>
      <point x="1025" y="274"/>
      <point x="1025" y="291" type="curve" smooth="yes"/>
      <point x="1025" y="451"/>
      <point x="914" y="560"/>
      <point x="757" y="560" type="curve" smooth="yes"/>
      <point x="662" y="560"/>
      <point x="585" y="518"/>
      <point x="539" y="446" type="curve"/>
      <point x="490" y="518"/>
      <point x="410" y="560"/>
      <point x="319" y="560" type="curve" smooth="yes"/>
      <point x="162" y="560"/>
      <point x="37" y="449"/>
    </contour>
  </outline>
</glyph>
<glyph name="Tcedilla" format="1">
  <advance width="564"/>
  <unicode hex="0162"/>
  <outline>
    <contour>
      <point x="39" y="606" type="line"/>
      <point x="225" y="606" type="line"/>
      <point x="225" y="-68" type="line"/>
      <point x="310" y="-68" type="line" smooth="yes"/>
      <point x="344" y="-68"/>
      <point x="361" y="-81"/>
      <point x="361" y="-107" type="curve" smooth="yes"/>
      <point x="361" y="-133"/>
      <point x="344" y="-145"/>
      <point x="310" y="-145" type="curve" smooth="yes"/>
      <point x="166" y="-145" type="line"/>
      <point x="166" y="-217" type="line"/>
      <point x="328" y="-217" type="line" smooth="yes"/>
      <point x="403" y="-217"/>
      <point x="455" y="-175"/>
      <point x="455" y="-107" type="curve" smooth="yes"/>
      <point x="455" y="-34"/>
      <point x="396" y="4"/>
      <point x="311" y="-1" type="curve"/>
      <point x="339" y="-21" type="line"/>
      <point x="339" y="606" type="line"/>
      <point x="524" y="606" type="line"/>
      <point x="524" y="695" type="line"/>
      <point x="39" y="695" type="line"/>
    </contour>
  </outline>
</glyph>
<glyph name="tcedilla" format="1">
  <advance width="372"/>
  <unicode hex="0163"/>
  <outline>
    <contour>
      <point x="93" y="153" type="line"/>
      <point x="93" y="41"/>
      <point x="154" y="0"/>
      <point x="252" y="0" type="curve" smooth="yes"/>
      <point x="342" y="0" type="line"/>
      <point x="342" y="95" type="line"/>
      <point x="272" y="95" type="line" smooth="yes"/>
      <point x="224" y="95"/>
      <point x="208" y="112"/>
      <point x="208" y="153" type="curve" smooth="yes"/>
      <point x="208" y="688" type="line"/>
      <point x="93" y="688" type="line"/>
    </contour>
    <contour>
      <point x="342" y="458" type="line"/>
      <point x="342" y="551" type="line"/>
      <point x="28" y="551" type="line"/>
      <point x="28" y="458" type="line"/>
    </contour>
    <contour>
      <point x="228" y="60" type="line"/>
      <point x="153" y="60" type="line"/>
      <point x="153" y="-116" type="line"/>
      <point x="208" y="-116" type="line" smooth="yes"/>
      <point x="243" y="-116"/>
      <point x="264" y="-123"/>
      <point x="264" y="-153" type="curve" smooth="yes"/>
      <point x="264" y="-183"/>
      <point x="243" y="-190"/>
      <point x="208" y="-190" type="curve" smooth="yes"/>
      <point x="99" y="-190" type="line"/>
      <point x="99" y="-262" type="line"/>
      <point x="231" y="-262" type="line" smooth="yes"/>
      <point x="302" y="-262"/>
      <point x="358" y="-221"/>
      <point x="358" y="-153" type="curve" smooth="yes"/>
      <point x="358" y="-84"/>
      <point x="302" y="-48"/>
      <point x="228" y="-48" type="curve"/>
    </contour>
  </outline>
</glyph>
<glyph name="Uogonek" format="1">
  <advance width="690"/>
  <unicode hex="0172"/>
  <outline>
    <contour>
      <point x="74" y="254" type="line"/>
      <point x="74" y="99"/>
      <point x="170" y="15"/>
      <point x="292" y="-3" type="curve"/>
      <point x="288" y="-13"/>
      <point x="286" y="-24"/>
      <point x="286" y="-36" type="curve" smooth="yes"/>
      <point x="286" y="-105"/>
      <point x="343" y="-145"/>
      <point x="414" y="-145" type="curve" smooth="yes"/>
      <point x="520" y="-145" type="line"/>
      <point x="520" y="-74" type="line"/>
      <point x="428" y="-74" type="line" smooth="yes"/>
      <point x="396" y="-74"/>
      <point x="380" y="-61"/>
      <point x="380" y="-37" type="curve" smooth="yes"/>
      <point x="380" y="-16"/>
      <point x="395" y="-6"/>
      <point x="440" y="6" type="curve" smooth="yes"/>
      <point x="522" y="30"/>
      <point x="617" y="100"/>
      <point x="617" y="254" type="curve" smooth="yes"/>
      <point x="617" y="695" type="line"/>
      <point x="503" y="695" type="line"/>
      <point x="503" y="254" type="line" smooth="yes"/>
      <point x="503" y="146"/>
      <point x="442" y="95"/>
      <point x="345" y="95" type="curve" smooth="yes"/>
      <point x="249" y="95"/>
      <point x="188" y="146"/>
      <point x="188" y="254" type="curve" smooth="yes"/>
      <point x="188" y="695" type="line"/>
      <point x="74" y="695" type="line"/>
    </contour>
  </outline>
</glyph>
<glyph name="florin" format="1">
  <advance width="332"/>
  <unicode hex="0192"/>
  <outline>
    <contour>
      <point x="12" y="458" type="line"/>
      <point x="294" y="458" type="line"/>
      <point x="303" y="551" type="line"/>
      <point x="21" y="551" type="line"/>
    </contour>
    <contour>
      <point x="91" y="590" type="curve" smooth="yes"/>
      <point x="22" y="-64" type="line" smooth="yes"/>
      <point x="18" y="-106"/>
      <point x="2" y="-123"/>
      <point x="-30" y="-123" type="curve" smooth="yes"/>
      <point x="-46" y="-123" type="line"/>
      <point x="-56" y="-217" type="line"/>
      <point x="-34" y="-217" type="line" smooth="yes"/>
      <point x="64" y="-217"/>
      <point x="125" y="-177"/>
      <point x="136" y="-64" type="curve" smooth="yes"/>
      <point x="206" y="590" type="line" smooth="yes"/>
      <point x="212" y="653"/>
      <point x="239" y="677"/>
      <point x="309" y="677" type="curve"/>
      <point x="319" y="772" type="line"/>
      <point x="175" y="772"/>
      <point x="105" y="717"/>
    </contour>
  </outline>
</glyph>
<glyph name="circumflex" format="1">
  <advance width="306"/>
  <unicode hex="02C6"/>
  <outline>
    <contour>
      <point x="153" y="551" type="move" name="_top"/>
    </contour>
    <contour>
      <point x="296" y="685" type="line"/>
      <point x="153" y="768" type="line"/>
      <point x="10" y="685" type="line"/>
      <point x="10" y="596" type="line"/>
      <point x="153" y="682" type="line"/>
      <point x="296" y="596" type="line"/>
    </contour>
  </outline>
</glyph>
<glyph name="caron" format="1">
  <advance width="306"/>
  <unicode hex="02C7"/>
  <outline>
    <contour>
      <point x="153" y="551" type="move" name="_top"/>
    </contour>
    <contour>
      <point x="153" y="682" type="line"/>
      <point x="10" y="768" type="line"/>
      <point x="10" y="679" type="line"/>
      <point x="153" y="596" type="line"/>
      <point x="296" y="679" type="line"/>
      <point x="296" y="768" type="line"/>
    </contour>
  </outline>
</glyph>
<glyph name="breve" format="1">
  <advance width="321"/>
  <unicode hex="02D8"/>
  <outline>
    <contour>
      <point x="160" y="551" type="move" name="_top"/>
    </contour>
    <contour>
      <point x="311" y="747" type="curve" smooth="yes"/>
      <point x="311" y="769" type="line"/>
      <point x="245" y="769" type="line"/>
      <point x="245" y="724"/>
      <point x="225" y="697"/>
      <point x="160" y="697" type="curve" smooth="yes"/>
      <point x="95" y="697"/>
      <point x="75" y="724"/>
      <point x="75" y="769" type="curve"/>
      <point x="10" y="769" type="line"/>
      <point x="10" y="748" type="line" smooth="yes"/>
      <point x="10" y="665"/>
      <point x="66" y="608"/>
      <point x="160" y="608" type="curve" smooth="yes"/>
      <point x="255" y="608"/>
      <point x="311" y="664"/>
    </contour>
  </outline>
</glyph>
<glyph name="dotaccent" format="1">
  <advance width="140"/>
  <unicode hex="02D9"/>
  <outline>
    <contour>
      <point x="70" y="551" type="move" name="_top"/>
    </contour>
    <contour>
      <point x="70" y="620" type="curve" smooth="yes"/>
      <point x="103" y="620"/>
      <point x="130" y="646"/>
      <point x="130" y="680" type="curve" smooth="yes"/>
      <point x="130" y="713"/>
      <point x="103" y="740"/>
      <point x="70" y="740" type="curve" smooth="yes"/>
      <point x="36" y="740"/>
      <point x="10" y="713"/>
      <point x="10" y="680" type="curve" smooth="yes"/>
      <point x="10" y="646"/>
      <point x="36" y="620"/>
    </contour>
  </outline>
</glyph>
<glyph name="ring" format="1">
  <advance width="238"/>
  <unicode hex="02DA"/>
  <outline>
    <contour>
      <point x="119" y="551" type="move" name="_top"/>
    </contour>
    <contour>
      <point x="10" y="714" type="curve" smooth="yes"/>
      <point x="10" y="647"/>
      <point x="59" y="605"/>
      <point x="119" y="605" type="curve" smooth="yes"/>
      <point x="180" y="605"/>
      <point x="228" y="647"/>
      <point x="228" y="714" type="curve" smooth="yes"/>
      <point x="228" y="782"/>
      <point x="180" y="824"/>
      <point x="119" y="824" type="curve" smooth="yes"/>
      <point x="59" y="824"/>
      <point x="10" y="782"/>
    </contour>
    <contour>
      <point x="171" y="715" type="curve" smooth="yes"/>
      <point x="171" y="685"/>
      <point x="148" y="664"/>
      <point x="119" y="664" type="curve" smooth="yes"/>
      <point x="91" y="664"/>
      <point x="68" y="685"/>
      <point x="68" y="715" type="curve" smooth="yes"/>
      <point x="68" y="746"/>
      <point x="91" y="766"/>
      <point x="119" y="766" type="curve" smooth="yes"/>
      <point x="148" y="766"/>
      <point x="171" y="746"/>
    </contour>
  </outline>
</glyph>
<glyph name="ogonek" format="1">
  <advance width="265"/>
  <unicode hex="02DB"/>
  <outline>
    <contour>
      <point x="209" y="0" type="move" name="_ogonek"/>
    </contour>
    <contour>
      <point x="10" y="-96" type="curve" smooth="yes"/>
      <point x="10" y="-165"/>
      <point x="67" y="-205"/>
      <point x="138" y="-205" type="curve" smooth="yes"/>
      <point x="244" y="-205" type="line"/>
      <point x="244" y="-133" type="line"/>
      <point x="160" y="-133" type="line" smooth="yes"/>
      <point x="125" y="-133"/>
      <point x="104" y="-126"/>
      <point x="104" y="-96" type="curve" smooth="yes"/>
      <point x="104" y="-66"/>
      <point x="125" y="-60"/>
      <point x="160" y="-60" type="curve" smooth="yes"/>
      <point x="209" y="-60" type="line"/>
      <point x="209" y="9" type="line"/>
      <point x="140" y="9" type="line"/>
      <point x="67" y="9"/>
      <point x="10" y="-27"/>
    </contour>
  </outline>
</glyph>
<glyph name="tilde" format="1">
  <advance width="356"/>
  <unicode hex="02DC"/>
  <outline>
    <contour>
      <point x="173" y="551" type="move" name="_top"/>
    </contour>
    <contour>
      <point x="10" y="608" type="curve"/>
      <point x="74" y="608" type="line"/>
      <point x="78" y="637"/>
      <point x="95" y="651"/>
      <point x="117" y="651" type="curve" smooth="yes"/>
      <point x="157" y="651"/>
      <point x="179" y="606"/>
      <point x="233" y="606" type="curve" smooth="yes"/>
      <point x="291" y="606"/>
      <point x="335" y="644"/>
      <point x="346" y="723" type="curve"/>
      <point x="282" y="723" type="line"/>
      <point x="278" y="694"/>
      <point x="261" y="681"/>
      <point x="239" y="681" type="curve" smooth="yes"/>
      <point x="199" y="681"/>
      <point x="177" y="725"/>
      <point x="123" y="725" type="curve" smooth="yes"/>
      <point x="65" y="725"/>
      <point x="21" y="687"/>
    </contour>
  </outline>
</glyph>
<glyph name="hungarumlaut" format="1">
  <advance width="365"/>
  <unicode hex="02DD"/>
  <outline>
    <contour>
      <point x="138" y="551" type="move" name="_top"/>
    </contour>
    <contour>
      <point x="257" y="771" type="line"/>
      <point x="173" y="601" type="line"/>
      <point x="247" y="601" type="line"/>
      <point x="355" y="771" type="line"/>
    </contour>
    <contour>
      <point x="79" y="771" type="line"/>
      <point x="10" y="601" type="line"/>
      <point x="84" y="601" type="line"/>
      <point x="178" y="771" type="line"/>
    </contour>
  </outline>
</glyph>
<glyph name="pi" format="1">
  <advance width="706"/>
  <unicode hex="03C0"/>
  <outline>
    <contour>
      <point x="31" y="462" type="line"/>
      <point x="107" y="462" type="line"/>
      <point x="107" y="0" type="line"/>
      <point x="221" y="0" type="line"/>
      <point x="221" y="462" type="line"/>
      <point x="480" y="462" type="line"/>
      <point x="480" y="0" type="line"/>
      <point x="593" y="0" type="line"/>
      <point x="593" y="462" type="line"/>
      <point x="670" y="462" type="line"/>
      <point x="670" y="551" type="line"/>
      <point x="31" y="551" type="line"/>
    </contour>
  </outline>
</glyph>
<glyph name="dvCandrabindu" format="1">
  <advance width="0"/>
  <unicode hex="0901"/>
  <outline>
    <contour>
      <point x="-89" y="740" type="move" name="_abvm.e"/>
    </contour>
    <contour>
      <point x="59" y="1003" type="curve"/>
      <point x="-33" y="1003" type="line"/>
      <point x="-33" y="949"/>
      <point x="-68" y="898"/>
      <point x="-146" y="898" type="curve" smooth="yes"/>
      <point x="-225" y="898"/>
      <point x="-260" y="949"/>
      <point x="-260" y="1003" type="curve"/>
      <point x="-351" y="1003" type="line"/>
      <point x="-351" y="897"/>
      <point x="-289" y="815"/>
      <point x="-146" y="815" type="curve" smooth="yes"/>
      <point x="-4" y="815"/>
      <point x="59" y="897"/>
    </contour>
    <contour>
      <point x="-147" y="974" type="curve" smooth="yes"/>
      <point x="-115" y="974"/>
      <point x="-90" y="999"/>
      <point x="-90" y="1031" type="curve" smooth="yes"/>
      <point x="-90" y="1062"/>
      <point x="-115" y="1088"/>
      <point x="-147" y="1088" type="curve" smooth="yes"/>
      <point x="-177" y="1088"/>
      <point x="-203" y="1062"/>
      <point x="-203" y="1031" type="curve" smooth="yes"/>
      <point x="-203" y="999"/>
      <point x="-177" y="974"/>
    </contour>
  </outline>
</glyph>
<glyph name="dvAnusvara" format="1">
  <advance width="0"/>
  <unicode hex="0902"/>
  <outline>
    <contour>
      <point x="-89" y="740" type="move" name="_abvm.e"/>
    </contour>
    <contour>
      <point x="-143" y="840" type="curve" smooth="yes"/>
      <point x="-105" y="840"/>
      <point x="-74" y="870"/>
      <point x="-74" y="908" type="curve" smooth="yes"/>
      <point x="-74" y="947"/>
      <point x="-105" y="978"/>
      <point x="-143" y="978" type="curve" smooth="yes"/>
      <point x="-181" y="978"/>
      <point x="-212" y="947"/>
      <point x="-212" y="908" type="curve" smooth="yes"/>
      <point x="-212" y="870"/>
      <point x="-181" y="840"/>
    </contour>
  </outline>
</glyph>
<glyph name="dvVisarga" format="1">
  <advance width="185"/>
  <unicode hex="0903"/>
  <outline>
    <contour>
      <point x="92" y="431" type="curve" smooth="yes"/>
      <point x="127" y="431"/>
      <point x="154" y="459"/>
      <point x="154" y="492" type="curve" smooth="yes"/>
      <point x="154" y="526"/>
      <point x="127" y="553"/>
      <point x="92" y="553" type="curve" smooth="yes"/>
      <point x="59" y="553"/>
      <point x="32" y="526"/>
      <point x="32" y="492" type="curve" smooth="yes"/>
      <point x="32" y="459"/>
      <point x="59" y="431"/>
    </contour>
    <contour>
      <point x="92" y="136" type="curve" smooth="yes"/>
      <point x="127" y="136"/>
      <point x="154" y="163"/>
      <point x="154" y="197" type="curve" smooth="yes"/>
      <point x="154" y="231"/>
      <point x="127" y="258"/>
      <point x="92" y="258" type="curve" smooth="yes"/>
      <point x="59" y="258"/>
      <point x="32" y="231"/>
      <point x="32" y="197" type="curve" smooth="yes"/>
      <point x="32" y="163"/>
      <point x="59" y="136"/>
    </contour>
  </outline>
</glyph>
<glyph name="dvA" format="1">
  <advance width="841"/>
  <unicode hex="0905"/>
  <outline>
    <contour>
      <point x="643" y="0" type="line"/>
      <point x="752" y="0" type="line"/>
      <point x="752" y="645" type="line"/>
      <point x="872" y="645" type="line"/>
      <point x="872" y="740" type="line"/>
      <point x="643" y="740" type="line"/>
      <point x="643" y="398" type="line"/>
      <point x="404" y="398" type="line"/>
      <point x="418" y="306" type="line"/>
      <point x="643" y="306" type="line"/>
    </contour>
    <contour>
      <point x="253" y="463" type="line"/>
      <point x="253" y="366" type="line"/>
      <point x="253" y="366"/>
      <point x="283" y="366"/>
      <point x="287" y="366" type="curve" smooth="yes"/>
      <point x="367" y="366"/>
      <point x="415" y="332"/>
      <point x="415" y="261" type="curve" smooth="yes"/>
      <point x="415" y="193"/>
      <point x="373" y="149"/>
      <point x="304" y="149" type="curve" smooth="yes"/>
      <point x="235" y="149"/>
      <point x="189" y="194"/>
      <point x="189" y="261" type="curve"/>
      <point x="86" y="261" type="line"/>
      <point x="86" y="133"/>
      <point x="176" y="56"/>
      <point x="303" y="56" type="curve" smooth="yes"/>
      <point x="428" y="56"/>
      <point x="517" y="131"/>
      <point x="517" y="261" type="curve" smooth="yes"/>
      <point x="517" y="330"/>
      <point x="478" y="392"/>
      <point x="407" y="415" type="curve"/>
      <point x="407" y="420" type="line"/>
      <point x="470" y="442"/>
      <point x="506" y="495"/>
      <point x="506" y="565" type="curve" smooth="yes"/>
      <point x="506" y="678"/>
      <point x="422" y="750"/>
      <point x="302" y="750" type="curve" smooth="yes"/>
      <point x="183" y="750"/>
      <point x="94" y="674"/>
      <point x="94" y="558" type="curve"/>
      <point x="196" y="558" type="line"/>
      <point x="197" y="617"/>
      <point x="239" y="656"/>
      <point x="301" y="656" type="curve" smooth="yes"/>
      <point x="365" y="656"/>
      <point x="403" y="616"/>
      <point x="403" y="559" type="curve" smooth="yes"/>
      <point x="403" y="494"/>
      <point x="351" y="463"/>
      <point x="285" y="463" type="curve" smooth="yes"/>
    </contour>
  </outline>
</glyph>
<glyph name="dvI" format="1">
  <advance width="592"/>
  <unicode hex="0907"/>
  <outline>
    <contour>
      <point x="623" y="645" type="line"/>
      <point x="623" y="740" type="line"/>
      <point x="-31" y="740" type="line"/>
      <point x="-31" y="645" type="line"/>
    </contour>
    <contour>
      <point x="376" y="505" type="line"/>
      <point x="485" y="505" type="line"/>
      <point x="485" y="718" type="line"/>
      <point x="376" y="718" type="line"/>
    </contour>
    <contour>
      <point x="101" y="-79" type="line"/>
      <point x="205" y="-79" type="line"/>
      <point x="205" y="44" type="line"/>
      <point x="236" y="6"/>
      <point x="288" y="-14"/>
      <point x="352" y="-14" type="curve" smooth="yes"/>
      <point x="473" y="-14"/>
      <point x="546" y="59"/>
      <point x="546" y="159" type="curve" smooth="yes"/>
      <point x="546" y="302"/>
      <point x="432" y="325"/>
      <point x="323" y="325" type="curve" smooth="yes"/>
      <point x="256" y="325"/>
      <point x="206" y="333"/>
      <point x="206" y="394" type="curve" smooth="yes"/>
      <point x="206" y="451"/>
      <point x="260" y="461"/>
      <point x="325" y="461" type="curve" smooth="yes"/>
      <point x="485" y="461" type="line"/>
      <point x="485" y="538" type="line"/>
      <point x="401" y="552" type="line"/>
      <point x="303" y="552" type="line" smooth="yes"/>
      <point x="197" y="552"/>
      <point x="97" y="515"/>
      <point x="97" y="399" type="curve" smooth="yes"/>
      <point x="97" y="262"/>
      <point x="205" y="237"/>
      <point x="315" y="237" type="curve" smooth="yes"/>
      <point x="380" y="237"/>
      <point x="439" y="230"/>
      <point x="439" y="161" type="curve" smooth="yes"/>
      <point x="439" y="102"/>
      <point x="395" y="75"/>
      <point x="330" y="75" type="curve" smooth="yes"/>
      <point x="248" y="75"/>
      <point x="209" y="120"/>
      <point x="205" y="192" type="curve"/>
      <point x="101" y="192" type="line"/>
    </contour>
  </outline>
</glyph>
<glyph name="dvII" format="1">
  <advance width="592"/>
  <unicode hex="0908"/>
  <outline>
    <contour>
      <point x="623" y="645" type="line"/>
      <point x="623" y="740" type="line"/>
      <point x="-31" y="740" type="line"/>
      <point x="-31" y="645" type="line"/>
    </contour>
    <contour>
      <point x="376" y="505" type="line"/>
      <point x="485" y="505" type="line"/>
      <point x="485" y="718" type="line"/>
      <point x="376" y="718" type="line"/>
    </contour>
    <contour>
      <point x="101" y="-79" type="line"/>
      <point x="205" y="-79" type="line"/>
      <point x="205" y="44" type="line"/>
      <point x="236" y="6"/>
      <point x="288" y="-14"/>
      <point x="352" y="-14" type="curve" smooth="yes"/>
      <point x="473" y="-14"/>
      <point x="546" y="59"/>
      <point x="546" y="159" type="curve" smooth="yes"/>
      <point x="546" y="302"/>
      <point x="432" y="325"/>
      <point x="323" y="325" type="curve" smooth="yes"/>
      <point x="256" y="325"/>
      <point x="206" y="333"/>
      <point x="206" y="394" type="curve" smooth="yes"/>
      <point x="206" y="451"/>
      <point x="260" y="461"/>
      <point x="325" y="461" type="curve" smooth="yes"/>
      <point x="485" y="461" type="line"/>
      <point x="485" y="538" type="line"/>
      <point x="408" y="552" type="line"/>
      <point x="303" y="552" type="line" smooth="yes"/>
      <point x="197" y="552"/>
      <point x="97" y="515"/>
      <point x="97" y="399" type="curve" smooth="yes"/>
      <point x="97" y="262"/>
      <point x="205" y="237"/>
      <point x="315" y="237" type="curve" smooth="yes"/>
      <point x="380" y="237"/>
      <point x="439" y="230"/>
      <point x="439" y="161" type="curve" smooth="yes"/>
      <point x="439" y="102"/>
      <point x="395" y="75"/>
      <point x="330" y="75" type="curve" smooth="yes"/>
      <point x="248" y="75"/>
      <point x="209" y="120"/>
      <point x="205" y="192" type="curve"/>
      <point x="101" y="192" type="line"/>
    </contour>
    <contour>
      <point x="382" y="827" type="curve" smooth="yes"/>
      <point x="382" y="808"/>
      <point x="382" y="731"/>
      <point x="382" y="712" type="curve"/>
      <point x="478" y="712" type="line"/>
      <point x="478" y="828" type="line" smooth="yes"/>
      <point x="478" y="909"/>
      <point x="498" y="953"/>
      <point x="557" y="953" type="curve" smooth="yes"/>
      <point x="612" y="953"/>
      <point x="631" y="918"/>
      <point x="632" y="862" type="curve"/>
      <point x="725" y="862" type="line"/>
      <point x="725" y="972"/>
      <point x="668" y="1043"/>
      <point x="558" y="1043" type="curve" smooth="yes"/>
      <point x="423" y="1043"/>
      <point x="382" y="950"/>
    </contour>
  </outline>
</glyph>
<glyph name="dvU" format="1">
  <advance width="577"/>
  <unicode hex="0909"/>
  <outline>
    <contour>
      <point x="487" y="708" type="line"/>
      <point x="385" y="701" type="line"/>
      <point x="385" y="615" type="line"/>
      <point x="385" y="514"/>
      <point x="362" y="446"/>
      <point x="265" y="446" type="curve" smooth="yes"/>
      <point x="231" y="446" type="line"/>
      <point x="231" y="349" type="line"/>
      <point x="231" y="349"/>
      <point x="265" y="349"/>
      <point x="270" y="349" type="curve" smooth="yes"/>
      <point x="350" y="349"/>
      <point x="415" y="311"/>
      <point x="415" y="224" type="curve" smooth="yes"/>
      <point x="415" y="152"/>
      <point x="369" y="103"/>
      <point x="296" y="103" type="curve" smooth="yes"/>
      <point x="219" y="103"/>
      <point x="161" y="161"/>
      <point x="161" y="240" type="curve"/>
      <point x="60" y="240" type="line"/>
      <point x="60" y="100"/>
      <point x="153" y="8"/>
      <point x="295" y="8" type="curve" smooth="yes"/>
      <point x="431" y="8"/>
      <point x="516" y="90"/>
      <point x="516" y="224" type="curve" smooth="yes"/>
      <point x="516" y="312"/>
      <point x="466" y="373"/>
      <point x="395" y="398" type="curve"/>
      <point x="395" y="402" type="line"/>
      <point x="474" y="440"/>
      <point x="487" y="514"/>
      <point x="487" y="618" type="curve"/>
    </contour>
    <contour>
      <point x="608" y="645" type="line"/>
      <point x="608" y="740" type="line"/>
      <point x="-34" y="740" type="line"/>
      <point x="-34" y="645" type="line"/>
    </contour>
  </outline>
</glyph>
<glyph name="dvUU" format="1">
  <advance width="853"/>
  <unicode hex="090A"/>
  <outline>
    <contour>
      <point x="487" y="708" type="line"/>
      <point x="385" y="701" type="line"/>
      <point x="385" y="615" type="line" smooth="yes"/>
      <point x="385" y="514"/>
      <point x="362" y="446"/>
      <point x="265" y="446" type="curve" smooth="yes"/>
      <point x="230" y="446" type="line"/>
      <point x="230" y="349" type="line"/>
      <point x="230" y="349"/>
      <point x="265" y="349"/>
      <point x="269" y="349" type="curve" smooth="yes"/>
      <point x="349" y="349"/>
      <point x="415" y="311"/>
      <point x="415" y="224" type="curve" smooth="yes"/>
      <point x="415" y="151"/>
      <point x="369" y="103"/>
      <point x="295" y="103" type="curve" smooth="yes"/>
      <point x="218" y="103"/>
      <point x="161" y="161"/>
      <point x="161" y="240" type="curve"/>
      <point x="60" y="240" type="line"/>
      <point x="60" y="100"/>
      <point x="153" y="8"/>
      <point x="295" y="8" type="curve" smooth="yes"/>
      <point x="430" y="8"/>
      <point x="516" y="90"/>
      <point x="516" y="224" type="curve" smooth="yes"/>
      <point x="516" y="311"/>
      <point x="463" y="370"/>
      <point x="394" y="395" type="curve"/>
      <point x="394" y="401" type="line"/>
      <point x="473" y="439"/>
      <point x="487" y="513"/>
      <point x="487" y="618" type="curve" smooth="yes"/>
    </contour>
    <contour>
      <point x="884" y="645" type="line"/>
      <point x="884" y="740" type="line"/>
      <point x="-31" y="740" type="line"/>
      <point x="-31" y="645" type="line"/>
    </contour>
    <contour>
      <point x="383" y="395" type="line"/>
      <point x="420" y="304" type="line"/>
      <point x="563" y="304" type="line"/>
      <point x="579" y="304" type="line"/>
      <point x="653" y="304"/>
      <point x="704" y="284"/>
      <point x="704" y="206" type="curve" smooth="yes"/>
      <point x="704" y="119"/>
      <point x="647" y="102"/>
      <point x="554" y="110" type="curve"/>
      <point x="554" y="24" type="line"/>
      <point x="704" y="9"/>
      <point x="810" y="57"/>
      <point x="810" y="207" type="curve"/>
      <point x="810" y="343"/>
      <point x="719" y="395"/>
      <point x="579" y="395" type="curve"/>
      <point x="562" y="395" type="line"/>
    </contour>
  </outline>
</glyph>
<glyph name="dvvR" format="1">
  <advance width="998"/>
  <unicode hex="090B"/>
  <outline>
    <contour>
      <point x="480" y="0" type="line"/>
      <point x="588" y="0" type="line"/>
      <point x="588" y="190"/>
      <point x="588" y="645"/>
      <point x="588" y="645" type="curve"/>
      <point x="1030" y="645" type="line"/>
      <point x="1030" y="740" type="line"/>
      <point x="-31" y="740" type="line"/>
      <point x="-31" y="645" type="line"/>
      <point x="480" y="645" type="line"/>
    </contour>
    <contour>
      <point x="172" y="290" type="line"/>
      <point x="172" y="391"/>
      <point x="230" y="459"/>
      <point x="327" y="459" type="curve" smooth="yes"/>
      <point x="424" y="459"/>
      <point x="480" y="392"/>
      <point x="480" y="294" type="curve"/>
      <point x="531" y="277" type="line"/>
      <point x="538" y="420"/>
      <point x="473" y="553"/>
      <point x="309" y="553" type="curve" smooth="yes"/>
      <point x="157" y="553"/>
      <point x="64" y="446"/>
      <point x="64" y="290" type="curve"/>
    </contour>
    <contour>
      <point x="106" y="6" type="curve"/>
      <point x="106" y="0" type="line"/>
      <point x="247" y="0" type="line"/>
      <point x="521" y="284" type="line"/>
      <point x="478" y="360" type="line"/>
      <point x="478" y="360"/>
      <point x="127" y="26"/>
    </contour>
    <contour>
      <point x="813" y="554" type="line"/>
      <point x="813" y="212" type="line"/>
      <point x="912" y="217" type="line"/>
      <point x="912" y="554" type="line"/>
    </contour>
    <contour>
      <point x="909" y="288" type="line"/>
      <point x="873" y="288" type="line" smooth="yes"/>
      <point x="755" y="288"/>
      <point x="678" y="224"/>
      <point x="678" y="117" type="curve" smooth="yes"/>
      <point x="678" y="-4"/>
      <point x="769" y="-61"/>
      <point x="883" y="-61" type="curve" smooth="yes"/>
      <point x="906" y="-61"/>
      <point x="932" y="-58"/>
      <point x="954" y="-52" type="curve"/>
      <point x="954" y="35" type="line"/>
      <point x="933" y="29"/>
      <point x="912" y="27"/>
      <point x="891" y="27" type="curve" smooth="yes"/>
      <point x="832" y="27"/>
      <point x="781" y="53"/>
      <point x="781" y="119" type="curve" smooth="yes"/>
      <point x="781" y="176"/>
      <point x="815" y="210"/>
      <point x="887" y="212" type="curve" smooth="yes"/>
      <point x="889" y="212"/>
      <point x="909" y="212"/>
      <point x="912" y="212" type="curve"/>
    </contour>
    <contour>
      <point x="757" y="379" type="line"/>
      <point x="870" y="379"/>
      <point x="912" y="420"/>
      <point x="912" y="530" type="curve" smooth="yes"/>
      <point x="912" y="566" type="line"/>
      <point x="813" y="566" type="line"/>
      <point x="813" y="531" type="line" smooth="yes"/>
      <point x="813" y="486"/>
      <point x="805" y="470"/>
      <point x="757" y="470" type="curve" smooth="yes"/>
      <point x="555" y="470" type="line"/>
      <point x="555" y="379" type="line"/>
    </contour>
  </outline>
</glyph>
<glyph name="dvvL" format="1">
  <advance width="908"/>
  <unicode hex="090C"/>
  <outline>
    <contour>
      <point x="814" y="-71" type="curve" smooth="yes"/>
      <point x="837" y="-71"/>
      <point x="864" y="-68"/>
      <point x="886" y="-62" type="curve"/>
      <point x="886" y="25" type="line"/>
      <point x="865" y="20"/>
      <point x="844" y="17"/>
      <point x="823" y="17" type="curve" smooth="yes"/>
      <point x="763" y="17"/>
      <point x="713" y="44"/>
      <point x="713" y="109" type="curve"/>
      <point x="713" y="167"/>
      <point x="747" y="202"/>
      <point x="820" y="202" type="curve" smooth="yes"/>
      <point x="822" y="202"/>
      <point x="837" y="202"/>
      <point x="839" y="202" type="curve"/>
      <point x="844" y="228"/>
      <point x="847" y="253"/>
      <point x="847" y="279" type="curve" smooth="yes"/>
      <point x="847" y="414"/>
      <point x="780" y="492"/>
      <point x="681" y="509" type="curve"/>
      <point x="681" y="645" type="line"/>
      <point x="939" y="645" type="line"/>
      <point x="939" y="740" type="line"/>
      <point x="-31" y="740" type="line"/>
      <point x="-31" y="645" type="line"/>
      <point x="576" y="645" type="line"/>
      <point x="576" y="500" type="line"/>
      <point x="520" y="488"/>
      <point x="480" y="453"/>
      <point x="463" y="398" type="curve"/>
      <point x="437" y="471"/>
      <point x="374" y="513"/>
      <point x="287" y="513" type="curve" smooth="yes"/>
      <point x="152" y="513"/>
      <point x="76" y="423"/>
      <point x="76" y="270" type="curve" smooth="yes"/>
      <point x="76" y="105"/>
      <point x="184" y="2"/>
      <point x="359" y="17" type="curve"/>
      <point x="359" y="114" type="line"/>
      <point x="246" y="106"/>
      <point x="185" y="164"/>
      <point x="185" y="271" type="curve" smooth="yes"/>
      <point x="185" y="355"/>
      <point x="215" y="416"/>
      <point x="297" y="416" type="curve" smooth="yes"/>
      <point x="397" y="416"/>
      <point x="417" y="323"/>
      <point x="411" y="220" type="curve"/>
      <point x="513" y="220" type="line"/>
      <point x="507" y="323"/>
      <point x="526" y="416"/>
      <point x="629" y="416" type="curve"/>
      <point x="721" y="416"/>
      <point x="743" y="338"/>
      <point x="740" y="268" type="curve"/>
      <point x="660" y="252"/>
      <point x="611" y="191"/>
      <point x="611" y="106" type="curve" smooth="yes"/>
      <point x="611" y="-15"/>
      <point x="700" y="-71"/>
    </contour>
  </outline>
</glyph>
<glyph name="dvEcandra" format="1">
  <advance width="645"/>
  <unicode hex="090D"/>
  <outline>
    <contour>
      <point x="349" y="1011" type="curve"/>
      <point x="256" y="1011" type="line"/>
      <point x="256" y="932"/>
      <point x="275" y="870"/>
      <point x="324" y="870" type="curve" smooth="yes"/>
      <point x="372" y="870"/>
      <point x="392" y="932"/>
      <point x="392" y="1011" type="curve"/>
      <point x="298" y="1011" type="line"/>
      <point x="298" y="916"/>
      <point x="309" y="848"/>
      <point x="324" y="848" type="curve" smooth="yes"/>
      <point x="341" y="848"/>
      <point x="349" y="916"/>
    </contour>
    <component base="dvE" xOffset="-21"/>
  </outline>
</glyph>
<glyph name="dvE" format="1">
  <advance width="668"/>
  <unicode hex="090F"/>
  <outline>
    <contour>
      <point x="699" y="645" type="line"/>
      <point x="699" y="740" type="line"/>
      <point x="-31" y="740" type="line"/>
      <point x="-31" y="645" type="line"/>
    </contour>
    <contour>
      <point x="588" y="676" type="line"/>
      <point x="478" y="676" type="line"/>
      <point x="478" y="528" type="line" smooth="yes"/>
      <point x="478" y="432"/>
      <point x="452" y="413"/>
      <point x="368" y="412" type="curve"/>
      <point x="368" y="312" type="line"/>
      <point x="520" y="310"/>
      <point x="588" y="368"/>
      <point x="588" y="528" type="curve" smooth="yes"/>
    </contour>
    <contour>
      <point x="108" y="269" type="line"/>
      <point x="108" y="123"/>
      <point x="181" y="19"/>
      <point x="354" y="19" type="curve" smooth="yes"/>
      <point x="497" y="19"/>
      <point x="588" y="100"/>
      <point x="588" y="241" type="curve"/>
      <point x="481" y="241" type="line"/>
      <point x="481" y="157"/>
      <point x="436" y="114"/>
      <point x="351" y="114" type="curve" smooth="yes"/>
      <point x="260" y="114"/>
      <point x="217" y="164"/>
      <point x="217" y="261" type="curve" smooth="yes"/>
      <point x="217" y="723" type="line"/>
      <point x="107" y="723" type="line"/>
    </contour>
  </outline>
</glyph>
<glyph name="dvOcandra" format="1">
  <advance width="1138"/>
  <unicode hex="0911"/>
  <outline>
    <contour>
      <point x="1067" y="1003" type="curve"/>
      <point x="973" y="1003" type="line"/>
      <point x="973" y="949"/>
      <point x="946" y="899"/>
      <point x="867" y="899" type="curve"/>
      <point x="789" y="899"/>
      <point x="762" y="949"/>
      <point x="762" y="1003" type="curve"/>
      <point x="668" y="1003" type="line"/>
      <point x="668" y="897"/>
      <point x="721" y="815"/>
      <point x="867" y="815" type="curve"/>
      <point x="1014" y="815"/>
      <point x="1067" y="897"/>
    </contour>
    <component base="dvA" xOffset="10"/>
    <component base="dvmAA" xOffset="851"/>
  </outline>
</glyph>
<glyph name="dvKA" format="1">
  <advance width="1004"/>
  <unicode hex="0915"/>
  <outline>
    <contour>
      <point x="569" y="0" type="move" name="blwm.virama"/>
    </contour>
    <contour>
      <point x="569" y="740" type="move" name="abvm.e"/>
    </contour>
    <contour>
      <point x="569" y="0" type="move" name="blwm.u"/>
    </contour>
    <contour>
      <point x="302" y="94" type="curve" smooth="yes"/>
      <point x="446" y="94"/>
      <point x="509" y="201"/>
      <point x="495" y="318" type="curve"/>
      <point x="463" y="326" type="line"/>
      <point x="463" y="243"/>
      <point x="415" y="189"/>
      <point x="328" y="189" type="curve" smooth="yes"/>
      <point x="242" y="189"/>
      <point x="191" y="239"/>
      <point x="191" y="325" type="curve"/>
      <point x="191" y="411"/>
      <point x="240" y="462"/>
      <point x="327" y="462" type="curve" smooth="yes"/>
      <point x="412" y="462"/>
      <point x="463" y="411"/>
      <point x="463" y="325" type="curve"/>
      <point x="495" y="332" type="line"/>
      <point x="510" y="450"/>
      <point x="445" y="558"/>
      <point x="302" y="558" type="curve" smooth="yes"/>
      <point x="166" y="558"/>
      <point x="82" y="457"/>
      <point x="82" y="325" type="curve"/>
      <point x="82" y="194"/>
      <point x="167" y="94"/>
    </contour>
    <contour>
      <point x="657" y="105" type="line"/>
      <point x="815" y="82"/>
      <point x="938" y="168"/>
      <point x="938" y="325" type="curve" smooth="yes"/>
      <point x="938" y="457"/>
      <point x="859" y="558"/>
      <point x="721" y="558" type="curve" smooth="yes"/>
      <point x="580" y="558"/>
      <point x="522" y="447"/>
      <point x="539" y="323" type="curve"/>
      <point x="569" y="310" type="line"/>
      <point x="569" y="404"/>
      <point x="611" y="463"/>
      <point x="695" y="463" type="curve" smooth="yes"/>
      <point x="784" y="463"/>
      <point x="829" y="409"/>
      <point x="829" y="325" type="curve" smooth="yes"/>
      <point x="829" y="230"/>
      <point x="761" y="183"/>
      <point x="656" y="195" type="curve"/>
    </contour>
    <contour>
      <point x="1036" y="740" type="line"/>
      <point x="-31" y="740" type="line"/>
      <point x="-31" y="645" type="line"/>
      <point x="463" y="645" type="line"/>
      <point x="463" y="0" type="line"/>
      <point x="569" y="0" type="line"/>
      <point x="569" y="190"/>
      <point x="569" y="645"/>
      <point x="569" y="645" type="curve"/>
      <point x="1036" y="645" type="line"/>
    </contour>
  </outline>
</glyph>
<glyph name="dvKHA" format="1">
  <advance width="928"/>
  <unicode hex="0916"/>
  <outline>
    <contour>
      <point x="188" y="328" type="line"/>
      <point x="333" y="337"/>
      <point x="368" y="395"/>
      <point x="368" y="586" type="curve" smooth="yes"/>
      <point x="368" y="653" type="line"/>
      <point x="260" y="655" type="line"/>
      <point x="260" y="586" type="line" smooth="yes"/>
      <point x="260" y="427"/>
      <point x="238" y="408"/>
      <point x="110" y="407" type="curve" smooth="yes"/>
      <point x="107" y="407"/>
      <point x="82" y="407"/>
      <point x="79" y="407" type="curve"/>
      <point x="79" y="249" type="line" smooth="yes"/>
      <point x="79" y="89"/>
      <point x="179" y="-2"/>
      <point x="335" y="-2" type="curve" smooth="yes"/>
      <point x="477" y="-2"/>
      <point x="584" y="75"/>
      <point x="585" y="213" type="curve"/>
      <point x="482" y="213" type="line"/>
      <point x="477" y="137"/>
      <point x="425" y="93"/>
      <point x="334" y="93" type="curve" smooth="yes"/>
      <point x="234" y="93"/>
      <point x="188" y="146"/>
      <point x="188" y="242" type="curve" smooth="yes"/>
    </contour>
    <contour>
      <point x="619" y="453" type="curve" smooth="yes"/>
      <point x="690" y="453"/>
      <point x="733" y="409"/>
      <point x="733" y="337" type="curve"/>
      <point x="762" y="350" type="line"/>
      <point x="778" y="458"/>
      <point x="723" y="542"/>
      <point x="594" y="542" type="curve" smooth="yes"/>
      <point x="479" y="542"/>
      <point x="399" y="456"/>
      <point x="399" y="338" type="curve" smooth="yes"/>
      <point x="399" y="219"/>
      <point x="478" y="132"/>
      <point x="594" y="132" type="curve" smooth="yes"/>
      <point x="718" y="132"/>
      <point x="778" y="217"/>
      <point x="762" y="325" type="curve"/>
      <point x="733" y="338" type="line"/>
      <point x="733" y="266"/>
      <point x="688" y="222"/>
      <point x="619" y="222" type="curve" smooth="yes"/>
      <point x="548" y="222"/>
      <point x="500" y="266"/>
      <point x="500" y="338" type="curve" smooth="yes"/>
      <point x="500" y="409"/>
      <point x="548" y="453"/>
    </contour>
    <contour>
      <point x="734" y="0" type="line"/>
      <point x="839" y="0" type="line"/>
      <point x="839" y="190"/>
      <point x="839" y="645"/>
      <point x="839" y="645" type="curve"/>
      <point x="960" y="645" type="line"/>
      <point x="960" y="740" type="line"/>
      <point x="-31" y="740" type="line"/>
      <point x="-31" y="645" type="line"/>
      <point x="734" y="645" type="line"/>
    </contour>
  </outline>
</glyph>
<glyph name="dvGHA" format="1">
  <advance width="696"/>
  <unicode hex="0918"/>
  <outline>
    <contour>
      <point x="727" y="740" type="line"/>
      <point x="-31" y="740" type="line"/>
      <point x="-31" y="645" type="line"/>
      <point x="727" y="645" type="line"/>
    </contour>
    <contour>
      <point x="607" y="0" type="line"/>
      <point x="607" y="660" type="line"/>
      <point x="498" y="665" type="line"/>
      <point x="498" y="0" type="line"/>
    </contour>
    <contour>
      <point x="536" y="289" type="curve"/>
      <point x="498" y="356" type="line"/>
      <point x="498" y="257"/>
      <point x="416" y="197"/>
      <point x="317" y="197" type="curve"/>
      <point x="247" y="197"/>
      <point x="182" y="223"/>
      <point x="182" y="293" type="curve" smooth="yes"/>
      <point x="182" y="358"/>
      <point x="235" y="390"/>
      <point x="311" y="390" type="curve" smooth="yes"/>
      <point x="352" y="390" type="line"/>
      <point x="352" y="481" type="line"/>
      <point x="313" y="481" type="line" smooth="yes"/>
      <point x="216" y="481"/>
      <point x="198" y="526"/>
      <point x="198" y="624" type="curve" smooth="yes"/>
      <point x="198" y="669" type="line"/>
      <point x="88" y="660" type="line"/>
      <point x="88" y="624" type="line" smooth="yes"/>
      <point x="88" y="524"/>
      <point x="106" y="469"/>
      <point x="172" y="439" type="curve"/>
      <point x="172" y="433" type="line"/>
      <point x="117" y="410"/>
      <point x="73" y="360"/>
      <point x="73" y="286" type="curve" smooth="yes"/>
      <point x="73" y="163"/>
      <point x="185" y="105"/>
      <point x="296" y="105" type="curve" smooth="yes"/>
      <point x="428" y="105"/>
      <point x="521" y="170"/>
    </contour>
  </outline>
</glyph>
<glyph name="dvNGA" format="1">
  <advance width="676"/>
  <unicode hex="0919"/>
  <outline>
    <contour>
      <point x="379" y="-31" type="move" name="blwm.virama"/>
    </contour>
    <contour>
      <point x="472" y="740" type="move" name="abvm.e"/>
    </contour>
    <contour>
      <point x="385" y="-115" type="move" name="blwm.u"/>
    </contour>
    <contour>
      <point x="707" y="645" type="line"/>
      <point x="707" y="740" type="line"/>
      <point x="-31" y="740" type="line"/>
      <point x="-31" y="645" type="line"/>
    </contour>
    <contour>
      <point x="363" y="505" type="line"/>
      <point x="472" y="505" type="line"/>
      <point x="472" y="718" type="line"/>
      <point x="363" y="718" type="line"/>
    </contour>
    <contour>
      <point x="70" y="192" type="line"/>
      <point x="73" y="59"/>
      <point x="174" y="-14"/>
      <point x="316" y="-14" type="curve" smooth="yes"/>
      <point x="451" y="-14"/>
      <point x="533" y="58"/>
      <point x="533" y="159" type="curve" smooth="yes"/>
      <point x="533" y="301"/>
      <point x="419" y="325"/>
      <point x="310" y="325" type="curve" smooth="yes"/>
      <point x="242" y="325"/>
      <point x="193" y="333"/>
      <point x="193" y="394" type="curve" smooth="yes"/>
      <point x="193" y="451"/>
      <point x="246" y="461"/>
      <point x="312" y="461" type="curve" smooth="yes"/>
      <point x="472" y="461" type="line"/>
      <point x="472" y="521" type="line"/>
      <point x="406" y="552" type="line"/>
      <point x="289" y="552" type="line" smooth="yes"/>
      <point x="183" y="552"/>
      <point x="83" y="515"/>
      <point x="83" y="399" type="curve" smooth="yes"/>
      <point x="83" y="262"/>
      <point x="192" y="237"/>
      <point x="302" y="237" type="curve" smooth="yes"/>
      <point x="369" y="237"/>
      <point x="425" y="229"/>
      <point x="425" y="161" type="curve" smooth="yes"/>
      <point x="425" y="101"/>
      <point x="380" y="75"/>
      <point x="314" y="75" type="curve"/>
      <point x="226" y="75"/>
      <point x="182" y="119"/>
      <point x="177" y="192" type="curve"/>
    </contour>
    <contour>
      <point x="582" y="306" type="curve" smooth="yes"/>
      <point x="618" y="306"/>
      <point x="647" y="336"/>
      <point x="647" y="372" type="curve" smooth="yes"/>
      <point x="647" y="408"/>
      <point x="618" y="437"/>
      <point x="582" y="437" type="curve" smooth="yes"/>
      <point x="546" y="437"/>
      <point x="517" y="408"/>
      <point x="517" y="372" type="curve" smooth="yes"/>
      <point x="517" y="336"/>
      <point x="546" y="306"/>
    </contour>
  </outline>
</glyph>
<glyph name="dvCA" format="1">
  <advance width="735"/>
  <unicode hex="091A"/>
  <outline>
    <contour>
      <point x="415" y="522" type="line"/>
      <point x="49" y="522" type="line"/>
      <point x="49" y="434" type="line"/>
      <point x="415" y="434" type="line"/>
    </contour>
    <contour>
      <point x="537" y="356" type="line"/>
      <point x="537" y="261"/>
      <point x="476" y="188"/>
      <point x="385" y="188" type="curve" smooth="yes"/>
      <point x="303" y="188"/>
      <point x="244" y="230"/>
      <point x="244" y="309" type="curve" smooth="yes"/>
      <point x="244" y="389"/>
      <point x="301" y="434"/>
      <point x="383" y="434" type="curve"/>
      <point x="354" y="472" type="line"/>
      <point x="244" y="486"/>
      <point x="139" y="420"/>
      <point x="139" y="294" type="curve" smooth="yes"/>
      <point x="139" y="171"/>
      <point x="241" y="94"/>
      <point x="365" y="94" type="curve" smooth="yes"/>
      <point x="511" y="94"/>
      <point x="566" y="193"/>
      <point x="566" y="281" type="curve"/>
    </contour>
    <contour>
      <point x="537" y="0" type="line"/>
      <point x="646" y="0" type="line"/>
      <point x="646" y="645" type="line"/>
      <point x="766" y="645" type="line"/>
      <point x="766" y="740" type="line"/>
      <point x="-31" y="740" type="line"/>
      <point x="-31" y="645" type="line"/>
      <point x="537" y="645" type="line"/>
    </contour>
  </outline>
</glyph>
<glyph name="dvJA" format="1">
  <advance width="836"/>
  <unicode hex="091C"/>
  <outline>
    <contour>
      <point x="171" y="380" type="curve" smooth="yes"/>
      <point x="171" y="509" type="line"/>
      <point x="62" y="509" type="line"/>
      <point x="62" y="356" type="line" smooth="yes"/>
      <point x="62" y="219"/>
      <point x="103" y="102"/>
      <point x="274" y="102" type="curve" smooth="yes"/>
      <point x="435" y="102"/>
      <point x="479" y="208"/>
      <point x="479" y="356" type="curve" smooth="yes"/>
      <point x="479" y="509" type="line"/>
      <point x="372" y="509" type="line"/>
      <point x="372" y="380" type="line" smooth="yes"/>
      <point x="372" y="273"/>
      <point x="369" y="197"/>
      <point x="273" y="197" type="curve" smooth="yes"/>
      <point x="177" y="197"/>
      <point x="171" y="273"/>
    </contour>
    <contour>
      <point x="638" y="419" type="line"/>
      <point x="638" y="0" type="line"/>
      <point x="747" y="0" type="line"/>
      <point x="747" y="645" type="line"/>
      <point x="867" y="645" type="line"/>
      <point x="867" y="740" type="line"/>
      <point x="-31" y="740" type="line"/>
      <point x="-31" y="645" type="line"/>
      <point x="638" y="645" type="line"/>
      <point x="638" y="509" type="line"/>
      <point x="381" y="509" type="line"/>
      <point x="381" y="419" type="line"/>
    </contour>
  </outline>
</glyph>
<glyph name="dvJHA" format="1">
  <advance width="845"/>
  <unicode hex="091D"/>
  <outline>
    <contour>
      <point x="876" y="645" type="line"/>
      <point x="876" y="740" type="line"/>
      <point x="-31" y="740" type="line"/>
      <point x="-31" y="645" type="line"/>
    </contour>
    <contour>
      <point x="647" y="0" type="line"/>
      <point x="756" y="0" type="line"/>
      <point x="756" y="713" type="line"/>
      <point x="647" y="713" type="line"/>
    </contour>
    <contour>
      <point x="369" y="515" type="line"/>
      <point x="478" y="515" type="line"/>
      <point x="478" y="718" type="line"/>
      <point x="369" y="718" type="line"/>
    </contour>
    <contour>
      <point x="692" y="262" type="line"/>
      <point x="701" y="349" type="line"/>
      <point x="301" y="349" type="line"/>
      <point x="243" y="349"/>
      <point x="199" y="355"/>
      <point x="199" y="412" type="curve" smooth="yes"/>
      <point x="199" y="469"/>
      <point x="253" y="471"/>
      <point x="318" y="471" type="curve" smooth="yes"/>
      <point x="478" y="471" type="line"/>
      <point x="478" y="531" type="line"/>
      <point x="412" y="562" type="line"/>
      <point x="296" y="562" type="line" smooth="yes"/>
      <point x="190" y="562"/>
      <point x="90" y="534"/>
      <point x="90" y="416" type="curve" smooth="yes"/>
      <point x="90" y="277"/>
      <point x="199" y="263"/>
      <point x="306" y="263" type="curve" smooth="yes"/>
      <point x="370" y="263"/>
      <point x="420" y="261"/>
      <point x="420" y="194" type="curve" smooth="yes"/>
      <point x="420" y="141"/>
      <point x="384" y="112"/>
      <point x="319" y="112" type="curve" smooth="yes"/>
      <point x="247" y="112"/>
      <point x="201" y="152"/>
      <point x="198" y="219" type="curve"/>
      <point x="94" y="219" type="line"/>
      <point x="94" y="-43" type="line"/>
      <point x="198" y="-43" type="line"/>
      <point x="198" y="83" type="line"/>
      <point x="225" y="47"/>
      <point x="280" y="24"/>
      <point x="339" y="24" type="curve" smooth="yes"/>
      <point x="461" y="24"/>
      <point x="522" y="99"/>
      <point x="522" y="189" type="curve" smooth="yes"/>
      <point x="522" y="224"/>
      <point x="505" y="251"/>
      <point x="487" y="262" type="curve"/>
    </contour>
  </outline>
</glyph>
<glyph name="dvNYA" format="1">
  <advance width="833"/>
  <unicode hex="091E"/>
  <outline>
    <contour>
      <point x="635" y="0" type="line"/>
      <point x="744" y="0" type="line"/>
      <point x="744" y="645" type="line"/>
      <point x="864" y="645" type="line"/>
      <point x="864" y="740" type="line"/>
      <point x="-31" y="740" type="line"/>
      <point x="-31" y="645" type="line"/>
      <point x="635" y="645" type="line"/>
    </contour>
    <contour>
      <point x="697" y="284" type="line"/>
      <point x="697" y="378" type="line"/>
      <point x="469" y="378" type="line"/>
      <point x="469" y="284" type="line"/>
    </contour>
    <contour>
      <point x="292" y="568" type="curve" smooth="yes"/>
      <point x="152" y="568"/>
      <point x="77" y="487"/>
      <point x="62" y="395" type="curve"/>
      <point x="169" y="395" type="line"/>
      <point x="180" y="436"/>
      <point x="220" y="474"/>
      <point x="292" y="474" type="curve" smooth="yes"/>
      <point x="380" y="474"/>
      <point x="420" y="415"/>
      <point x="420" y="329" type="curve"/>
      <point x="420" y="242"/>
      <point x="380" y="184"/>
      <point x="292" y="184" type="curve" smooth="yes"/>
      <point x="220" y="184"/>
      <point x="180" y="222"/>
      <point x="169" y="263" type="curve"/>
      <point x="62" y="263" type="line"/>
      <point x="77" y="170"/>
      <point x="152" y="89"/>
      <point x="292" y="89" type="curve" smooth="yes"/>
      <point x="445" y="89"/>
      <point x="525" y="192"/>
      <point x="525" y="329" type="curve"/>
      <point x="525" y="465"/>
      <point x="445" y="568"/>
    </contour>
  </outline>
</glyph>
<glyph name="dvTTA" format="1">
  <advance width="657"/>
  <unicode hex="091F"/>
  <outline>
    <contour>
      <point x="409" y="-1" type="move" name="blwm.virama"/>
    </contour>
    <contour>
      <point x="451" y="740" type="move" name="abvm.e"/>
    </contour>
    <contour>
      <point x="434" y="-82" type="move" name="blwm.u"/>
    </contour>
    <contour>
      <point x="451" y="461" type="line"/>
      <point x="451" y="645" type="line"/>
      <point x="688" y="645" type="line"/>
      <point x="688" y="740" type="line"/>
      <point x="-31" y="740" type="line"/>
      <point x="-31" y="645" type="line"/>
      <point x="342" y="645" type="line"/>
      <point x="342" y="555" type="line"/>
      <point x="182" y="548"/>
      <point x="67" y="458"/>
      <point x="67" y="294" type="curve" smooth="yes"/>
      <point x="67" y="136"/>
      <point x="182" y="35"/>
      <point x="343" y="35" type="curve" smooth="yes"/>
      <point x="505" y="35"/>
      <point x="611" y="133"/>
      <point x="611" y="296" type="curve"/>
      <point x="506" y="296" type="line"/>
      <point x="506" y="195"/>
      <point x="446" y="130"/>
      <point x="342" y="130" type="curve" smooth="yes"/>
      <point x="242" y="130"/>
      <point x="174" y="194"/>
      <point x="174" y="293" type="curve" smooth="yes"/>
      <point x="174" y="411"/>
      <point x="260" y="461"/>
      <point x="379" y="461" type="curve" smooth="yes"/>
    </contour>
  </outline>
</glyph>
<glyph name="dvTTHA" format="1">
  <advance width="670"/>
  <unicode hex="0920"/>
  <outline>
    <contour>
      <point x="405" y="3" type="move" name="blwm.virama"/>
    </contour>
    <contour>
      <point x="395" y="740" type="move" name="abvm.e"/>
    </contour>
    <contour>
      <point x="430" y="-74" type="move" name="blwm.u"/>
    </contour>
    <contour>
      <point x="395" y="550" type="curve"/>
      <point x="395" y="645" type="line"/>
      <point x="701" y="645" type="line"/>
      <point x="701" y="740" type="line"/>
      <point x="-31" y="740" type="line"/>
      <point x="-31" y="645" type="line"/>
      <point x="287" y="645" type="line"/>
      <point x="287" y="550" type="line"/>
      <point x="158" y="530"/>
      <point x="69" y="435"/>
      <point x="69" y="299" type="curve" smooth="yes"/>
      <point x="69" y="143"/>
      <point x="185" y="42"/>
      <point x="341" y="42" type="curve" smooth="yes"/>
      <point x="498" y="42"/>
      <point x="614" y="143"/>
      <point x="614" y="299" type="curve" smooth="yes"/>
      <point x="614" y="436"/>
      <point x="524" y="531"/>
    </contour>
    <contour>
      <point x="341" y="462" type="curve" smooth="yes"/>
      <point x="441" y="462"/>
      <point x="507" y="396"/>
      <point x="507" y="299" type="curve" smooth="yes"/>
      <point x="507" y="202"/>
      <point x="441" y="136"/>
      <point x="341" y="136" type="curve" smooth="yes"/>
      <point x="242" y="136"/>
      <point x="176" y="202"/>
      <point x="176" y="299" type="curve" smooth="yes"/>
      <point x="176" y="396"/>
      <point x="242" y="462"/>
    </contour>
  </outline>
</glyph>
<glyph name="dvDDHA" format="1">
  <advance width="638"/>
  <unicode hex="0922"/>
  <outline>
    <contour>
      <point x="443" y="-26" type="move" name="blwm.virama"/>
    </contour>
    <contour>
      <point x="481" y="740" type="move" name="abvm.e"/>
    </contour>
    <contour>
      <point x="439" y="-120" type="move" name="blwm.u"/>
    </contour>
    <contour>
      <point x="372" y="470" type="line"/>
      <point x="481" y="470" type="line"/>
      <point x="481" y="645" type="line"/>
      <point x="669" y="645" type="line"/>
      <point x="669" y="740" type="line"/>
      <point x="-31" y="740" type="line"/>
      <point x="-31" y="645" type="line"/>
      <point x="372" y="645" type="line"/>
    </contour>
    <contour>
      <point x="259" y="194" type="curve"/>
      <point x="355" y="194" type="line"/>
      <point x="355" y="241"/>
      <point x="374" y="281"/>
      <point x="429" y="281" type="curve" smooth="yes"/>
      <point x="486" y="281"/>
      <point x="506" y="243"/>
      <point x="506" y="199" type="curve" smooth="yes"/>
      <point x="506" y="137"/>
      <point x="459" y="97"/>
      <point x="374" y="97" type="curve" smooth="yes"/>
      <point x="252" y="97"/>
      <point x="172" y="161"/>
      <point x="172" y="276" type="curve" smooth="yes"/>
      <point x="172" y="408"/>
      <point x="264" y="470"/>
      <point x="398" y="470" type="curve"/>
      <point x="396" y="563" type="line"/>
      <point x="212" y="565"/>
      <point x="65" y="476"/>
      <point x="65" y="278" type="curve" smooth="yes"/>
      <point x="65" y="102"/>
      <point x="198" y="2"/>
      <point x="371" y="2" type="curve" smooth="yes"/>
      <point x="506" y="2"/>
      <point x="608" y="74"/>
      <point x="608" y="202" type="curve" smooth="yes"/>
      <point x="608" y="305"/>
      <point x="532" y="369"/>
      <point x="428" y="369" type="curve" smooth="yes"/>
      <point x="312" y="369"/>
      <point x="258" y="297"/>
    </contour>
  </outline>
</glyph>
<glyph name="dvNNA" format="1">
  <advance width="870"/>
  <unicode hex="0923"/>
  <outline>
    <contour>
      <point x="512" y="396" type="curve" smooth="yes"/>
      <point x="512" y="692" type="line"/>
      <point x="404" y="692" type="line"/>
      <point x="404" y="392" type="line" smooth="yes"/>
      <point x="404" y="310"/>
      <point x="385" y="254"/>
      <point x="303" y="254" type="curve"/>
      <point x="221" y="254"/>
      <point x="201" y="310"/>
      <point x="201" y="392" type="curve" smooth="yes"/>
      <point x="201" y="692" type="line"/>
      <point x="94" y="692" type="line"/>
      <point x="94" y="396" type="line" smooth="yes"/>
      <point x="94" y="254"/>
      <point x="151" y="159"/>
      <point x="303" y="159" type="curve"/>
      <point x="454" y="159"/>
      <point x="512" y="254"/>
    </contour>
    <contour>
      <point x="902" y="645" type="line"/>
      <point x="902" y="740" type="line"/>
      <point x="-31" y="740" type="line"/>
      <point x="-31" y="645" type="line"/>
      <point x="673" y="645" type="line"/>
      <point x="673" y="0" type="line"/>
      <point x="781" y="0" type="line"/>
      <point x="781" y="645" type="line"/>
    </contour>
  </outline>
</glyph>
<glyph name="dvTA" format="1">
  <advance width="681"/>
  <unicode hex="0924"/>
  <outline>
    <contour>
      <point x="345" y="88" type="line"/>
      <point x="219" y="88"/>
      <point x="171" y="145"/>
      <point x="171" y="246" type="curve" smooth="yes"/>
      <point x="171" y="357"/>
      <point x="247" y="400"/>
      <point x="349" y="400" type="curve" smooth="yes"/>
      <point x="390" y="400" type="line"/>
      <point x="484" y="400" type="line"/>
      <point x="484" y="0" type="line"/>
      <point x="592" y="0" type="line"/>
      <point x="592" y="645" type="line"/>
      <point x="713" y="645" type="line"/>
      <point x="713" y="740" type="line"/>
      <point x="-31" y="740" type="line"/>
      <point x="-31" y="645" type="line"/>
      <point x="484" y="645" type="line"/>
      <point x="484" y="495" type="line"/>
      <point x="387" y="495" type="line"/>
      <point x="347" y="495" type="line" smooth="yes"/>
      <point x="186" y="495"/>
      <point x="62" y="427"/>
      <point x="62" y="246" type="curve" smooth="yes"/>
      <point x="62" y="89"/>
      <point x="153" y="-1"/>
      <point x="326" y="-1" type="curve" smooth="yes"/>
      <point x="345" y="-1" type="line"/>
    </contour>
  </outline>
</glyph>
<glyph name="dvTHA" format="1">
  <advance width="768"/>
  <unicode hex="0925"/>
  <outline>
    <contour>
      <point x="799" y="645" type="line"/>
      <point x="799" y="740" type="line"/>
      <point x="570" y="740" type="line"/>
      <point x="570" y="384" type="line"/>
      <point x="567" y="262"/>
      <point x="483" y="185"/>
      <point x="376" y="185" type="curve" smooth="yes"/>
      <point x="248" y="185"/>
      <point x="190" y="264"/>
      <point x="197" y="371" type="curve"/>
      <point x="355" y="369"/>
      <point x="479" y="415"/>
      <point x="479" y="561" type="curve" smooth="yes"/>
      <point x="479" y="681"/>
      <point x="396" y="749"/>
      <point x="289" y="749" type="curve" smooth="yes"/>
      <point x="175" y="749"/>
      <point x="94" y="671"/>
      <point x="99" y="546" type="curve"/>
      <point x="201" y="546" type="line"/>
      <point x="198" y="610"/>
      <point x="227" y="653"/>
      <point x="288" y="653" type="curve" smooth="yes"/>
      <point x="341" y="653"/>
      <point x="374" y="620"/>
      <point x="374" y="564" type="curve" smooth="yes"/>
      <point x="374" y="474"/>
      <point x="301" y="454"/>
      <point x="187" y="454" type="curve" smooth="yes"/>
      <point x="171" y="454"/>
      <point x="104" y="455"/>
      <point x="86" y="455" type="curve"/>
      <point x="59" y="243"/>
      <point x="159" y="90"/>
      <point x="361" y="90" type="curve" smooth="yes"/>
      <point x="474" y="90"/>
      <point x="542" y="143"/>
      <point x="570" y="191" type="curve"/>
      <point x="570" y="0" type="line"/>
      <point x="679" y="0" type="line"/>
      <point x="679" y="645" type="line"/>
    </contour>
  </outline>
</glyph>
<glyph name="dvDA" format="1">
  <advance width="601"/>
  <unicode hex="0926"/>
  <outline>
    <contour>
      <point x="531" y="-40" type="move" name="blwm.virama"/>
    </contour>
    <contour>
      <point x="495" y="740" type="move" name="abvm.e"/>
    </contour>
    <contour>
      <point x="530" y="-8" type="move" name="blwm.u"/>
    </contour>
    <contour>
      <point x="530" y="-8" type="line"/>
      <point x="530" y="285" type="line"/>
      <point x="432" y="285" type="line"/>
      <point x="432" y="207"/>
      <point x="380" y="176"/>
      <point x="315" y="176" type="curve"/>
      <point x="227" y="176"/>
      <point x="170" y="220"/>
      <point x="170" y="310" type="curve" smooth="yes"/>
      <point x="170" y="422"/>
      <point x="251" y="455"/>
      <point x="362" y="455" type="curve" smooth="yes"/>
      <point x="495" y="455" type="line"/>
      <point x="495" y="645" type="line"/>
      <point x="632" y="645" type="line"/>
      <point x="632" y="740" type="line"/>
      <point x="-31" y="740" type="line"/>
      <point x="-31" y="645" type="line"/>
      <point x="386" y="645" type="line"/>
      <point x="386" y="553" type="line"/>
      <point x="351" y="553" type="line" smooth="yes"/>
      <point x="184" y="553"/>
      <point x="61" y="483"/>
      <point x="61" y="313" type="curve" smooth="yes"/>
      <point x="61" y="164"/>
      <point x="163" y="82"/>
      <point x="296" y="82" type="curve" smooth="yes"/>
      <point x="352" y="82"/>
      <point x="400" y="101"/>
      <point x="422" y="129" type="curve"/>
      <point x="422" y="-8" type="line"/>
    </contour>
  </outline>
</glyph>
<glyph name="dvPA" format="1">
  <advance width="665"/>
  <unicode hex="092A"/>
  <outline>
    <contour>
      <point x="467" y="0" type="line"/>
      <point x="576" y="0" type="line"/>
      <point x="576" y="645" type="line"/>
      <point x="696" y="645" type="line"/>
      <point x="696" y="740" type="line"/>
      <point x="-31" y="740" type="line"/>
      <point x="-31" y="645" type="line"/>
      <point x="87" y="645" type="line"/>
      <point x="87" y="443" type="line" smooth="yes"/>
      <point x="87" y="300"/>
      <point x="161" y="190"/>
      <point x="305" y="190" type="curve" smooth="yes"/>
      <point x="445" y="190"/>
      <point x="489" y="285"/>
      <point x="496" y="349" type="curve"/>
      <point x="467" y="435" type="line"/>
      <point x="467" y="346"/>
      <point x="414" y="285"/>
      <point x="333" y="285" type="curve" smooth="yes"/>
      <point x="233" y="285"/>
      <point x="196" y="348"/>
      <point x="196" y="443" type="curve" smooth="yes"/>
      <point x="196" y="645" type="line"/>
      <point x="467" y="645" type="line"/>
    </contour>
  </outline>
</glyph>
